<svg width="112" height="114" viewBox="0 0 112 114" fill="none" xmlns="http://www.w3.org/2000/svg">
<path d="M56.0755 8.19968C55.4022 8.19968 54.7889 8.04302 54.2355 7.72968C53.6822 7.40968 53.2489 6.97302 52.9355 6.41968C52.6222 5.85968 52.4655 5.23968 52.4655 4.55968C52.4655 3.51968 52.8089 2.64968 53.4955 1.94968C54.1889 1.24968 55.0489 0.899682 56.0755 0.899682C56.9289 0.899682 57.6656 1.15635 58.2855 1.66968C58.9055 2.18302 59.2989 2.85635 59.4655 3.68968L57.9455 3.68968C57.8522 3.41635 57.7155 3.17968 57.5356 2.97968C57.3556 2.77302 57.1389 2.61635 56.8855 2.50968C56.6389 2.39635 56.3689 2.33968 56.0755 2.33968C55.4822 2.33968 54.9855 2.55302 54.5855 2.97968C54.1922 3.39968 53.9955 3.92635 53.9955 4.55968C53.9955 5.18635 54.1922 5.70968 54.5855 6.12968C54.9855 6.54968 55.4822 6.75968 56.0755 6.75968C56.5355 6.75968 56.9322 6.62968 57.2656 6.36968C57.5989 6.10968 57.8289 5.75635 57.9556 5.30968L59.4856 5.30968C59.3256 6.17635 58.9322 6.87635 58.3055 7.40968C57.6855 7.93635 56.9422 8.19968 56.0755 8.19968Z" fill="black"/>
<path d="M68.6434 9.56436L67.1296 9.28153L67.2915 4.6627L64.3987 8.76114L64.035 8.69318L62.8189 3.82706L61.3004 8.19245L59.7768 7.90778L62.145 1.22911L63.6391 1.50827L64.7083 6.07226L67.3647 2.20433L68.8588 2.48349L68.6434 9.56436Z" fill="black"/>
<path d="M73.9967 11.6371C73.0021 11.2518 72.2974 10.6071 71.8827 9.70293C71.4766 8.79495 71.4615 7.85608 71.8372 6.88632C72.2129 5.91656 72.8555 5.23606 73.7649 4.84481C74.683 4.44975 75.6393 4.44487 76.634 4.83017C77.2867 5.08302 77.8195 5.46098 78.2323 5.96405C78.6537 6.46332 78.9125 7.03184 79.0086 7.6696C79.1071 8.30116 79.0323 8.93708 78.7842 9.57737C78.4061 10.5533 77.7623 11.237 76.8528 11.6282C75.9434 12.0195 74.9914 12.0224 73.9967 11.6371ZM74.5133 10.3037C74.8988 10.453 75.2806 10.5008 75.6589 10.4472C76.0395 10.3873 76.3783 10.2326 76.6752 9.98296C76.9783 9.73576 77.2058 9.41634 77.3575 9.02471C77.5863 8.43415 77.5807 7.8672 77.3408 7.32385C77.1095 6.7767 76.7017 6.38995 76.1174 6.16359C75.5392 5.93963 74.9742 5.94952 74.4222 6.19326C73.8788 6.43318 73.4927 6.84842 73.2639 7.43898C73.0351 8.02954 73.0394 8.5996 73.2769 9.14916C73.5231 9.69491 73.9352 10.0798 74.5133 10.3037Z" fill="black"/>
<path d="M87.5136 10.7041L86.7712 11.9029L85.1133 10.8764L82.1703 15.629L80.878 14.8289L83.8209 10.0763L82.1715 9.0551L82.9138 7.85633L87.5136 10.7041Z" fill="black"/>
<path d="M94.1068 16.0269C94.6291 16.503 94.9102 17.0704 94.9501 17.7292C94.9945 18.3831 94.7831 18.9662 94.316 19.4785C93.8533 19.986 93.2922 20.2502 92.6324 20.2713C91.9772 20.2874 91.3885 20.0575 90.8662 19.5814L90.0015 18.7932L88.5261 20.4116L87.4027 19.3876L92.1188 14.2148L94.1068 16.0269ZM91.7651 18.5064C91.9868 18.7085 92.2271 18.8012 92.4858 18.7845C92.7496 18.7723 92.9802 18.6579 93.1779 18.4411C93.3755 18.2243 93.4682 17.9841 93.456 17.7204C93.4532 17.4563 93.341 17.2232 93.1193 17.0211L92.2989 16.2733L90.9448 17.7586L91.7651 18.5064Z" fill="black"/>
<path d="M95.7316 26.0425L97.413 28.2689L96.2878 29.1185L93.6903 25.6792L99.2766 21.461L101.808 24.8126L100.691 25.6562L99.0754 23.5176L97.9741 24.3492L99.4326 26.2803L98.3392 27.1059L96.8808 25.1747L95.7316 26.0425Z" fill="black"/>
<path d="M107.167 34.2276L105.905 34.8561L105.035 33.1105L100.031 35.602L99.3538 34.2414L104.358 31.7499L103.493 30.0133L104.755 29.3849L107.167 34.2276Z" fill="black"/>
<path d="M107.927 42.7904C108.06 43.2585 108.08 43.7035 107.985 44.1256C107.892 44.554 107.695 44.9219 107.394 45.2293C107.102 45.5412 106.728 45.762 106.273 45.8915C105.587 46.0867 104.958 46.0196 104.386 45.6902C103.82 45.359 103.436 44.8375 103.233 44.1258L102.489 41.5096L109.222 39.5941L109.638 41.0561L107.599 41.6362L107.927 42.7904ZM104.569 43.6314C104.657 43.9392 104.818 44.1637 105.052 44.305C105.294 44.4509 105.56 44.4827 105.848 44.4007C106.041 44.3459 106.198 44.2527 106.32 44.121C106.444 43.9957 106.524 43.841 106.562 43.657C106.6 43.473 106.59 43.2783 106.531 43.0732L106.233 42.0248L104.271 42.583L104.569 43.6314Z" fill="black"/>
<path d="M108.237 63.8269C108.049 64.1175 107.802 64.3322 107.494 64.4711C107.193 64.6173 106.856 64.6731 106.484 64.6387C105.927 64.587 105.472 64.3273 105.12 63.8595C104.768 63.3984 104.62 62.8658 104.676 62.2617L104.951 59.2944L111.921 59.9402L111.653 62.8279C111.598 63.4253 111.379 63.9072 110.997 64.2735C110.622 64.6404 110.178 64.8002 109.667 64.7528C109.369 64.7252 109.093 64.6293 108.84 64.4653C108.588 64.3013 108.387 64.0885 108.237 63.8269ZM109.564 63.267C109.677 63.2774 109.778 63.2667 109.868 63.2349C109.964 63.2103 110.049 63.1679 110.121 63.1077C110.194 63.0474 110.251 62.9691 110.294 62.8726C110.342 62.7833 110.372 62.679 110.383 62.5595L110.499 61.3049L109.015 61.1674L108.899 62.422C108.877 62.661 108.926 62.8563 109.046 63.008C109.172 63.1604 109.345 63.2467 109.564 63.267ZM106.074 62.2406C106.051 62.4862 106.106 62.6921 106.238 62.8583C106.369 63.0245 106.552 63.1184 106.784 63.1399C107.01 63.1608 107.203 63.1017 107.363 62.9626C107.523 62.8234 107.614 62.631 107.637 62.3854L107.761 61.0511L106.197 60.9063L106.074 62.2406Z" fill="black"/>
<path d="M109.345 73.9734L109.044 75.0314L102.311 73.116L102.727 71.654L106.776 72.806L103.614 68.5377L103.901 67.5278L110.634 69.4433L110.218 70.9052L106.217 69.7669L109.345 73.9734Z" fill="black"/>
<path d="M99.909 81.8066L99.6059 82.4153L97.2337 81.2341L97.8577 79.9809L98.9678 80.5336L100.813 76.8277L99.7032 76.275L100.327 75.0218L102.7 76.2029L102.45 76.7042C102.477 76.8294 102.517 76.9426 102.571 77.0439C102.622 77.1511 102.724 77.2762 102.876 77.419C103.031 77.5708 103.195 77.7122 103.369 77.843C103.548 77.9769 103.83 78.1657 104.215 78.4096C104.597 78.6594 104.979 78.9017 105.361 79.1366C105.749 79.3745 106.292 79.7045 106.99 80.1267L104.913 84.2981L99.909 81.8066ZM105.144 80.6709C104.022 80.0228 103.215 79.5128 102.722 79.141C102.236 78.7721 101.913 78.4253 101.755 78.1006L100.582 80.4549L104.324 82.3179L105.144 80.6709Z" fill="black"/>
<path d="M96.6515 86.7395L94.97 88.9659L93.8448 88.1162L96.4423 84.6769L102.029 88.8951L99.4974 92.2466L98.3801 91.403L99.9953 89.2644L98.894 88.4328L97.4355 90.3639L96.3422 89.5384L97.8006 87.6072L96.6515 86.7395Z" fill="black"/>
<path d="M88.5884 93.3287C89.3767 92.6102 90.268 92.2668 91.2623 92.2986C92.2561 92.3398 93.1034 92.7447 93.8041 93.5133C94.5048 94.2818 94.8275 95.1603 94.7724 96.1487C94.7168 97.1465 94.2949 98.0047 93.5066 98.7233C92.9893 99.1949 92.4134 99.5033 91.779 99.6485C91.1442 99.8032 90.5199 99.7814 89.9061 99.5832C89.2968 99.3899 88.7609 99.0395 88.2982 98.532C87.5931 97.7586 87.2681 96.8776 87.3232 95.8892C87.3783 94.9008 87.8001 94.0473 88.5884 93.3287ZM89.5518 94.3855C89.2463 94.6639 89.0333 94.9844 88.9127 95.3469C88.7966 95.7143 88.7841 96.0865 88.8752 96.4635C88.9614 96.845 89.146 97.191 89.429 97.5013C89.8557 97.9694 90.3657 98.2171 90.9591 98.2445C91.552 98.2814 92.08 98.0887 92.5431 97.6665C93.0014 97.2489 93.2444 96.7387 93.2723 96.136C93.2997 95.5426 93.1001 95.012 92.6734 94.544C92.2467 94.0759 91.7344 93.8257 91.1365 93.7934C90.5382 93.7704 90.01 93.9678 89.5518 94.3855Z" fill="black"/>
<path d="M74.756 104.02C75.0917 103.89 75.4148 103.894 75.7253 104.031C76.0358 104.168 76.2561 104.404 76.3862 104.74C76.4729 104.964 76.5014 105.185 76.4718 105.404C76.436 105.625 76.3472 105.82 76.2054 105.99C76.0637 106.159 75.884 106.286 75.6664 106.37C75.3308 106.5 75.0077 106.497 74.6972 106.36C74.3867 106.222 74.1664 105.986 74.0363 105.65C73.9063 105.315 73.9098 104.992 74.0469 104.681C74.184 104.371 74.4204 104.15 74.756 104.02Z" fill="black"/>
<path d="M55.9245 105.8C56.5978 105.8 57.2111 105.957 57.7645 106.27C58.3178 106.59 58.7511 107.027 59.0645 107.58C59.3778 108.14 59.5345 108.76 59.5345 109.44C59.5345 110.48 59.1911 111.35 58.5045 112.05C57.8111 112.75 56.9511 113.1 55.9245 113.1C55.0711 113.1 54.3344 112.844 53.7145 112.33C53.0945 111.817 52.7011 111.144 52.5345 110.31H54.0545C54.1478 110.584 54.2845 110.82 54.4644 111.02C54.6444 111.227 54.8611 111.384 55.1145 111.49C55.3611 111.604 55.6311 111.66 55.9245 111.66C56.5178 111.66 57.0145 111.447 57.4145 111.02C57.8078 110.6 58.0045 110.074 58.0045 109.44C58.0045 108.814 57.8078 108.29 57.4145 107.87C57.0145 107.45 56.5178 107.24 55.9245 107.24C55.4645 107.24 55.0678 107.37 54.7344 107.63C54.4011 107.89 54.1711 108.244 54.0444 108.69H52.5144C52.6744 107.824 53.0678 107.124 53.6945 106.59C54.3145 106.064 55.0578 105.8 55.9245 105.8Z" fill="black"/>
<path d="M43.3562 104.435L44.87 104.718L44.7084 109.337L47.6008 105.238L47.9645 105.306L49.181 110.173L50.699 105.807L52.2227 106.092L49.855 112.771L48.3609 112.492L47.2914 107.927L44.6354 111.795L43.1413 111.516L43.3562 104.435Z" fill="black"/>
<path d="M38.0033 102.363C38.9979 102.748 39.7026 103.393 40.1173 104.297C40.5234 105.205 40.5385 106.144 40.1628 107.114C39.7871 108.083 39.1445 108.764 38.2351 109.155C37.317 109.55 36.3607 109.555 35.366 109.17C34.7133 108.917 34.1805 108.539 33.7677 108.036C33.3463 107.537 33.0875 106.968 32.9914 106.33C32.8929 105.699 32.9677 105.063 33.2158 104.423C33.5939 103.447 34.2377 102.763 35.1472 102.372C36.0566 101.981 37.0086 101.978 38.0033 102.363ZM37.4867 103.696C37.1012 103.547 36.7194 103.499 36.3411 103.553C35.9605 103.613 35.6217 103.767 35.3248 104.017C35.0217 104.264 34.7942 104.584 34.6425 104.975C34.4137 105.566 34.4193 106.133 34.6592 106.676C34.8905 107.223 35.2983 107.61 35.8826 107.836C36.4608 108.06 37.0258 108.05 37.5778 107.807C38.1212 107.567 38.5073 107.152 38.7361 106.561C38.9649 105.97 38.9606 105.4 38.7231 104.851C38.4769 104.305 38.0648 103.92 37.4867 103.696Z" fill="black"/>
<path d="M24.4864 103.296L25.2288 102.097L26.8867 103.124L29.8297 98.371L31.122 99.1711L28.1791 103.924L29.8285 104.945L29.0862 106.144L24.4864 103.296Z" fill="black"/>
<path d="M17.8932 97.9731C17.3709 97.497 17.0898 96.9296 17.0499 96.2708C17.0055 95.6169 17.2169 95.0338 17.684 94.5215C18.1467 94.014 18.7078 93.7498 19.3676 93.7287C20.0228 93.7126 20.6115 93.9425 21.1338 94.4186L21.9985 95.2068L23.4739 93.5884L24.5973 94.6124L19.8812 99.7852L17.8932 97.9731ZM20.2349 95.4936C20.0132 95.2915 19.7729 95.1988 19.5142 95.2155C19.2504 95.2277 19.0198 95.3421 18.8221 95.5589C18.6245 95.7757 18.5318 96.0159 18.544 96.2796C18.5468 96.5437 18.659 96.7768 18.8807 96.9789L19.7011 97.7267L21.0552 96.2414L20.2349 95.4936Z" fill="black"/>
<path d="M16.2684 87.9575L14.587 85.7311L15.7122 84.8815L18.3097 88.3208L12.7234 92.539L10.1922 89.1874L11.3095 88.3438L12.9246 90.4824L14.0259 89.6508L12.5674 87.7197L13.6608 86.8941L15.1192 88.8253L16.2684 87.9575Z" fill="black"/>
<path d="M4.8332 79.7723L6.0954 79.1438L6.96465 80.8893L11.9687 78.3978L12.6463 79.7585L7.64222 82.25L8.50701 83.9866L7.24481 84.615L4.8332 79.7723Z" fill="black"/>
<path d="M4.07288 71.2097C3.93969 70.7416 3.92048 70.2966 4.01526 69.8745C4.10821 69.4461 4.30504 69.0782 4.60573 68.7708C4.89819 68.4589 5.27206 68.2382 5.72733 68.1086C6.41343 67.9134 7.04248 67.9805 7.61447 68.3099C8.18004 68.6411 8.56409 69.1626 8.76662 69.8744L9.51104 72.4905L2.77822 74.406L2.36222 72.944L4.4013 72.3639L4.07288 71.2097ZM7.43092 70.3687C7.34334 70.061 7.18242 69.8364 6.94814 69.6951C6.70562 69.5493 6.44009 69.5174 6.15154 69.5995C5.95917 69.6542 5.80202 69.7474 5.68008 69.8791C5.55632 70.0045 5.47557 70.1591 5.43782 70.3432C5.40008 70.5272 5.4104 70.7218 5.46879 70.927L5.7671 71.9753L7.72924 71.4171L7.43092 70.3687Z" fill="black"/>
<path d="M3.76333 50.1731C3.95095 49.8825 4.19849 49.6678 4.50595 49.5289C4.80739 49.3827 5.14398 49.3269 5.51572 49.3613C6.07333 49.413 6.52797 49.6727 6.87964 50.1405C7.23192 50.6016 7.38008 51.1342 7.32409 51.7383L7.04911 54.7056L0.0789649 54.0598L0.346567 51.1721C0.401933 50.5747 0.620665 50.0928 1.00276 49.7265C1.37822 49.3596 1.82153 49.1998 2.33267 49.2472C2.63139 49.2748 2.90706 49.3707 3.15967 49.5347C3.41228 49.6987 3.6135 49.9115 3.76333 50.1731ZM2.436 50.733C2.32315 50.7226 2.22173 50.7333 2.13174 50.7651C2.03573 50.7897 1.95146 50.8321 1.87893 50.8923C1.80639 50.9526 1.74892 51.0309 1.7065 51.1274C1.65805 51.2167 1.6283 51.321 1.61722 51.4405L1.50096 52.6951L2.9846 52.8326L3.10087 51.578C3.12302 51.339 3.07417 51.1437 2.95432 50.992C2.82784 50.8396 2.65506 50.7533 2.436 50.733ZM5.92618 51.7594C5.94894 51.5138 5.89438 51.3079 5.76249 51.1417C5.63059 50.9755 5.44848 50.8816 5.21614 50.8601C4.99044 50.8392 4.79749 50.8983 4.6373 51.0374C4.47711 51.1766 4.38564 51.369 4.36288 51.6146L4.23923 52.9489L5.80253 53.0937L5.92618 51.7594Z" fill="black"/>
<path d="M2.65516 40.0266L2.95621 38.9686L9.68904 40.884L9.27303 42.346L5.22372 41.194L8.38629 45.4623L8.09892 46.4722L1.3661 44.5567L1.7821 43.0948L5.78332 44.2331L2.65516 40.0266Z" fill="black"/>
<path d="M12.091 32.1934L12.3941 31.5847L14.7663 32.7659L14.1423 34.0191L13.0322 33.4664L11.1867 37.1723L12.2968 37.725L11.6727 38.9782L9.30046 37.7971L9.55009 37.2958C9.52306 37.1706 9.48262 37.0574 9.42879 36.9561C9.37793 36.8489 9.27635 36.7238 9.12406 36.581C8.96878 36.4292 8.80457 36.2878 8.63142 36.157C8.45232 36.0231 8.17026 35.8343 7.78524 35.5904C7.4032 35.3406 7.02118 35.0983 6.63916 34.8634C6.25118 34.6255 5.708 34.2955 5.00964 33.8733L7.08693 29.7019L12.091 32.1934ZM6.8558 33.3291C7.97791 33.9772 8.78524 34.4872 9.27779 34.859C9.76438 35.2279 10.0869 35.5747 10.2455 35.8994L11.4179 33.5451L7.67602 31.6821L6.8558 33.3291Z" fill="black"/>
<path d="M15.3485 27.2605L17.03 25.0341L18.1552 25.8838L15.5577 29.3231L9.97142 25.1049L12.5026 21.7534L13.6199 22.597L12.0047 24.7356L13.106 25.5672L14.5645 23.6361L15.6578 24.4616L14.1994 26.3928L15.3485 27.2605Z" fill="black"/>
<path d="M23.4116 20.6713C22.6233 21.3898 21.732 21.7332 20.7377 21.7014C19.7439 21.6602 18.8966 21.2553 18.1959 20.4867C17.4952 19.7182 17.1725 18.8397 17.2276 17.8513C17.2832 16.8535 17.7051 15.9953 18.4934 15.2767C19.0107 14.8051 19.5866 14.4967 20.221 14.3515C20.8558 14.1968 21.4801 14.2186 22.0939 14.4168C22.7032 14.6101 23.2391 14.9605 23.7018 15.468C24.4069 16.2414 24.7319 17.1224 24.6768 18.1108C24.6217 19.0992 24.1999 19.9527 23.4116 20.6713ZM22.4482 19.6145C22.7537 19.3361 22.9667 19.0156 23.0873 18.6531C23.2034 18.2857 23.2159 17.9135 23.1248 17.5365C23.0386 17.155 22.854 16.809 22.571 16.4987C22.1443 16.0306 21.6343 15.7829 21.0409 15.7555C20.448 15.7186 19.92 15.9113 19.4569 16.3335C18.9986 16.7511 18.7556 17.2613 18.7277 17.864C18.7003 18.4574 18.8999 18.988 19.3266 19.456C19.7533 19.9241 20.2656 20.1743 20.8635 20.2066C21.4618 20.2296 21.99 20.0322 22.4482 19.6145Z" fill="black"/>
<path d="M37.244 9.97952C36.9083 10.1096 36.5852 10.106 36.2747 9.96893C35.9642 9.83183 35.7439 9.59543 35.6138 9.25975C35.5271 9.03596 35.4986 8.81466 35.5282 8.59585C35.564 8.37464 35.6528 8.17938 35.7946 8.01009C35.9363 7.84079 36.116 7.714 36.3336 7.62972C36.6692 7.49968 36.9923 7.50321 37.3028 7.64031C37.6133 7.77741 37.8336 8.0138 37.9637 8.34949C38.0937 8.68517 38.0902 9.00826 37.9531 9.31874C37.816 9.62922 37.5796 9.84948 37.244 9.97952Z" fill="black"/>
<path d="M84 56.9756C84 72.4396 71.464 84.9756 56 84.9756C40.536 84.9756 28 72.4396 28 56.9756C28 41.5116 40.536 28.9756 56 28.9756C71.464 28.9756 84 41.5116 84 56.9756Z" fill="#FFDCBE"/>
<path d="M60 56.9756L54 60.9756V52.9756L60 56.9756ZM56 47.9756C54.22 47.9756 52.4799 48.5034 50.9999 49.4924C49.5198 50.4813 48.3663 51.8869 47.6851 53.5314C47.0039 55.176 46.8257 56.9856 47.1729 58.7314C47.5202 60.4772 48.3774 62.0809 49.636 63.3395C50.8947 64.5982 52.4984 65.4554 54.2442 65.8027C55.99 66.1499 57.7996 65.9717 59.4442 65.2905C61.0887 64.6093 62.4943 63.4558 63.4832 61.9757C64.4722 60.4957 65 58.7556 65 56.9756C65 54.5886 64.0518 52.2995 62.364 50.6116C60.6761 48.9238 58.387 47.9756 56 47.9756V47.9756Z" stroke="black" stroke-width="2" stroke-linecap="round" stroke-linejoin="round"/>
</svg>
