<svg width="112" height="114" viewBox="0 0 112 114" fill="none" xmlns="http://www.w3.org/2000/svg">
<path d="M56.0755 8.19971C55.4022 8.19971 54.7888 8.04305 54.2355 7.72971C53.6822 7.40971 53.2488 6.97305 52.9355 6.41971C52.6222 5.85971 52.4655 5.23971 52.4655 4.55971C52.4655 3.51971 52.8088 2.64971 53.4955 1.94971C54.1888 1.24971 55.0488 0.899713 56.0755 0.899713C56.9288 0.899713 57.6655 1.15638 58.2855 1.66971C58.9055 2.18305 59.2988 2.85638 59.4655 3.68971L57.9455 3.68971C57.8522 3.41638 57.7155 3.17971 57.5355 2.97971C57.3555 2.77305 57.1388 2.61638 56.8855 2.50971C56.6388 2.39638 56.3688 2.33971 56.0755 2.33971C55.4822 2.33971 54.9855 2.55305 54.5855 2.97971C54.1922 3.39971 53.9955 3.92638 53.9955 4.55971C53.9955 5.18638 54.1922 5.70971 54.5855 6.12971C54.9855 6.54971 55.4822 6.75971 56.0755 6.75971C56.5355 6.75971 56.9322 6.62971 57.2655 6.36971C57.5988 6.10971 57.8288 5.75638 57.9555 5.30971L59.4855 5.30971C59.3255 6.17638 58.9322 6.87638 58.3055 7.40971C57.6855 7.93638 56.9422 8.19971 56.0755 8.19971Z" fill="black"/>
<path d="M68.6434 9.56436L67.1296 9.28153L67.2915 4.6627L64.3987 8.76114L64.035 8.69318L62.8189 3.82706L61.3004 8.19245L59.7768 7.90778L62.145 1.22911L63.6391 1.50827L64.7083 6.07226L67.3647 2.20433L68.8588 2.48349L68.6434 9.56436Z" fill="black"/>
<path d="M73.9967 11.6372C73.0021 11.2519 72.2974 10.6071 71.8827 9.70296C71.4766 8.79498 71.4615 7.85611 71.8372 6.88635C72.2129 5.91659 72.8555 5.23609 73.7649 4.84484C74.683 4.44978 75.6393 4.4449 76.634 4.8302C77.2867 5.08305 77.8195 5.46101 78.2323 5.96408C78.6537 6.46335 78.9125 7.03187 79.0086 7.66964C79.1071 8.30119 79.0323 8.93711 78.7842 9.5774C78.4061 10.5534 77.7623 11.237 76.8528 11.6282C75.9434 12.0195 74.9914 12.0225 73.9967 11.6372ZM74.5133 10.3037C74.8988 10.453 75.2806 10.5009 75.6589 10.4472C76.0395 10.3873 76.3783 10.2326 76.6752 9.98299C76.9783 9.73579 77.2058 9.41637 77.3575 9.02474C77.5863 8.43418 77.5807 7.86723 77.3408 7.32389C77.1095 6.77673 76.7017 6.38998 76.1174 6.16362C75.5392 5.93966 74.9742 5.94955 74.4222 6.19329C73.8788 6.43321 73.4927 6.84845 73.2639 7.43901C73.0351 8.02957 73.0394 8.59963 73.2769 9.14919C73.5231 9.69494 73.9352 10.0798 74.5133 10.3037Z" fill="black"/>
<path d="M87.5136 10.7041L86.7713 11.9029L85.1133 10.8764L82.1704 15.629L80.878 14.8289L83.821 10.0763L82.1715 9.05507L82.9138 7.8563L87.5136 10.7041Z" fill="black"/>
<path d="M94.1068 16.0269C94.6291 16.503 94.9102 17.0704 94.9501 17.7292C94.9945 18.3831 94.7831 18.9662 94.316 19.4785C93.8533 19.986 93.2922 20.2502 92.6324 20.2713C91.9772 20.2874 91.3885 20.0575 90.8662 19.5814L90.0015 18.7932L88.5261 20.4116L87.4027 19.3876L92.1188 14.2148L94.1068 16.0269ZM91.7651 18.5064C91.9868 18.7085 92.2271 18.8012 92.4858 18.7845C92.7496 18.7723 92.9802 18.6579 93.1779 18.4411C93.3755 18.2243 93.4682 17.9841 93.456 17.7204C93.4532 17.4563 93.341 17.2232 93.1193 17.0211L92.2989 16.2733L90.9448 17.7586L91.7651 18.5064Z" fill="black"/>
<path d="M95.7315 26.0425L97.413 28.2689L96.2877 29.1186L93.6902 25.6793L99.2765 21.4611L101.808 24.8126L100.69 25.6563L99.0753 23.5177L97.974 24.3492L99.4325 26.2804L98.3392 27.1059L96.8807 25.1748L95.7315 26.0425Z" fill="black"/>
<path d="M107.167 34.2276L105.905 34.8561L105.035 33.1105L100.031 35.602L99.3538 34.2414L104.358 31.7499L103.493 30.0133L104.755 29.3849L107.167 34.2276Z" fill="black"/>
<path d="M107.927 42.7903C108.06 43.2584 108.08 43.7035 107.985 44.1255C107.892 44.554 107.695 44.9219 107.394 45.2292C107.102 45.5412 106.728 45.7619 106.273 45.8914C105.587 46.0866 104.958 46.0195 104.386 45.6901C103.82 45.3589 103.436 44.8374 103.233 44.1257L102.489 41.5095L109.222 39.5941L109.638 41.056L107.599 41.6361L107.927 42.7903ZM104.569 43.6313C104.657 43.9391 104.818 44.1636 105.052 44.3049C105.294 44.4508 105.56 44.4827 105.849 44.4006C106.041 44.3459 106.198 44.2526 106.32 44.1209C106.444 43.9956 106.524 43.8409 106.562 43.6569C106.6 43.4729 106.59 43.2783 106.531 43.0731L106.233 42.0247L104.271 42.5829L104.569 43.6313Z" fill="black"/>
<path d="M108.237 63.8269C108.049 64.1175 107.802 64.3322 107.494 64.4711C107.193 64.6173 106.856 64.6731 106.484 64.6387C105.927 64.587 105.472 64.3273 105.12 63.8595C104.768 63.3984 104.62 62.8658 104.676 62.2617L104.951 59.2944L111.921 59.9402L111.653 62.8279C111.598 63.4253 111.379 63.9072 110.997 64.2735C110.622 64.6404 110.178 64.8002 109.667 64.7528C109.369 64.7252 109.093 64.6293 108.84 64.4653C108.588 64.3013 108.387 64.0885 108.237 63.8269ZM109.564 63.267C109.677 63.2774 109.778 63.2667 109.868 63.2349C109.964 63.2103 110.049 63.1679 110.121 63.1077C110.194 63.0474 110.251 62.9691 110.294 62.8726C110.342 62.7833 110.372 62.679 110.383 62.5595L110.499 61.3049L109.015 61.1674L108.899 62.422C108.877 62.661 108.926 62.8563 109.046 63.008C109.172 63.1604 109.345 63.2467 109.564 63.267ZM106.074 62.2406C106.051 62.4862 106.106 62.6921 106.238 62.8583C106.369 63.0245 106.552 63.1184 106.784 63.1399C107.01 63.1608 107.203 63.1017 107.363 62.9626C107.523 62.8234 107.614 62.631 107.637 62.3854L107.761 61.0511L106.197 60.9063L106.074 62.2406Z" fill="black"/>
<path d="M109.345 73.9734L109.044 75.0314L102.311 73.116L102.727 71.654L106.776 72.806L103.614 68.5377L103.901 67.5278L110.634 69.4433L110.218 70.9052L106.217 69.7669L109.345 73.9734Z" fill="black"/>
<path d="M99.909 81.8066L99.6059 82.4153L97.2337 81.2341L97.8577 79.9809L98.9678 80.5336L100.813 76.8277L99.7032 76.275L100.327 75.0218L102.7 76.2029L102.45 76.7042C102.477 76.8294 102.517 76.9426 102.571 77.0439C102.622 77.1511 102.724 77.2762 102.876 77.419C103.031 77.5708 103.195 77.7122 103.369 77.843C103.548 77.9769 103.83 78.1657 104.215 78.4096C104.597 78.6594 104.979 78.9017 105.361 79.1366C105.749 79.3745 106.292 79.7045 106.99 80.1267L104.913 84.2981L99.909 81.8066ZM105.144 80.6709C104.022 80.0228 103.215 79.5128 102.722 79.141C102.236 78.7721 101.913 78.4253 101.755 78.1006L100.582 80.4549L104.324 82.3179L105.144 80.6709Z" fill="black"/>
<path d="M96.6514 86.7395L94.97 88.9659L93.8447 88.1162L96.4422 84.6769L102.029 88.8951L99.4973 92.2466L98.38 91.403L99.9952 89.2644L98.8939 88.4328L97.4354 90.3639L96.3421 89.5384L97.8006 87.6072L96.6514 86.7395Z" fill="black"/>
<path d="M88.5884 93.3287C89.3767 92.6101 90.268 92.2667 91.2623 92.2985C92.2561 92.3398 93.1034 92.7447 93.8041 93.5132C94.5048 94.2817 94.8275 95.1602 94.7724 96.1486C94.7168 97.1465 94.2949 98.0047 93.5066 98.7232C92.9893 99.1948 92.4134 99.5032 91.779 99.6485C91.1442 99.8032 90.5199 99.7814 89.9061 99.5831C89.2968 99.3898 88.7609 99.0394 88.2982 98.532C87.5931 97.7585 87.2681 96.8776 87.3232 95.8892C87.3783 94.9007 87.8001 94.0473 88.5884 93.3287ZM89.5518 94.3854C89.2463 94.6639 89.0333 94.9843 88.9127 95.3468C88.7966 95.7143 88.7841 96.0865 88.8752 96.4635C88.9614 96.845 89.146 97.1909 89.429 97.5013C89.8557 97.9693 90.3657 98.217 90.9591 98.2445C91.552 98.2813 92.08 98.0887 92.5431 97.6665C93.0014 97.2488 93.2444 96.7386 93.2723 96.1359C93.2997 95.5426 93.1001 95.0119 92.6734 94.5439C92.2467 94.0759 91.7344 93.8257 91.1365 93.7933C90.5382 93.7704 90.01 93.9678 89.5518 94.3854Z" fill="black"/>
<path d="M74.7561 104.02C75.0918 103.89 75.4149 103.894 75.7254 104.031C76.0359 104.168 76.2562 104.405 76.3862 104.74C76.4729 104.964 76.5015 105.185 76.4719 105.404C76.436 105.625 76.3472 105.821 76.2055 105.99C76.0637 106.159 75.8841 106.286 75.6665 106.37C75.3308 106.5 75.0077 106.497 74.6972 106.36C74.3867 106.223 74.1664 105.986 74.0364 105.65C73.9063 105.315 73.9098 104.992 74.0469 104.681C74.184 104.371 74.4204 104.15 74.7561 104.02Z" fill="black"/>
<path d="M55.9245 105.8C56.5978 105.8 57.2112 105.957 57.7645 106.27C58.3178 106.59 58.7512 107.027 59.0645 107.58C59.3778 108.14 59.5345 108.76 59.5345 109.44C59.5345 110.48 59.1912 111.35 58.5045 112.05C57.8112 112.75 56.9512 113.1 55.9245 113.1C55.0712 113.1 54.3345 112.844 53.7145 112.33C53.0945 111.817 52.7012 111.144 52.5345 110.31H54.0545C54.1478 110.584 54.2845 110.82 54.4645 111.02C54.6445 111.227 54.8612 111.384 55.1145 111.49C55.3612 111.604 55.6312 111.66 55.9245 111.66C56.5178 111.66 57.0145 111.447 57.4145 111.02C57.8078 110.6 58.0045 110.074 58.0045 109.44C58.0045 108.814 57.8078 108.29 57.4145 107.87C57.0145 107.45 56.5178 107.24 55.9245 107.24C55.4645 107.24 55.0678 107.37 54.7345 107.63C54.4012 107.89 54.1712 108.244 54.0445 108.69H52.5145C52.6745 107.824 53.0678 107.124 53.6945 106.59C54.3145 106.064 55.0578 105.8 55.9245 105.8Z" fill="black"/>
<path d="M43.3563 104.435L44.8701 104.718L44.7085 109.337L47.6009 105.238L47.9646 105.306L49.181 110.173L50.6991 105.807L52.2227 106.092L49.8551 112.771L48.361 112.492L47.2915 107.927L44.6355 111.795L43.1414 111.516L43.3563 104.435Z" fill="black"/>
<path d="M38.0033 102.363C38.998 102.748 39.7027 103.393 40.1174 104.297C40.5234 105.205 40.5386 106.144 40.1629 107.114C39.7872 108.083 39.1446 108.764 38.2351 109.155C37.3171 109.55 36.3607 109.555 35.3661 109.17C34.7133 108.917 34.1806 108.539 33.7678 108.036C33.3463 107.537 33.0876 106.968 32.9915 106.33C32.893 105.699 32.9678 105.063 33.2159 104.423C33.594 103.447 34.2378 102.763 35.1472 102.372C36.0567 101.981 37.0087 101.978 38.0033 102.363ZM37.4867 103.696C37.1013 103.547 36.7195 103.499 36.3412 103.553C35.9605 103.613 35.6217 103.767 35.3248 104.017C35.0217 104.264 34.7943 104.584 34.6426 104.975C34.4138 105.566 34.4193 106.133 34.6592 106.676C34.8905 107.223 35.2983 107.61 35.8827 107.836C36.4608 108.06 37.0259 108.05 37.5779 107.807C38.1213 107.567 38.5074 107.152 38.7362 106.561C38.965 105.97 38.9606 105.4 38.7231 104.851C38.477 104.305 38.0649 103.92 37.4867 103.696Z" fill="black"/>
<path d="M24.4864 103.296L25.2287 102.097L26.8867 103.124L29.8296 98.371L31.122 99.1711L28.179 103.924L29.8285 104.945L29.0862 106.144L24.4864 103.296Z" fill="black"/>
<path d="M17.8932 97.9732C17.3709 97.4971 17.0898 96.9297 17.0499 96.2709C17.0055 95.617 17.2169 95.0339 17.684 94.5215C18.1467 94.0141 18.7078 93.7499 19.3676 93.7288C20.0228 93.7127 20.6115 93.9426 21.1338 94.4187L21.9985 95.2069L23.4739 93.5885L24.5973 94.6125L19.8812 99.7853L17.8932 97.9732ZM20.2349 95.4937C20.0132 95.2916 19.7729 95.1988 19.5142 95.2155C19.2504 95.2277 19.0198 95.3422 18.8221 95.559C18.6245 95.7757 18.5318 96.016 18.544 96.2797C18.5468 96.5438 18.659 96.7769 18.8807 96.979L19.7011 97.7268L21.0552 96.2414L20.2349 95.4937Z" fill="black"/>
<path d="M16.2685 87.9575L14.587 85.7311L15.7123 84.8814L18.3098 88.3207L12.7235 92.5389L10.1923 89.1874L11.3095 88.3437L12.9247 90.4823L14.026 89.6508L12.5675 87.7196L13.6608 86.8941L15.1193 88.8252L16.2685 87.9575Z" fill="black"/>
<path d="M4.8332 79.7723L6.0954 79.1439L6.96465 80.8894L11.9687 78.3979L12.6463 79.7585L7.64222 82.25L8.50701 83.9866L7.24481 84.6151L4.8332 79.7723Z" fill="black"/>
<path d="M4.07282 71.2097C3.93962 70.7416 3.92042 70.2966 4.0152 69.8745C4.10815 69.4461 4.30497 69.0782 4.60567 68.7708C4.89813 68.4589 5.272 68.2382 5.72726 68.1086C6.41337 67.9134 7.04242 67.9805 7.61441 68.3099C8.17998 68.6411 8.56403 69.1626 8.76656 69.8744L9.51098 72.4905L2.77816 74.406L2.36216 72.944L4.40124 72.3639L4.07282 71.2097ZM7.43086 70.3687C7.34328 70.061 7.18235 69.8364 6.94808 69.6951C6.70556 69.5493 6.44003 69.5174 6.15148 69.5995C5.95911 69.6542 5.80196 69.7474 5.68002 69.8791C5.55626 70.0045 5.47551 70.1591 5.43776 70.3432C5.40002 70.5272 5.41034 70.7218 5.46873 70.927L5.76704 71.9753L7.72918 71.4171L7.43086 70.3687Z" fill="black"/>
<path d="M3.76333 50.1731C3.95095 49.8825 4.19849 49.6677 4.50595 49.5288C4.80739 49.3827 5.14398 49.3268 5.51572 49.3613C6.07333 49.4129 6.52797 49.6726 6.87964 50.1404C7.23192 50.6016 7.38008 51.1342 7.32409 51.7382L7.04911 54.7055L0.0789649 54.0597L0.346567 51.1721C0.401933 50.5746 0.620665 50.0928 1.00276 49.7265C1.37822 49.3595 1.82153 49.1997 2.33267 49.2471C2.63139 49.2748 2.90706 49.3706 3.15967 49.5346C3.41228 49.6986 3.6135 49.9114 3.76333 50.1731ZM2.436 50.733C2.32315 50.7225 2.22173 50.7332 2.13174 50.765C2.03573 50.7896 1.95146 50.832 1.87893 50.8923C1.80639 50.9525 1.74892 51.0309 1.7065 51.1274C1.65805 51.2166 1.6283 51.321 1.61722 51.4405L1.50096 52.6951L2.9846 52.8325L3.10087 51.5779C3.12302 51.3389 3.07417 51.1436 2.95432 50.9919C2.82784 50.8396 2.65506 50.7533 2.436 50.733ZM5.92618 51.7594C5.94894 51.5137 5.89438 51.3078 5.76249 51.1416C5.63059 50.9754 5.44848 50.8815 5.21614 50.86C4.99044 50.8391 4.79749 50.8982 4.6373 51.0374C4.47711 51.1765 4.38564 51.3689 4.36288 51.6145L4.23923 52.9488L5.80253 53.0936L5.92618 51.7594Z" fill="black"/>
<path d="M2.6551 40.0266L2.95615 38.9686L9.68898 40.8841L9.27297 42.3461L5.22366 41.194L8.38623 45.4624L8.09886 46.4723L1.36604 44.5568L1.78204 43.0948L5.78326 44.2332L2.6551 40.0266Z" fill="black"/>
<path d="M12.091 32.1934L12.3941 31.5847L14.7663 32.7659L14.1423 34.0191L13.0322 33.4664L11.1867 37.1723L12.2968 37.725L11.6727 38.9782L9.30046 37.7971L9.55009 37.2958C9.52306 37.1706 9.48262 37.0574 9.42879 36.9561C9.37793 36.8489 9.27635 36.7238 9.12406 36.581C8.96878 36.4292 8.80457 36.2878 8.63142 36.157C8.45232 36.0231 8.17026 35.8343 7.78524 35.5904C7.4032 35.3406 7.02118 35.0983 6.63916 34.8634C6.25118 34.6255 5.708 34.2955 5.00964 33.8733L7.08693 29.7019L12.091 32.1934ZM6.8558 33.3291C7.97791 33.9772 8.78524 34.4872 9.27779 34.859C9.76438 35.2279 10.0869 35.5747 10.2455 35.8994L11.4179 33.5451L7.67602 31.6821L6.8558 33.3291Z" fill="black"/>
<path d="M15.3486 27.2606L17.03 25.0342L18.1553 25.8838L15.5578 29.3232L9.97148 25.105L12.5027 21.7534L13.62 22.5971L12.0048 24.7357L13.1061 25.5673L14.5646 23.6361L15.6579 24.4617L14.1994 26.3928L15.3486 27.2606Z" fill="black"/>
<path d="M23.4116 20.6713C22.6233 21.3899 21.732 21.7333 20.7377 21.7015C19.7438 21.6602 18.8965 21.2553 18.1959 20.4868C17.4952 19.7183 17.1724 18.8398 17.2275 17.8514C17.2831 16.8535 17.7051 15.9953 18.4934 15.2768C19.0107 14.8052 19.5865 14.4968 20.2209 14.3515C20.8557 14.1968 21.48 14.2186 22.0938 14.4169C22.7031 14.6102 23.2391 14.9606 23.7017 15.468C24.4069 16.2415 24.7319 17.1224 24.6767 18.1108C24.6216 19.0993 24.1999 19.9527 23.4116 20.6713ZM22.4481 19.6146C22.7536 19.3361 22.9666 19.0157 23.0872 18.6532C23.2033 18.2857 23.2158 17.9135 23.1247 17.5365C23.0385 17.155 22.8539 16.8091 22.571 16.4987C22.1443 16.0307 21.6342 15.783 21.0409 15.7555C20.4479 15.7187 19.9199 15.9113 19.4568 16.3335C18.9986 16.7512 18.7556 17.2614 18.7277 17.8641C18.7003 18.4574 18.8999 18.9881 19.3266 19.4561C19.7533 19.9241 20.2656 20.1743 20.8634 20.2067C21.4617 20.2296 21.9899 20.0322 22.4481 19.6146Z" fill="black"/>
<path d="M37.2439 9.97955C36.9082 10.1096 36.5851 10.1061 36.2746 9.96896C35.9641 9.83186 35.7438 9.59546 35.6138 9.25978C35.5271 9.03599 35.4985 8.81469 35.5281 8.59588C35.564 8.37467 35.6528 8.17941 35.7945 8.01012C35.9363 7.84082 36.1159 7.71403 36.3335 7.62975C36.6692 7.49971 36.9923 7.50324 37.3028 7.64034C37.6133 7.77744 37.8336 8.01383 37.9636 8.34952C38.0937 8.68521 38.0902 9.00829 37.9531 9.31877C37.816 9.62925 37.5796 9.84951 37.2439 9.97955Z" fill="black"/>
<path d="M84 56.9756C84 72.4396 71.464 84.9756 56 84.9756C40.536 84.9756 28 72.4396 28 56.9756C28 41.5116 40.536 28.9756 56 28.9756C71.464 28.9756 84 41.5116 84 56.9756Z" fill="#FFA658"/>
<path d="M60 56.9756L54 60.9756V52.9756L60 56.9756ZM56 47.9756C54.22 47.9756 52.4799 48.5034 50.9999 49.4924C49.5198 50.4813 48.3663 51.8869 47.6851 53.5314C47.0039 55.176 46.8257 56.9856 47.1729 58.7314C47.5202 60.4772 48.3774 62.0809 49.636 63.3395C50.8947 64.5982 52.4984 65.4554 54.2442 65.8027C55.99 66.1499 57.7996 65.9717 59.4442 65.2905C61.0887 64.6093 62.4943 63.4558 63.4832 61.9757C64.4722 60.4957 65 58.7556 65 56.9756C65 54.5886 64.0518 52.2995 62.364 50.6116C60.6761 48.9238 58.387 47.9756 56 47.9756V47.9756Z" stroke="white" stroke-width="2" stroke-linecap="round" stroke-linejoin="round"/>
</svg>
