<svg width="1000" height="763" viewBox="0 0 1000 763" fill="none" xmlns="http://www.w3.org/2000/svg">
<path d="M678.815 457.22V457.089C661.009 451.175 633.689 453.183 629.63 455.605C625.315 458.494 621.608 462.2 618.719 466.516C609.128 480.123 602.252 495.452 598.469 511.664L404.803 529.667C397.668 514.261 386.91 500.448 376.108 492.112C373.022 489.528 369.465 487.564 365.634 486.329C363.947 486.128 362.24 486.187 360.571 486.504C353.545 466.145 343.594 446.505 331.156 445.261C304.97 442.643 259.276 451.415 246.816 476.815C234.356 502.216 230.45 565.629 230.45 565.629L221.721 574.357C215.355 561.955 206.5 550.998 195.71 542.171C192.634 539.572 189.074 537.606 185.236 536.388C183.053 535.777 174.325 537.13 165.182 540.119C164.811 539.77 164.462 539.421 164.069 539.094C155.34 531.784 137.447 527.79 127.452 546.426C117.458 565.061 129.46 600.347 135.439 608.333C138.343 612.413 141.984 615.914 146.175 618.655C153.224 636.112 165.814 658.37 185.192 659.396C191.829 659.753 198.466 658.679 204.652 656.247C210.837 653.814 216.428 650.081 221.045 645.299C233.614 632.206 234.967 613.811 230.231 595.808L232.261 592.84C232.261 592.84 236.778 599.277 254.082 596.681C259.099 596.164 263.855 594.192 267.764 591.007C275.882 611.716 288.997 632.468 309.836 635.567C318.78 636.935 327.914 636.361 336.616 633.883C345.318 631.405 353.384 627.082 360.266 621.208C364.265 617.754 367.755 613.75 370.631 609.315C382.299 608.671 393.292 603.635 401.399 595.219C408.653 587.482 412.802 577.344 413.052 566.742L438.823 563.73C455.001 570.946 472.651 574.251 490.343 573.375C507.285 572.287 523.323 565.345 535.71 553.736L594.432 548.717C595.414 571.477 603.597 592.36 622.8 603.86C630.152 608.248 638.368 610.99 646.881 611.898C655.395 612.806 664.004 611.858 672.116 609.119C699.197 600.041 705.612 559.802 707.358 535.34C710.064 496.062 697.538 462.784 678.815 457.22Z" fill="#263238" stroke="#263238" stroke-width="0.75" stroke-linecap="round" stroke-linejoin="round"/>
<path d="M320.289 622.932C318.037 625.811 315.165 628.145 311.887 629.762" stroke="white" stroke-width="0.5" stroke-linecap="round" stroke-linejoin="round"/>
<path d="M330.872 571.215C330.872 571.215 333.469 599.583 323.802 617.586" stroke="white" stroke-width="0.5" stroke-linecap="round" stroke-linejoin="round"/>
<path d="M338.531 602.551C336.066 613.461 331.156 624.045 321.642 628.736" stroke="white" stroke-width="0.5" stroke-linecap="round" stroke-linejoin="round"/>
<path d="M350.381 569.055C350.381 569.055 354.745 616.211 331.418 627.602" stroke="white" stroke-width="0.5" stroke-linecap="round" stroke-linejoin="round"/>
<path d="M360.157 567.964C360.157 567.964 364.521 615.142 341.172 626.511" stroke="white" stroke-width="0.5" stroke-linecap="round" stroke-linejoin="round"/>
<path d="M654.55 601.023C652.042 604.19 648.926 606.824 645.385 608.77" stroke="white" stroke-width="0.5" stroke-linecap="round" stroke-linejoin="round"/>
<path d="M672.094 542.127C672.094 542.127 670.698 574.401 658.718 594.935" stroke="white" stroke-width="0.5" stroke-linecap="round" stroke-linejoin="round"/>
<path d="M675.215 577.871C671.287 590.287 665.003 602.332 655.074 607.57" stroke="white" stroke-width="0.5" stroke-linecap="round" stroke-linejoin="round"/>
<path d="M691.472 539.727C691.472 539.727 689.137 593.495 664.762 606.369" stroke="white" stroke-width="0.5" stroke-linecap="round" stroke-linejoin="round"/>
<path d="M701.204 538.548C701.204 538.548 698.869 592.295 674.495 605.191" stroke="white" stroke-width="0.5" stroke-linecap="round" stroke-linejoin="round"/>
<path d="M191.346 652.107C189.489 654.953 187.04 657.364 184.167 659.177" stroke="white" stroke-width="0.5" stroke-linecap="round" stroke-linejoin="round"/>
<path d="M194.793 606.217C194.793 606.217 200.947 630.22 194.008 647.001" stroke="white" stroke-width="0.5" stroke-linecap="round" stroke-linejoin="round"/>
<path d="M206.206 631.988C205.224 641.698 201.842 651.474 193.397 656.842" stroke="white" stroke-width="0.5" stroke-linecap="round" stroke-linejoin="round"/>
<path d="M213.211 601.547C213.211 601.547 223.467 641.371 202.606 654.486" stroke="white" stroke-width="0.5" stroke-linecap="round" stroke-linejoin="round"/>
<path d="M222.419 599.19C222.419 599.19 232.697 639.014 211.814 652.151" stroke="white" stroke-width="0.5" stroke-linecap="round" stroke-linejoin="round"/>
<path d="M297.638 555.045C302.832 584.744 299.58 610.144 290.415 611.781C281.25 613.418 269.576 590.592 264.382 560.893C259.189 531.194 262.44 505.794 271.627 504.158C280.814 502.521 292.445 525.324 297.638 555.045Z" fill="#09BBB5" stroke="#263238" stroke-linecap="round" stroke-linejoin="round"/>
<path d="M293.012 555.678C294.452 567.069 293.121 576.605 290.001 576.998C286.88 577.391 283.214 568.487 281.774 557.097C280.334 545.706 281.774 536.148 284.785 535.755C287.797 535.362 291.572 544.287 293.012 555.678Z" fill="#09BBB5" stroke="#263238" stroke-linecap="round" stroke-linejoin="round"/>
<path d="M271.125 528.445C271.434 524.621 272.04 520.828 272.936 517.098" stroke="#263238" stroke-width="0.75" stroke-linecap="round" stroke-linejoin="round"/>
<path d="M285.593 601.067C279.554 588.976 275.235 576.1 272.762 562.814C271.118 553.415 270.453 543.872 270.776 534.337" stroke="#263238" stroke-width="0.75" stroke-linecap="round" stroke-linejoin="round"/>
<path d="M169.215 643.309C175.811 641.481 176.361 622.684 170.442 601.326C164.523 579.968 154.377 564.136 147.78 565.965C141.183 567.793 140.634 586.589 146.553 607.947C152.472 629.305 162.618 645.137 169.215 643.309Z" fill="#09BBB5" stroke="#263238" stroke-linecap="round" stroke-linejoin="round"/>
<path d="M168.28 602.18C170.353 610.297 170.244 617.324 168.019 617.891C165.793 618.458 162.345 612.327 160.272 604.231C158.199 596.135 158.308 589.065 160.534 588.519C162.76 587.974 166.207 594.062 168.28 602.18Z" stroke="#263238" stroke-width="0.75" stroke-linecap="round" stroke-linejoin="round"/>
<path d="M149.994 584.439C149.872 581.643 149.967 578.841 150.278 576.059" stroke="#263238" stroke-width="0.75" stroke-linecap="round" stroke-linejoin="round"/>
<path d="M166.993 635.697C161.536 627.489 157.254 618.557 154.271 609.162C152.232 602.511 150.886 595.666 150.256 588.738" stroke="#263238" stroke-width="0.75" stroke-linecap="round" stroke-linejoin="round"/>
<path d="M636.984 236.823C613.984 189.361 604.055 185.237 588.758 184.451C573.462 183.666 537.347 179.17 497.108 185.608C497.108 185.608 384.859 183.644 298.009 236.255C207.341 291.18 163.218 339.427 157.042 364.435C150.867 389.442 129.787 454.601 119.793 491.959C109.799 529.318 102.991 562.225 115.734 592.469C123.437 610.756 131.642 616.255 142.182 616.167C140.569 613.274 139.148 610.278 137.927 607.199C127.452 581.253 128.718 544.135 140.676 541.734C152.634 539.334 159.77 564.189 166.993 591.291C168.427 597.265 170.369 603.105 172.797 608.748C190.669 602.005 219.299 586.927 257.356 571.259C253.743 547.455 253.662 523.249 257.116 499.422C262.746 462.173 286.553 453.946 296.918 476.619C305.494 495.298 308.68 537.108 309.531 551.205C324.806 545.946 337.593 542.476 345.471 541.996C345.471 541.996 475.701 512.581 571.694 510.224C667.687 507.867 715.716 505.576 715.716 505.576C715.716 505.576 659.984 284.197 636.984 236.823Z" fill="white"/>
<path d="M330.087 465.817C330.087 465.817 316.885 483.885 300.824 487.748C306.498 508.565 308.832 539.377 309.553 551.03C323.191 546.338 334.778 543.043 342.721 542.083C343.878 535.275 344.576 530.933 344.576 530.933L330.087 465.817Z" fill="#09BBB5"/>
<path opacity="0.2" d="M167.56 593.255C173.627 593.866 177.664 596.484 189.993 593.407C211.814 587.974 196.125 545.858 232.326 528.663C239.354 525.119 247.001 522.97 254.846 522.335C255.172 514.628 255.9 506.944 257.028 499.313C257.989 491.818 260.202 484.538 263.575 477.775C253.69 474.742 251.9 471.84 235.054 479.848C198.83 497.044 204.264 541.407 182.552 546.84C165.225 551.205 164.265 544.244 151.107 547.473C157.261 556.202 162.018 573.201 166.818 591.116C167.189 591.923 167.364 592.513 167.56 593.255Z" fill="#09BBB5"/>
<g style="mix-blend-mode:multiply">
<g style="mix-blend-mode:multiply" opacity="0.2">
<path d="M131.926 555.962C121.779 562.945 115.734 573.419 112.287 582.257C113.222 585.743 114.373 589.169 115.734 592.513C123.437 610.799 131.642 616.298 142.182 616.211C140.569 613.317 139.148 610.321 137.927 607.242C131.271 590.723 129.482 569.709 131.926 555.962Z" fill="#09BBB5"/>
</g>
</g>
<g style="mix-blend-mode:multiply" opacity="0.2">
<path d="M588.758 184.451L584.809 184.211C425.665 224.93 360.92 416.741 338.641 509.177C339.841 518.363 341.15 527.376 342.568 536.148C345.274 535.624 343.398 541.996 345.471 541.887C345.471 541.887 475.701 512.472 571.694 510.115C667.687 507.758 715.716 505.467 715.716 505.467C715.716 505.467 659.984 284.197 636.984 236.823C613.984 189.448 604.055 185.15 588.758 184.451Z" fill="#09BBB5"/>
</g>
<path d="M636.984 236.823C613.984 189.361 604.055 185.237 588.758 184.451C573.462 183.666 537.347 179.17 497.108 185.608C497.108 185.608 384.859 183.644 298.009 236.255C207.341 291.18 163.218 339.427 157.042 364.435C150.867 389.442 129.787 454.601 119.793 491.959C109.799 529.318 102.991 562.225 115.734 592.469C123.437 610.756 131.642 616.255 142.182 616.167C140.569 613.274 139.148 610.278 137.927 607.199C127.452 581.253 128.718 544.135 140.676 541.734C152.634 539.334 159.77 564.189 166.993 591.291C168.427 597.265 170.369 603.105 172.797 608.748C190.669 602.005 219.299 586.927 257.356 571.259C253.743 547.455 253.662 523.249 257.116 499.422C262.746 462.173 286.553 453.946 296.918 476.619C305.494 495.298 308.68 537.108 309.531 551.205C324.806 545.946 337.593 542.476 345.471 541.996C345.471 541.996 475.701 512.581 571.694 510.224C667.687 507.867 715.716 505.576 715.716 505.576C715.716 505.576 659.984 284.197 636.984 236.823Z" stroke="#263238" stroke-linecap="round" stroke-linejoin="round"/>
<path opacity="0.2" d="M160.621 476.335C162.119 477.581 163.942 478.373 165.876 478.617C167.809 478.86 169.772 478.546 171.532 477.71C178.406 474.961 179.104 464.617 179.104 464.617L189.404 463.941L191.477 431.623L168.782 440.548C168.782 440.548 162.694 472.211 160.621 476.335Z" fill="#09BBB5"/>
<path d="M130.856 570.844C124.34 574.307 118.179 578.4 112.461 583.064C113.366 586.261 114.459 589.401 115.734 592.469C123.437 610.755 131.642 616.254 142.182 616.167C140.569 613.274 139.148 610.278 137.927 607.199C133.453 595.59 131.06 583.283 130.856 570.844Z" fill="#263238" stroke="#263238" stroke-width="0.75" stroke-linecap="round" stroke-linejoin="round"/>
<path d="M165.618 552.82C165.028 552.817 164.449 552.655 163.942 552.352C163.435 552.049 163.019 551.615 162.738 551.096C162.341 550.342 162.255 549.462 162.5 548.646C162.745 547.83 163.301 547.142 164.047 546.731C164.571 546.448 207.035 520.131 242.212 501.43C242.591 501.228 243.007 501.103 243.435 501.061C243.863 501.02 244.295 501.063 244.707 501.189C245.118 501.315 245.501 501.52 245.833 501.794C246.165 502.067 246.439 502.403 246.641 502.783C246.843 503.163 246.969 503.578 247.01 504.006C247.051 504.435 247.008 504.867 246.882 505.278C246.757 505.689 246.551 506.072 246.278 506.404C246.004 506.736 245.668 507.011 245.289 507.213C210.134 525.892 167.691 552.187 167.168 552.47C166.69 552.718 166.156 552.839 165.618 552.82Z" fill="#263238" stroke="#263238" stroke-miterlimit="10"/>
<path d="M221.132 334.081L219.626 371.548C219.299 376.655 222.267 379.12 226.173 376.917L286.509 337.638C288.727 336.091 290.516 334.006 291.707 331.578C292.898 329.151 293.452 326.46 293.318 323.759L292.947 281.971C292.51 278.174 289.935 276.625 286.771 278.262C275.424 284.132 253.515 303.989 227.329 322.472C225.555 323.878 224.089 325.635 223.023 327.632C221.957 329.629 221.313 331.824 221.132 334.081Z" fill="#09BBB5" stroke="#263238" stroke-linecap="round" stroke-linejoin="round"/>
<path d="M261.895 323.52L291.375 330.721" stroke="#263238" stroke-linecap="round" stroke-linejoin="round"/>
<path d="M221.568 377.091L239.767 336.896" stroke="#263238" stroke-linecap="round" stroke-linejoin="round"/>
<path d="M221.481 332.837L248.234 336.176C251.005 336.59 254.453 334.299 256.963 330.328L291.877 280.335" stroke="#263238" stroke-linecap="round" stroke-linejoin="round"/>
<path d="M370.849 264.471L377.046 358.303C377.207 361.011 377.918 363.659 379.136 366.083C380.353 368.508 382.053 370.659 384.129 372.405C386.206 374.151 388.617 375.456 391.215 376.239C393.813 377.022 396.543 377.267 399.239 376.96L607.678 349.902C610.549 349.571 613.315 348.62 615.783 347.116C618.252 345.611 620.364 343.589 621.974 341.188C623.584 338.787 624.654 336.065 625.109 333.211C625.565 330.356 625.395 327.437 624.611 324.654L598.294 231.607C597.049 227.186 594.314 223.33 590.552 220.694C586.79 218.057 582.233 216.802 577.651 217.14C543.872 219.627 462.848 226.894 386.364 243.937C381.772 244.98 377.696 247.613 374.857 251.37C372.018 255.128 370.598 259.768 370.849 264.471Z" fill="#09BBB5" stroke="#263238" stroke-linecap="round" stroke-linejoin="round"/>
<path d="M525.781 293.558L620.945 338.642" stroke="#263238" stroke-linecap="round" stroke-linejoin="round"/>
<path d="M384.946 372.836L465.314 300.912" stroke="#263238" stroke-linecap="round" stroke-linejoin="round"/>
<path d="M371.547 262.005L486.874 309.423C491.204 311.191 495.955 311.665 500.549 310.786C505.143 309.906 509.383 307.712 512.754 304.469L594.956 226.85" stroke="#263238" stroke-linecap="round" stroke-linejoin="round"/>
<path d="M601.866 363.183C621.456 362.701 636.953 346.702 636.479 327.45C636.005 308.197 619.74 292.98 600.15 293.463C580.56 293.945 565.063 309.943 565.537 329.196C566.011 348.449 582.276 363.665 601.866 363.183Z" fill="#263238" stroke="#263238" stroke-width="0.75" stroke-linecap="round" stroke-linejoin="round"/>
<path d="M597.181 344.97H597.072C596.384 344.972 595.704 344.811 595.09 344.5C594.476 344.189 593.943 343.737 593.537 343.181L579.593 323.934C578.913 322.996 578.633 321.827 578.816 320.683C578.998 319.54 579.627 318.515 580.564 317.835C581.502 317.155 582.671 316.875 583.815 317.057C584.959 317.239 585.983 317.868 586.663 318.806L597.072 333.165L621.949 298.796C622.629 297.858 623.653 297.229 624.797 297.047C625.941 296.865 627.11 297.145 628.048 297.825C628.985 298.505 629.614 299.529 629.796 300.673C629.979 301.817 629.699 302.986 629.019 303.924L600.651 343.202C600.249 343.746 599.726 344.188 599.124 344.495C598.522 344.801 597.857 344.964 597.181 344.97Z" fill="white" stroke="#263238" stroke-linecap="round" stroke-linejoin="round"/>
<path d="M465.38 439.021C465.38 439.021 539.573 424.793 590.417 425.797L593.472 438.017C593.472 438.017 486.721 443.079 466.383 453.292L465.38 439.021Z" fill="#263238" stroke="#263238" stroke-width="0.75" stroke-linecap="round" stroke-linejoin="round"/>
<path d="M466.384 453.248L468.566 465.468C468.791 466.83 469.541 468.049 470.655 468.865C471.768 469.681 473.157 470.028 474.523 469.832C493.137 467.17 558.47 458.202 592.359 459.031C593.194 459.056 594.023 458.885 594.778 458.529C595.534 458.174 596.195 457.645 596.708 456.985C597.22 456.326 597.57 455.555 597.728 454.735C597.886 453.915 597.849 453.069 597.618 452.266L593.559 438.06" stroke="#263238" stroke-linecap="round" stroke-linejoin="round"/>
<path d="M195.645 431.667L195.23 381.259L197.739 329.433C197.758 328.937 197.627 328.447 197.363 328.027C197.099 327.607 196.714 327.277 196.259 327.079C195.805 326.881 195.3 326.825 194.813 326.918C194.326 327.011 193.878 327.248 193.528 327.6C184.145 337.201 168.084 351.735 163.327 363.649C157.152 379.077 149.841 455.016 149.841 455.016L195.645 431.667Z" fill="#263238" stroke="#263238" stroke-width="0.75" stroke-linecap="round" stroke-linejoin="round"/>
<path d="M137.534 421.542H130.224C126.5 421.542 123.481 424.56 123.481 428.284V465.948C123.481 469.672 126.5 472.691 130.224 472.691H137.534C141.258 472.691 144.277 469.672 144.277 465.948V428.284C144.277 424.56 141.258 421.542 137.534 421.542Z" fill="#263238" stroke="#263238" stroke-width="0.75" stroke-linecap="round" stroke-linejoin="round"/>
<path d="M142.138 386.365C145.599 387.029 148.978 388.061 152.22 389.442C154.907 390.765 157.35 392.536 159.443 394.679L170.353 380.255C170.353 380.255 154.358 373.556 151.325 369.475L148.314 365.373L142.138 386.365Z" fill="white"/>
<g style="mix-blend-mode:multiply" opacity="0.5">
<path d="M151.303 369.475L148.488 365.569L148.161 365.788L142.138 386.3C142.138 386.3 143.295 386.518 144.931 386.911L160.534 375.607C157.124 374.116 154 372.04 151.303 369.475Z" fill="#09BBB5"/>
</g>
<path d="M142.138 386.365C145.599 387.029 148.978 388.061 152.22 389.442C154.907 390.765 157.35 392.536 159.443 394.679L170.353 380.255C170.353 380.255 154.358 373.556 151.325 369.475L148.314 365.373L142.138 386.365Z" stroke="#263238" stroke-width="0.75" stroke-linecap="round" stroke-linejoin="round"/>
<path d="M165.182 374.123L151.849 391.122L153.66 396.905L173.976 375.804L165.182 374.123Z" fill="#09BBB5" stroke="#263238" stroke-linecap="round" stroke-linejoin="round"/>
<path d="M143.841 326.094C134.828 319.112 111.348 323.563 106.744 340.104C103.907 350.294 105.478 365.569 105.478 365.569L132.232 359.896L134.414 363.191C138.778 369.737 148.227 365.373 150.671 363.191C152.002 362.034 151.914 358.63 151.565 355.815L152.635 355.575C152.635 355.575 152.831 333.099 143.841 326.094Z" fill="#263238" stroke="#263238" stroke-width="0.75" stroke-linecap="round" stroke-linejoin="round"/>
<path d="M133.846 357.888C122.104 356.58 110.218 357.709 98.9316 361.205C81.4744 367.053 78.7904 372.116 91.2941 371.81C103.798 371.505 133.846 357.888 133.846 357.888Z" fill="#263238" stroke="#263238" stroke-width="0.75" stroke-linecap="round" stroke-linejoin="round"/>
<path d="M112.286 351.538C114.323 351.538 115.974 349.281 115.974 346.498C115.974 343.714 114.323 341.457 112.286 341.457C110.25 341.457 108.599 343.714 108.599 346.498C108.599 349.281 110.25 351.538 112.286 351.538Z" fill="#09BBB5"/>
<path d="M195.23 381.259C195.23 381.259 171.335 375.193 163.982 380.779C156.628 386.365 154.751 395.596 157.108 406.79C159.465 417.985 165.204 447.422 165.204 447.422L195.645 431.667L195.23 381.259Z" fill="#263238" stroke="#263238" stroke-width="0.75" stroke-linecap="round" stroke-linejoin="round"/>
<path d="M157.304 442.73C157.304 442.73 156.017 454.034 154.511 455.627C153.006 457.22 113.29 423.855 110.868 420.712C108.446 417.57 110.105 406.354 110.868 402.841C111.632 399.327 110.345 397.407 106.504 399.829C102.663 402.251 103.689 412.333 103.689 412.333C103.689 412.333 91.9709 409.518 89.636 409.191C87.3011 408.863 85.2717 411.766 85.6208 414.079C85.97 416.392 89.0468 416.588 89.0468 416.588C88.2596 419.938 88.4798 423.445 89.6796 426.67C91.7309 430.903 94.0439 433.565 98.4082 434.613C102.911 435.315 107.47 435.593 112.025 435.442C112.025 435.442 132.319 454.776 138.211 461.999C144.102 469.221 156.519 479.041 162.694 477.274C168.87 475.506 174.762 444.672 174.762 444.672L157.304 442.73Z" fill="white"/>
<g style="mix-blend-mode:multiply" opacity="0.5">
<path d="M154.511 455.627L166.12 459.489C166.488 461.924 165.974 464.411 164.669 466.5C163.364 468.588 161.356 470.142 159.006 470.88C153.878 472.582 144.669 466.756 138.123 461.846L138.319 462.086C144.32 469.331 156.628 479.128 162.803 477.361C168.979 475.593 174.87 444.76 174.87 444.76L157.304 442.577C157.304 442.577 156.017 454.034 154.511 455.627Z" fill="#09BBB5"/>
</g>
<path d="M157.304 442.73C157.304 442.73 156.017 454.034 154.511 455.627C153.006 457.22 113.29 423.855 110.868 420.712C108.446 417.57 110.105 406.354 110.868 402.841C111.632 399.327 110.345 397.407 106.504 399.829C102.663 402.251 103.689 412.333 103.689 412.333C103.689 412.333 91.9709 409.518 89.636 409.191C87.3011 408.863 85.2717 411.766 85.6208 414.079C85.97 416.392 89.0468 416.588 89.0468 416.588C88.2596 419.938 88.4798 423.445 89.6796 426.67C91.7309 430.903 94.0439 433.565 98.4082 434.613C102.911 435.315 107.47 435.593 112.025 435.442C112.025 435.442 132.319 454.776 138.211 461.999C144.102 469.221 156.519 479.041 162.694 477.274C168.87 475.506 174.762 444.672 174.762 444.672L157.304 442.73Z" stroke="#263238" stroke-width="0.75" stroke-linecap="round" stroke-linejoin="round"/>
<path d="M117.611 426.844L112.024 435.529L114.883 437.471L120.6 429.288L117.611 426.844Z" fill="#263238" stroke="#263238" stroke-miterlimit="10"/>
<path d="M115.691 435.027C116.896 435.027 117.873 434.05 117.873 432.845C117.873 431.64 116.896 430.663 115.691 430.663C114.486 430.663 113.509 431.64 113.509 432.845C113.509 434.05 114.486 435.027 115.691 435.027Z" fill="white" stroke="#263238" stroke-width="0.75" stroke-linecap="round" stroke-linejoin="round"/>
<path d="M110.344 368.363C110.344 368.363 111.675 371.658 113.901 377.44C116.127 383.223 128.085 395.421 133.933 396.119C139.781 396.818 146.786 375.564 147.899 371.178C148.27 369.737 148.641 367.424 148.641 367.424C148.641 367.424 155.995 363.955 154.293 359.765C152.591 355.575 149.143 353.655 147.506 354.942C145.87 356.23 145.586 361.663 143.142 361.707C140.698 361.751 139.367 360.987 137.206 358.106C135.046 355.226 112.657 361.205 110.344 368.363Z" fill="white"/>
<path opacity="0.5" d="M137.163 358.107C134.981 355.248 112.657 361.227 110.344 368.363L111.61 371.592C120.143 366.446 129.416 362.641 139.105 360.311C138.381 359.647 137.73 358.908 137.163 358.107Z" fill="#09BBB5"/>
<g style="mix-blend-mode:multiply">
<g style="mix-blend-mode:multiply" opacity="0.5">
<path d="M154.009 359.176C152.22 355.422 149.056 353.72 147.463 354.942C146.464 356.245 145.724 357.726 145.281 359.307C148.179 358.982 151.102 358.938 154.009 359.176Z" fill="#09BBB5"/>
</g>
</g>
<path d="M110.344 368.363C110.344 368.363 111.675 371.658 113.901 377.44C116.127 383.223 128.085 395.421 133.933 396.119C139.781 396.818 146.786 375.564 147.899 371.178C148.27 369.737 148.641 367.424 148.641 367.424C148.641 367.424 155.995 363.955 154.293 359.765C152.591 355.575 149.143 353.655 147.506 354.942C145.87 356.23 145.586 361.663 143.142 361.707C140.698 361.751 139.367 360.987 137.206 358.106C135.046 355.226 112.657 361.205 110.344 368.363Z" stroke="#263238" stroke-width="0.75" stroke-linecap="round" stroke-linejoin="round"/>
<path d="M118.266 369.934C118.658 371.265 118.528 372.487 118.004 372.64C117.48 372.792 116.716 371.832 116.324 370.457C115.931 369.083 116.062 367.904 116.585 367.752C117.109 367.599 117.873 368.646 118.266 369.934Z" fill="#263238" stroke="#263238" stroke-miterlimit="10"/>
<path d="M114.207 366.224C117.262 365.351 118.571 367.643 118.942 369.759L119.509 372.269L121.408 381.979L124.288 380.757" stroke="#263238" stroke-width="0.5" stroke-linecap="round" stroke-linejoin="round"/>
<path d="M126.645 366.966C127.309 366.238 128.135 365.677 129.056 365.328C129.978 364.979 130.968 364.852 131.948 364.958" stroke="#263238" stroke-width="0.5" stroke-linecap="round" stroke-linejoin="round"/>
<path d="M129.176 360.922C127.935 361.181 126.796 361.796 125.897 362.69C124.998 363.585 124.379 364.722 124.114 365.962" stroke="#263238" stroke-width="0.5" stroke-linecap="round" stroke-linejoin="round"/>
<path d="M126.885 383.899C126.885 383.899 133.213 382.634 133.715 378.095" stroke="#263238" stroke-width="0.5" stroke-linecap="round" stroke-linejoin="round"/>
<path d="M180.61 459.096L148.663 450.193C148.663 450.193 151.478 395.639 156.41 386.409C164.091 372.072 181.701 378.531 185.018 396.556C188.116 413.577 180.61 459.096 180.61 459.096Z" fill="#09BBB5" stroke="#263238" stroke-linecap="round" stroke-linejoin="round"/>
<path d="M149.427 444.127C149.427 444.127 166.884 448.142 177.511 451.633" stroke="#263238" stroke-width="0.5" stroke-linecap="round" stroke-linejoin="round"/>
<path d="M177.074 376.873C177.074 376.873 187.461 377.68 194.248 383.267" stroke="#09BBB5" stroke-width="0.5" stroke-linecap="round" stroke-linejoin="round"/>
<path d="M360.113 516.421C360.113 516.421 313.589 532.831 309.334 537.304C305.079 541.778 305.516 559.235 315.553 567.724C325.591 576.212 397.144 556.966 448.293 551.357C499.443 545.749 611.736 537.501 657.561 535.275C703.386 533.049 724.226 539.094 728.241 524.801C732.256 510.508 731.754 495.233 723.026 492.134C714.297 489.035 555.262 463.57 360.113 516.421Z" fill="#263238" stroke="#263238" stroke-width="0.75" stroke-linecap="round" stroke-linejoin="round"/>
<path d="M306.018 546.84C306.018 546.84 308.2 565.76 319.831 568.662C331.461 571.564 469.679 545.378 551.138 542.476C632.598 539.574 703.889 537.392 703.889 537.392" stroke="white" stroke-width="0.5" stroke-linecap="round" stroke-linejoin="round"/>
<path d="M373.533 556.442C427.563 543.349 538.7 524.844 725.71 530.103" stroke="white" stroke-width="0.5" stroke-linecap="round" stroke-linejoin="round"/>
<path d="M329.236 567.963C329.236 567.963 341.652 564.952 360.528 559.802" stroke="white" stroke-width="0.5" stroke-linecap="round" stroke-linejoin="round"/>
<path d="M340.626 570.124C341.214 578.236 340.994 586.386 339.972 594.455" stroke="white" stroke-width="0.5" stroke-linecap="round" stroke-linejoin="round"/>
<path d="M338.641 221.177C338.641 221.177 328.232 233.375 327.425 244.307" stroke="#263238" stroke-width="0.75" stroke-linecap="round" stroke-linejoin="round"/>
<path d="M326.333 253.123C326.333 253.123 318.499 377.746 339.23 510.377" stroke="#263238" stroke-width="0.75" stroke-linecap="round" stroke-linejoin="round"/>
<path d="M328.799 397.123C328.799 397.123 311.888 403.015 311.669 410.653C311.102 431.187 313.262 475.004 317.736 479.259C322.209 483.514 336.109 472.255 336.109 472.255C336.109 472.255 355.749 473.957 357.931 469.549C360.113 465.141 351.93 403.102 350.708 397.691C349.486 392.279 328.799 397.123 328.799 397.123Z" fill="#09BBB5" stroke="#263238" stroke-linecap="round" stroke-linejoin="round"/>
<path d="M682.045 426.669C686.447 428.82 691.23 430.081 696.12 430.379C690.708 410.042 684.576 387.391 678.248 364.784C672.531 364.391 665.155 364.391 665.308 366.966C665.417 371.374 676.524 423.484 682.045 426.669Z" fill="#09BBB5" stroke="#263238" stroke-linecap="round" stroke-linejoin="round"/>
<path d="M326.377 403.539C326.377 403.539 327.119 442.817 330.021 458.092" stroke="#263238" stroke-width="0.75" stroke-linecap="round" stroke-linejoin="round"/>
<path d="M530.364 412.617C530.364 412.617 627.731 396.927 741.181 416.981" stroke="#263238" stroke-linecap="round" stroke-linejoin="round"/>
<path d="M826.787 474.131C833.486 476.139 840.076 478.256 846.426 480.525" stroke="#263238" stroke-linecap="round" stroke-linejoin="round"/>
<path d="M651.975 444.498C651.975 444.498 729.18 449.189 803.111 467.672" stroke="#263238" stroke-linecap="round" stroke-linejoin="round"/>
<path d="M417.002 624.285C480.571 614.57 545.155 613.418 609.031 620.859" stroke="#263238" stroke-linecap="round" stroke-linejoin="round"/>
<path d="M409.015 614.007C409.015 614.007 454.709 608.29 469.57 607.155" stroke="#263238" stroke-linecap="round" stroke-linejoin="round"/>
<path d="M715.039 190.19C721.586 191.129 728.132 192.372 734.067 193.791" stroke="#263238" stroke-linecap="round" stroke-linejoin="round"/>
<path d="M620.967 188.03C647.854 186.131 674.847 186.313 701.706 188.575" stroke="#263238" stroke-linecap="round" stroke-linejoin="round"/>
<path d="M268.899 452.375C268.899 452.375 334.102 421.498 428.436 412.922" stroke="#263238" stroke-linecap="round" stroke-linejoin="round"/>
<path d="M378.705 395.749C378.705 395.749 418.18 385.471 478.233 382.023" stroke="#263238" stroke-linecap="round" stroke-linejoin="round"/>
<path d="M267.83 613.767C275.754 627.96 288.542 638.81 303.836 644.317" stroke="#263238" stroke-linecap="round" stroke-linejoin="round"/>
<path d="M265.648 623.586C265.648 623.586 275.468 638.861 288.56 645.408" stroke="#263238" stroke-linecap="round" stroke-linejoin="round"/>
<path d="M587.515 569.033C587.515 569.033 594.061 599.583 620.247 612.676" stroke="#263238" stroke-linecap="round" stroke-linejoin="round"/>
<path d="M590.788 596.31C595.977 603.91 603.146 609.947 611.518 613.767" stroke="#263238" stroke-linecap="round" stroke-linejoin="round"/>
<path d="M159.072 655.14C159.072 655.14 165.618 666.051 188.531 666.051" stroke="#263238" stroke-linecap="round" stroke-linejoin="round"/>
<path d="M154.707 661.687C163.055 668.629 173.344 672.821 184.166 673.689" stroke="#263238" stroke-linecap="round" stroke-linejoin="round"/>
<path d="M449.69 634.759C391.735 637.912 334.207 646.518 277.867 660.465L279.22 662.494C279.22 662.494 327.228 652.304 415.954 674.125C504.68 695.947 510.528 713.404 607.983 713.404C705.437 713.404 800.012 690.142 800.012 690.142L788.184 683.596C700.68 646.565 580.749 627.427 449.69 634.759Z" fill="#09BBB5"/>
<path opacity="0.5" d="M449.69 634.759C391.735 637.912 334.207 646.518 277.867 660.465L279.22 662.494C279.22 662.494 327.228 652.304 415.954 674.125C504.68 695.947 510.528 713.404 607.983 713.404C705.437 713.404 800.012 690.142 800.012 690.142L788.184 683.596C700.68 646.565 580.749 627.427 449.69 634.759Z" fill="white"/>
<path d="M236.188 684.686C236.188 684.686 350.751 667.229 450.039 733.785" stroke="#263238" stroke-linecap="round" stroke-linejoin="round"/>
<path d="M356.206 709.781C356.206 709.781 403.122 723.965 431.49 754.515" stroke="#263238" stroke-linecap="round" stroke-linejoin="round"/>
<path d="M633.339 654.136C633.339 654.136 699.895 660.683 759.904 696.688" stroke="#263238" stroke-linecap="round" stroke-linejoin="round"/>
<path d="M840.861 710.523C852.846 717.857 864.256 726.093 874.99 735.16" stroke="#263238" stroke-linecap="round" stroke-linejoin="round"/>
<path d="M60.1108 762C139.65 694.353 283.366 644.164 449.69 634.759C601.502 626.139 738.431 653.329 827.201 702.406" stroke="#263238" stroke-linecap="round" stroke-linejoin="round"/>
<path d="M544.962 653.045C544.962 653.045 613.7 656.319 659.525 671.594" stroke="#263238" stroke-linecap="round" stroke-linejoin="round"/>
<path d="M233.308 135.004C233.308 135.004 231.126 104.825 186.937 103.734C142.749 102.642 154.576 133.934 142.727 141.485C130.878 149.035 127.627 137.12 115.756 144.714C103.885 152.308 109.209 167.365 99.5861 169.525C89.9629 171.686 76.9354 159.815 65.0864 167.343C53.2373 174.872 53.2155 181.353 47.8256 181.353C42.4357 181.353 31.6559 176.988 25.1967 181.353C18.7376 185.717 11.1655 190.998 11.1655 190.998H283.934C283.934 190.998 287.163 181.287 275.205 174.828C263.247 168.369 257.945 173.737 253.646 168.281C249.347 162.826 265.648 149.035 233.308 135.004Z" fill="#09BBB5"/>
<path d="M395.376 19.5027C395.376 19.5027 394.067 1.34727 367.488 0.692622C340.91 0.0379783 348.024 18.8699 340.888 23.4088C333.752 27.9476 331.81 20.812 324.675 25.3509C317.539 29.8897 320.791 38.9675 314.942 40.2549C309.094 41.5424 301.326 34.4286 294.19 38.9675C287.055 43.5063 287.055 47.3906 283.803 47.3906C280.552 47.3906 274.071 44.8156 270.187 47.3906C266.302 49.9655 261.763 53.2387 261.763 53.2387H425.861C425.861 53.2387 427.803 47.3906 420.667 43.5064C413.532 39.6221 410.302 42.8517 407.705 39.6221C405.109 36.3925 414.841 27.9476 395.376 19.5027Z" fill="#09BBB5"/>
<path opacity="0.7" d="M233.308 135.004C233.308 135.004 231.126 104.825 186.937 103.734C142.749 102.642 154.576 133.934 142.727 141.485C130.878 149.035 127.627 137.12 115.756 144.714C103.885 152.308 109.209 167.365 99.5861 169.525C89.9629 171.686 76.9354 159.815 65.0864 167.343C53.2373 174.872 53.2155 181.353 47.8256 181.353C42.4357 181.353 31.6559 176.988 25.1967 181.353C18.7376 185.717 11.1655 190.998 11.1655 190.998H283.934C283.934 190.998 287.163 181.287 275.205 174.828C263.247 168.369 257.945 173.737 253.646 168.281C249.347 162.826 265.648 149.035 233.308 135.004Z" fill="white"/>
<path opacity="0.8" d="M395.376 19.5027C395.376 19.5027 394.067 1.34727 367.488 0.692622C340.91 0.0379783 348.024 18.8699 340.888 23.4088C333.752 27.9476 331.81 20.812 324.675 25.3509C317.539 29.8897 320.791 38.9675 314.942 40.2549C309.094 41.5424 301.326 34.4286 294.19 38.9675C287.055 43.5063 287.055 47.3906 283.803 47.3906C280.552 47.3906 274.071 44.8156 270.187 47.3906C266.302 49.9655 261.763 53.2387 261.763 53.2387H425.861C425.861 53.2387 427.803 47.3906 420.667 43.5064C413.532 39.6221 410.302 42.8517 407.705 39.6221C405.109 36.3925 414.841 27.9476 395.376 19.5027Z" fill="white"/>
</svg>
