<svg width="388" height="464" viewBox="0 0 388 464" fill="none" xmlns="http://www.w3.org/2000/svg">
<path d="M328.548 -67.2895C328.548 -67.2895 319.488 -76.8778 301.891 -83.868V39.2493L329.886 -65.9131C329.421 -66.3436 328.975 -66.803 328.548 -67.2895V-67.2895Z" fill="#09BBB5"/>
<path d="M326.049 389.332C336.984 393.028 339.609 402.786 339.609 402.786C339.609 402.786 335.235 382.202 341.371 385.45C347.507 388.698 352.744 402.786 352.744 402.786C352.744 402.786 352.744 345.365 364.129 367.031C367.784 373.715 370.376 381.199 371.765 389.084C375.451 381.052 378.554 372.632 381.039 363.923C387.288 341.344 391.037 267.127 391.037 205.808V-65.4029C366.279 -58.4127 348.182 -56.1239 336.722 -61.15L301.891 71.8959V255.775C301.891 328.585 312.126 368.995 320.1 389.44C321.05 388.558 322.887 388.28 326.049 389.332Z" fill="#09BBB5"/>
<path d="M80.5564 363.181C78.7839 368.978 76.6962 374.62 74.3076 380.068C74.7075 381.924 75.1074 383.625 75.5573 385.265L84.8431 376.79C84.8431 376.79 82.4686 370.372 80.5564 363.181Z" fill="#09BBB5"/>
<path d="M48.1999 205.808V159.629C39.5889 173.548 32.0778 190.56 31.103 214.175C30.0282 240.094 37.5018 260.276 47.15 276.978C47.8374 253.719 48.1999 228.851 48.1999 205.808Z" fill="#09BBB5"/>
<path d="M82.3436 330.162C83.7487 334.1 84.3907 338.39 84.2182 342.689C92.6792 346.571 92.6792 368.114 92.6792 368.114C92.6792 368.114 104.065 326.946 106.689 336.704C109.314 346.463 106.689 364.866 106.689 364.866C106.689 364.866 118.937 342.117 119.812 350.793C120.687 359.469 121.574 367.031 121.574 367.031C121.574 367.031 124.198 346.447 129.447 351.875C130.311 352.785 131.079 353.824 131.734 354.968C136.834 325.585 139.833 260.554 139.833 205.762V68.803L95.7661 -3.35699C65.7716 28.5938 73.7201 70.5969 76.0947 102.826C76.9945 115.121 71.6955 125.189 64.4468 135.89V255.822C64.4468 273.746 64.8343 289.629 65.5091 303.764C72.7828 313.414 79.2191 321.935 82.3436 330.162Z" fill="#09BBB5"/>
<path d="M139.833 -23.6008C129.835 -24.9618 118.462 -23.6008 102.402 -9.68229L139.895 51.0645L139.833 -23.6008Z" fill="#09BBB5"/>
<path d="M181.975 387.615C181.975 387.615 176.726 356.206 186.349 358.371C195.973 360.536 196.86 381.197 196.86 381.197C196.86 381.197 210.857 357.366 209.108 367.109C208.141 372.71 206.674 378.162 204.734 383.362C204.734 383.362 221.368 342.194 222.23 357.366C222.905 369.134 217.794 379.589 215.469 383.656C217.556 380.455 222.143 374.656 225.555 379.31C230.104 385.497 232.741 396.322 232.741 396.322C232.741 396.322 231.866 370.31 237.99 375.738C244.114 381.166 244.114 395.224 244.114 395.224C244.114 395.224 253.425 374.609 257.086 382.759C258.111 385.048 258.849 386.672 259.386 387.847C262.849 380.207 265.776 372.213 268.134 363.954C274.383 341.375 278.133 267.158 278.133 205.839V-25.5338L249.925 -90.2242C219.081 -86.3888 208.045 -65.4801 197.072 -47.4942L163.579 29.3826V255.822C163.579 326.188 173.127 366.289 180.975 387.352L181.975 387.615Z" fill="#09BBB5"/>
<path d="M176.076 -23.9873C172.121 -21.837 167.89 -20.5649 163.579 -20.2293V7.09747L178.688 -25.5338C177.851 -24.9925 176.976 -24.4667 176.076 -23.9873Z" fill="#09BBB5"/>
<g opacity="0.7">
<path d="M328.548 -67.2895C328.548 -67.2895 319.488 -76.8778 301.891 -83.868V39.2493L329.886 -65.9131C329.421 -66.3436 328.975 -66.803 328.548 -67.2895V-67.2895Z" fill="white"/>
<path d="M326.049 389.332C336.984 393.028 339.609 402.786 339.609 402.786C339.609 402.786 335.235 382.202 341.371 385.45C347.507 388.698 352.744 402.786 352.744 402.786C352.744 402.786 352.744 345.365 364.129 367.031C367.784 373.715 370.376 381.199 371.765 389.084C375.451 381.052 378.554 372.632 381.039 363.923C387.288 341.344 391.037 267.127 391.037 205.808V-65.4029C366.279 -58.4127 348.182 -56.1239 336.722 -61.15L301.891 71.8959V255.775C301.891 328.585 312.126 368.995 320.1 389.44C321.05 388.558 322.887 388.28 326.049 389.332Z" fill="white"/>
<path d="M80.5564 363.181C78.7839 368.978 76.6962 374.62 74.3076 380.068C74.7075 381.924 75.1074 383.625 75.5573 385.265L84.8431 376.79C84.8431 376.79 82.4686 370.372 80.5564 363.181Z" fill="white"/>
<path d="M48.1999 205.808V159.629C39.5889 173.548 32.0778 190.56 31.103 214.175C30.0282 240.094 37.5018 260.276 47.15 276.978C47.8374 253.719 48.1999 228.851 48.1999 205.808Z" fill="white"/>
<path d="M82.3436 330.163C83.7487 334.1 84.3907 338.39 84.2182 342.689C92.6792 346.571 92.6792 368.114 92.6792 368.114C92.6792 368.114 104.065 326.946 106.689 336.704C109.314 346.463 106.689 364.866 106.689 364.866C106.689 364.866 118.937 342.117 119.812 350.793C120.687 359.469 121.574 367.031 121.574 367.031C121.574 367.031 124.198 346.447 129.447 351.875C130.311 352.785 131.079 353.824 131.734 354.969C136.834 325.585 139.833 260.554 139.833 205.762V68.803L95.7661 -3.35693C65.7716 28.5939 73.7201 70.597 76.0947 102.826C76.9945 115.121 71.6955 125.189 64.4468 135.89V255.822C64.4468 273.746 64.8343 289.629 65.5091 303.764C72.7828 313.414 79.2191 321.935 82.3436 330.163Z" fill="white"/>
<path d="M139.833 -23.6008C129.835 -24.9618 118.462 -23.6008 102.402 -9.68229L139.895 51.0645L139.833 -23.6008Z" fill="white"/>
<path d="M181.975 387.615C181.975 387.615 176.726 356.206 186.349 358.371C195.973 360.536 196.86 381.197 196.86 381.197C196.86 381.197 210.857 357.366 209.108 367.109C208.141 372.71 206.674 378.162 204.734 383.362C204.734 383.362 221.368 342.194 222.23 357.366C222.905 369.134 217.794 379.589 215.469 383.656C217.556 380.455 222.143 374.656 225.555 379.31C230.104 385.497 232.741 396.322 232.741 396.322C232.741 396.322 231.866 370.31 237.99 375.738C244.114 381.166 244.114 395.224 244.114 395.224C244.114 395.224 253.425 374.609 257.086 382.759C258.111 385.048 258.849 386.672 259.386 387.847C262.849 380.207 265.776 372.213 268.134 363.954C274.383 341.375 278.133 267.158 278.133 205.839V-25.5338L249.925 -90.2242C219.081 -86.3888 208.045 -65.4801 197.072 -47.4942L163.579 29.3826V255.822C163.579 326.188 173.127 366.289 180.975 387.352L181.975 387.615Z" fill="white"/>
<path d="M176.076 -23.9873C172.121 -21.837 167.89 -20.5649 163.579 -20.2293V7.09747L178.688 -25.5338C177.851 -24.9925 176.976 -24.4667 176.076 -23.9873Z" fill="white"/>
</g>
<path d="M48.2647 199.344C48.2647 199.344 44.7665 196.619 49.0359 190.79C53.3052 184.961 61.0616 182.999 60.2905 187.673C59.5193 192.348 56.4123 201.687 48.2647 199.344Z" fill="#09BBB5"/>
<path d="M53.6964 191.956C49.9059 196.667 46.405 201.605 43.213 206.742Z" fill="#09BBB5"/>
<path d="M53.6964 191.956C49.9059 196.667 46.405 201.605 43.213 206.742" stroke="#263238" stroke-linecap="round" stroke-linejoin="round"/>
<path d="M359.928 273.243C359.928 273.243 358.352 269.095 365.025 266.337C371.697 263.579 379.341 265.967 376.257 269.543C373.172 273.12 365.673 279.487 359.928 273.243Z" fill="#09BBB5"/>
<path d="M368.4 269.756C362.722 271.808 357.172 274.201 351.781 276.92Z" fill="#09BBB5"/>
<path d="M368.4 269.756C362.722 271.808 357.172 274.201 351.781 276.92" stroke="#263238" stroke-linecap="round" stroke-linejoin="round"/>
<path d="M154.641 301.762C154.641 301.762 158.318 299.285 162.465 305.181C166.611 311.078 166.063 319.071 161.883 316.874C157.703 314.677 149.88 308.724 154.641 301.762Z" fill="#09BBB5"/>
<path d="M159.939 309.195C156.664 304.126 153.089 299.259 149.232 294.621Z" fill="#09BBB5"/>
<path d="M159.939 309.195C156.664 304.126 153.089 299.259 149.232 294.621" stroke="#263238" stroke-linecap="round" stroke-linejoin="round"/>
<path d="M14.1322 168.021C15.2257 164.633 16.8071 161.423 18.8262 158.493C21.9333 154.109 31.0085 156.766 31.0085 156.766C33.4896 156.934 32.6067 170.757 24.6379 172.887C21.285 173.795 26.0126 174.894 29.1085 174.266C32.2043 173.638 39.0889 175.521 36.5966 179.277C34.1043 183.032 27.2197 187.416 23.4756 187.416C19.0203 187.554 14.6415 186.231 11.0028 183.649C6.64403 180.521 2.91113 171.721 2.91113 166.116C2.91113 160.51 8.52166 156.138 14.1322 168.021Z" fill="#09BBB5"/>
<path d="M19.9439 169.77C19.9439 169.77 8.68937 184.176 6.74469 190.779Z" fill="#09BBB5"/>
<path d="M19.9439 169.77C19.9439 169.77 8.68937 184.176 6.74469 190.779" stroke="#263238" stroke-linecap="round" stroke-linejoin="round"/>
<path d="M320.643 170.97C318.654 168.03 317.099 164.816 316.027 161.43C314.519 156.262 322.197 150.746 322.197 150.746C323.851 148.885 334.167 158.111 330.926 165.712C329.528 168.963 333.351 165.869 334.781 163.022C336.212 160.174 341.912 155.914 343.32 160.197C344.728 164.479 343.924 172.595 341.621 175.555C338.985 179.156 335.249 181.797 330.981 183.077C325.84 184.59 316.665 182.147 312.25 178.671C307.835 175.196 307.858 168.077 320.643 170.97Z" fill="#09BBB5"/>
<path d="M325.606 167.472C325.606 167.472 329.964 185.229 333.954 190.846" stroke="#263238" stroke-linecap="round" stroke-linejoin="round"/>
<path d="M168.176 99.4583C171.662 100.008 175.05 101.062 178.234 102.586C183.029 104.985 181.833 114.379 181.833 114.379C182.046 116.868 168.299 118.146 164.957 110.579C163.538 107.35 163.191 112.261 164.298 115.254C165.404 118.247 164.61 125.343 160.531 123.449C156.452 121.554 151.076 115.444 150.472 111.734C149.674 107.356 150.313 102.836 152.294 98.853C154.697 94.0437 162.733 88.9766 168.276 88.1021C173.82 87.2277 179.006 92.0482 168.176 99.4583Z" fill="#09BBB5"/>
<path d="M167.349 105.49C167.349 105.49 151.422 96.5211 144.605 95.6804Z" fill="#09BBB5"/>
<path d="M167.349 105.49C167.349 105.49 151.422 96.5211 144.605 95.6804" stroke="#263238" stroke-linecap="round" stroke-linejoin="round"/>
<path d="M98.0553 353.028C100.434 353.394 102.745 354.108 104.918 355.146C108.181 356.783 107.365 363.162 107.365 363.162C107.51 364.855 98.1671 365.718 95.8983 360.583C94.9259 358.341 94.7024 361.704 95.4512 363.756C96.2 365.807 95.6636 370.606 92.8918 369.361C90.1201 368.117 86.4654 363.924 86.0743 361.413C85.5018 358.432 85.9179 355.345 87.259 352.624C88.8907 349.351 94.3559 345.898 98.1224 345.315C101.889 344.732 105.409 347.994 98.0553 353.028Z" fill="#09BBB5"/>
<path d="M97.4966 357.119C97.4966 357.119 86.6667 351.066 82.0397 350.46Z" fill="#09BBB5"/>
<path d="M97.4966 357.119C97.4966 357.119 86.6667 351.066 82.0397 350.46" stroke="#263238" stroke-linecap="round" stroke-linejoin="round"/>
<path d="M12.8917 285.462C14.6604 283.809 16.6596 282.423 18.8263 281.348C22.1792 279.79 26.6498 284.375 26.6498 284.375C28.0691 285.294 22.9839 293.209 17.5522 291.83C15.2275 291.236 17.7087 293.478 19.7875 294.139C21.8663 294.801 25.2974 298.197 22.5704 299.599C19.8434 301 14.3446 301.314 12.1205 300.069C9.43349 298.673 7.27207 296.438 5.96235 293.702C4.40884 290.406 5.07942 283.96 6.93469 280.619C8.78996 277.279 13.484 276.55 12.8917 285.462Z" fill="#09BBB5"/>
<path d="M15.7639 288.433C15.7639 288.433 4.29702 293.242 1 296.527Z" fill="#09BBB5"/>
<path d="M15.7639 288.433C15.7639 288.433 4.29702 293.242 1 296.527" stroke="#263238" stroke-linecap="round" stroke-linejoin="round"/>
<path d="M36.8537 145.298C36.8537 145.298 44.0848 142.394 57.1052 145.298C70.1257 148.201 82.4196 157.629 101.956 160.544C121.492 163.459 133.786 156.912 135.954 146.027C138.123 135.141 127.997 133.695 121.425 138.773C114.853 143.852 121.425 152.562 121.425 152.562" stroke="#263238" stroke-width="0.75" stroke-linecap="round" stroke-linejoin="round" stroke-dasharray="2 2"/>
<path d="M98.3347 167.797C98.3347 167.797 107.745 171.418 123.66 167.797C139.575 164.176 141.017 146.027 153.311 136.599C165.605 127.171 175.742 137.316 175.742 146.027C175.742 154.737 169.226 156.183 162.722 156.183" stroke="#263238" stroke-width="0.75" stroke-linecap="round" stroke-linejoin="round" stroke-dasharray="2 2"/>
<path d="M280.04 336.145C280.04 336.145 289.439 331.795 301.744 343.398C314.049 355.001 328.511 368.061 348.036 366.615C367.561 365.169 375.53 347.725 392.116 344.127C408.702 340.528 416.704 350.651 416.704 357.187C416.704 363.723 405.852 372.422 400.062 365.897" stroke="#263238" stroke-width="0.75" stroke-linecap="round" stroke-linejoin="round" stroke-dasharray="2 2"/>
<path d="M256.882 350.651C256.882 350.651 280.755 343.398 293.049 353.555C305.343 363.711 316.195 378.957 334.278 378.957" stroke="#263238" stroke-width="0.75" stroke-linecap="round" stroke-linejoin="round" stroke-dasharray="2 2"/>
<path d="M222.135 464C243.665 464 261.118 461.586 261.118 458.608C261.118 455.63 243.665 453.216 222.135 453.216C200.605 453.216 183.152 455.63 183.152 458.608C183.152 461.586 200.605 464 222.135 464Z" fill="#09BBB5"/>
<path d="M206.477 310.832C206.477 310.832 210.098 332.658 207.829 345.853C205.561 359.048 202.845 362.22 200.129 370.852C197.413 379.484 197.413 390.403 197.413 390.403L206.086 391.323C206.086 391.323 217.352 365.404 218.257 344.026C219.162 322.647 215.083 309.923 215.083 309.923L206.477 310.832Z" fill="white"/>
<path opacity="0.5" d="M206.477 310.832C206.477 310.832 210.098 332.658 207.829 345.853C205.561 359.048 202.845 362.22 200.129 370.852C197.413 379.484 197.413 390.403 197.413 390.403L206.086 391.323C206.086 391.323 217.352 365.404 218.257 344.026C219.162 322.647 215.083 309.923 215.083 309.923L206.477 310.832Z" fill="#09BBB5" stroke="#263238" stroke-miterlimit="10"/>
<path d="M206.477 310.832C206.477 310.832 210.098 332.658 207.829 345.853C205.561 359.048 202.845 362.22 200.129 370.852C197.413 379.484 197.413 390.403 197.413 390.403L206.086 391.323C206.086 391.323 217.352 365.404 218.257 344.026C219.162 322.647 215.083 309.923 215.083 309.923L206.477 310.832Z" stroke="#263238" stroke-miterlimit="10"/>
<path d="M198.564 454.112C198.564 454.112 196.329 455.233 200.129 456.354C202.685 456.958 205.355 456.865 207.863 456.085C207.863 456.085 208.679 455.693 207.572 454.449C206.466 453.204 198.564 454.112 198.564 454.112Z" fill="#263238" stroke="#263238" stroke-miterlimit="10"/>
<path d="M194.541 388.475C194.541 388.475 196.463 385.336 211.059 387.253C219.81 388.374 221.04 387.466 221.71 391.637C222.381 395.807 215.105 434.909 215.004 437.599C215.057 440.134 215.972 442.575 217.597 444.516C218.715 445.749 226.963 450.884 230.193 451.052C233.423 451.22 234.485 453.294 234.407 454.807C234.328 456.321 229.713 457.621 223.23 457.296C216.748 456.971 208.522 454.662 206.466 454.561C204.409 454.46 201.403 455.772 198.553 454.157C195.703 452.543 198.978 445.626 199.738 442.431C200.498 439.236 196.653 416.333 194.854 405.336C193.054 394.338 194.127 390.818 194.541 388.475Z" fill="#09BBB5" stroke="#263238" stroke-miterlimit="10"/>
<path opacity="0.1" d="M194.541 388.475C194.541 388.475 196.463 385.336 211.059 387.253C219.81 388.374 221.04 387.466 221.71 391.637C222.381 395.807 215.105 434.909 215.004 437.599C215.057 440.134 215.972 442.575 217.597 444.516C218.715 445.749 226.963 450.884 230.193 451.052C233.423 451.22 234.485 453.294 234.407 454.807C234.328 456.321 229.713 457.621 223.23 457.296C216.748 456.971 208.522 454.662 206.466 454.561C204.409 454.46 201.403 455.772 198.553 454.157C195.703 452.543 198.978 445.626 199.738 442.431C200.498 439.236 196.653 416.333 194.854 405.336C193.054 394.338 194.127 390.818 194.541 388.475Z" fill="black"/>
<path d="M194.541 388.475C194.541 388.475 196.463 385.336 211.059 387.253C219.81 388.374 221.04 387.466 221.71 391.637C222.381 395.807 215.105 434.909 215.004 437.599C215.057 440.134 215.972 442.575 217.597 444.516C218.715 445.749 226.963 450.884 230.193 451.052C233.423 451.22 234.485 453.294 234.407 454.807C234.328 456.321 229.713 457.621 223.23 457.296C216.748 456.971 208.522 454.662 206.466 454.561C204.409 454.46 201.403 455.772 198.553 454.157C195.703 452.543 198.978 445.626 199.738 442.431C200.498 439.236 196.653 416.333 194.854 405.336C193.054 394.338 194.127 390.818 194.541 388.475Z" stroke="#263238" stroke-miterlimit="10"/>
<path d="M201.626 309.318C204.981 315.894 207.146 323.015 208.019 330.349C209.226 341.941 210.143 352.299 206.801 359.619C203.459 366.94 201.626 377.612 202.241 382.186C202.676 385.264 203.284 388.314 204.063 391.323L222.604 392.567C222.604 392.567 225.644 370.92 231.121 358.42C236.597 345.92 238.71 324.273 238.71 315.439C238.792 311.159 238.59 306.879 238.106 302.625L199.805 304.767L201.626 309.318Z" fill="white"/>
<g style="mix-blend-mode:multiply" opacity="0.5">
<path d="M199.805 304.744L201.626 309.318C204.981 315.894 207.146 323.014 208.019 330.349C209.226 341.941 210.143 352.299 206.801 359.619C203.459 366.94 201.626 377.612 202.241 382.186C202.654 385.118 203.224 388.026 203.951 390.897H207.427C206.099 386.514 205.692 381.903 206.231 377.354C207.125 369.832 211.629 362.018 212.825 346.671C213.398 336.902 211.759 327.129 208.03 318.085C214.591 319 221.201 319.516 227.824 319.632C231.514 319.572 235.173 318.949 238.676 317.782C238.676 316.919 238.676 316.123 238.676 315.417C238.758 311.137 238.557 306.856 238.073 302.603L199.805 304.744Z" fill="#09BBB5"/>
</g>
<path d="M201.626 309.318C204.981 315.894 207.146 323.015 208.019 330.349C209.226 341.941 210.143 352.299 206.801 359.619C203.459 366.94 201.626 377.612 202.241 382.186C202.676 385.264 203.284 388.314 204.063 391.323L222.604 392.567C222.604 392.567 225.644 370.92 231.121 358.42C236.597 345.92 238.71 324.273 238.71 315.439C238.792 311.159 238.59 306.879 238.106 302.625L199.805 304.767L201.626 309.318Z" stroke="#263238" stroke-miterlimit="10"/>
<path d="M221.487 313.489C221.487 313.489 222.895 325.473 222.895 335.809C222.932 341.822 222.222 347.818 220.783 353.656" stroke="#263238" stroke-linecap="round" stroke-linejoin="round"/>
<path d="M219.609 357.422C219.609 357.422 215.139 367.758 214.457 372.691" stroke="#263238" stroke-linecap="round" stroke-linejoin="round"/>
<path d="M226.091 143.751C226.091 143.751 231.255 140.533 227.5 136.767C223.744 133 210.299 130.803 197.156 140.847C184.013 150.892 189.958 159.67 191.21 165.006C192.462 170.342 191.523 171.912 182.146 180.375C172.769 188.839 177.452 201.092 184.024 207.987C190.595 214.881 206.589 218.659 215.608 217.684C224.627 216.709 229.377 221.764 232.82 225.531C236.262 229.298 243.448 228.973 247.516 228.345C251.585 227.717 256.882 227.773 265.03 233.378C273.177 238.984 282.912 235.621 289.439 228.984C295.966 222.347 290.68 211.731 295.027 211.103C299.375 210.476 300.347 210.789 299.721 207.023C299.571 206.078 299.192 205.184 298.617 204.42C298.042 203.656 297.288 203.046 296.423 202.643C295.557 202.24 294.606 202.057 293.654 202.109C292.701 202.161 291.776 202.447 290.959 202.942C286.902 205.184 279.704 210.162 275.636 205.767C271.568 201.373 277.871 191.967 267.5 184.467C257.128 176.967 251.853 184.467 242.789 184.467C233.725 184.467 228.092 181.328 226.84 175.689C225.589 170.051 228.405 164.075 229.344 158.111C230.283 152.148 226.091 143.751 226.091 143.751Z" fill="#263238" stroke="#263238" stroke-miterlimit="10"/>
<path d="M226.091 143.751C226.091 143.751 220.168 140.197 214.736 148.515C209.305 156.833 215.373 163.246 206.756 174.131C198.139 185.017 179.307 185.017 180.894 196.227C182.481 207.437 190.16 204.556 190.16 204.556" stroke="white" stroke-width="0.75" stroke-linecap="round" stroke-linejoin="round"/>
<path d="M212.825 142.439C212.825 142.439 204.521 146.923 204.521 154.603C204.521 162.282 208.668 165.163 204.197 170.936C199.726 176.71 196.865 177.326 196.865 177.326" stroke="white" stroke-width="0.75" stroke-linecap="round" stroke-linejoin="round"/>
<path d="M195.904 188.537C195.904 188.537 186.326 195.588 188.237 200.072C190.148 204.556 193.982 201.664 193.982 201.664" stroke="white" stroke-width="0.75" stroke-linecap="round" stroke-linejoin="round"/>
<path d="M257.832 187.584C257.832 187.584 268.36 187.259 269.321 196.552C270.283 205.846 268.36 212.247 274.429 213.211C280.498 214.175 286.242 206.798 290.389 206.798" stroke="white" stroke-width="0.75" stroke-linecap="round" stroke-linejoin="round"/>
<path d="M266.773 213.513C266.773 213.513 267.723 216.72 272.831 217.998C277.938 219.276 280.174 213.839 284.644 212.561" stroke="white" stroke-width="0.75" stroke-linecap="round" stroke-linejoin="round"/>
<path d="M226.091 143.751C228.574 145.137 230.911 146.77 233.066 148.627C235.189 150.746 236.027 153.717 237.536 154.771C239.045 155.824 243.661 156.475 243.661 157.315C243.661 158.156 241.761 160.679 241.761 160.679C241.761 160.679 243.661 168.1 244.298 170.219C244.935 172.337 245.36 174.703 243.448 175.734C240.738 177.26 237.682 178.063 234.574 178.066L229.925 178.279V187.606C229.925 191.844 231.825 200.543 231.825 200.543L218.883 194.007C218.883 194.007 219.52 186.586 219.52 183.615C219.39 180.702 219.107 177.799 218.67 174.916C218.67 174.916 211.909 174.075 212.546 169.4C213.093 165.32 217.016 166.643 218.246 166.643H219.52C219.52 166.643 219.095 162.831 220.157 160.925C221.219 159.019 225.231 157.315 225.857 153.291C226.239 150.126 226.318 146.931 226.091 143.751V143.751Z" fill="white"/>
<g style="mix-blend-mode:multiply" opacity="0.5">
<path d="M223.923 173.122C219.453 168.638 221.52 164.692 223.622 161.082C224.922 158.679 225.685 156.02 225.857 153.291C225.231 157.315 221.207 159.008 220.157 160.925C219.106 162.842 219.52 166.643 219.52 166.643H218.246C216.983 166.643 213.093 165.32 212.546 169.4C211.909 174.075 218.67 174.916 218.67 174.916C219.107 177.799 219.39 180.702 219.52 183.615C219.52 185.442 219.274 188.951 219.095 191.384C221.967 189.859 225.957 187.707 229.88 185.465V178.313L234.53 178.1C237.638 178.096 240.693 177.294 243.404 175.768C243.135 172.696 228.427 177.629 223.923 173.122Z" fill="#09BBB5"/>
</g>
<path d="M226.091 143.751C228.574 145.137 230.911 146.77 233.066 148.627C235.189 150.746 236.027 153.717 237.536 154.771C239.045 155.824 243.661 156.475 243.661 157.315C243.661 158.156 241.761 160.679 241.761 160.679C241.761 160.679 243.661 168.1 244.298 170.219C244.935 172.337 245.36 174.703 243.448 175.734C240.738 177.26 237.682 178.063 234.574 178.066L229.925 178.279V187.606C229.925 191.844 231.825 200.543 231.825 200.543L218.883 194.007C218.883 194.007 219.52 186.586 219.52 183.615C219.39 180.702 219.107 177.799 218.67 174.916C218.67 174.916 211.909 174.075 212.546 169.4C213.093 165.32 217.016 166.643 218.246 166.643H219.52C219.52 166.643 219.095 162.831 220.157 160.925C221.219 159.019 225.231 157.315 225.857 153.291C226.239 150.126 226.318 146.931 226.091 143.751V143.751Z" stroke="#263238" stroke-miterlimit="10"/>
<path d="M232.227 153.93L234.53 156.475C234.53 156.475 233.468 158.167 231.993 158.167" stroke="#263238" stroke-width="0.75" stroke-linecap="round" stroke-linejoin="round"/>
<path d="M231.378 150.959C231.091 150.812 230.774 150.735 230.452 150.733C230.131 150.731 229.813 150.805 229.525 150.949C229.237 151.093 228.986 151.303 228.794 151.562C228.601 151.821 228.472 152.121 228.416 152.439" stroke="#263238" stroke-width="0.75" stroke-linecap="round" stroke-linejoin="round"/>
<path d="M241.101 165.589C240.499 166.118 239.776 166.49 238.997 166.674C238.217 166.858 237.405 166.847 236.631 166.643" stroke="#263238" stroke-width="0.75" stroke-linecap="round" stroke-linejoin="round"/>
<path d="M207.706 456.567C207.706 456.567 205.471 457.879 209.45 458.81C212.128 459.3 214.888 459.06 217.441 458.114C217.441 458.114 218.268 457.666 217.05 456.455C215.832 455.245 207.706 456.567 207.706 456.567Z" fill="#263238" stroke="#263238" stroke-miterlimit="10"/>
<path d="M200.118 388.89C200.118 388.89 201.939 385.527 217.139 386.76C226.248 387.489 227.466 386.446 228.383 390.717C229.299 394.989 223.823 435.839 223.823 438.586C224.008 441.201 225.081 443.674 226.863 445.593C228.081 446.814 236.921 451.691 240.274 451.691C243.627 451.691 244.834 453.832 244.834 455.357C244.834 456.881 240.129 458.518 233.434 458.518C226.74 458.518 218.089 456.568 215.966 456.568C213.842 456.568 210.791 458.092 207.751 456.568C204.711 455.043 207.751 447.734 208.366 444.382C208.981 441.03 203.806 417.544 201.369 406.266C198.933 394.989 199.805 391.323 200.118 388.89Z" fill="#09BBB5" stroke="#263238" stroke-miterlimit="10"/>
<path opacity="0.1" d="M200.118 388.89C200.118 388.89 201.939 385.527 217.139 386.76C226.248 387.489 227.466 386.446 228.383 390.717C229.299 394.989 223.823 435.839 223.823 438.586C224.008 441.201 225.081 443.674 226.863 445.593C228.081 446.814 236.921 451.691 240.274 451.691C243.627 451.691 244.834 453.832 244.834 455.357C244.834 456.881 240.129 458.518 233.434 458.518C226.74 458.518 218.089 456.568 215.966 456.568C213.842 456.568 210.791 458.092 207.751 456.568C204.711 455.043 207.751 447.734 208.366 444.382C208.981 441.03 203.806 417.544 201.369 406.266C198.933 394.989 199.805 391.323 200.118 388.89Z" fill="black"/>
<path d="M200.118 388.89C200.118 388.89 201.939 385.527 217.139 386.76C226.248 387.489 227.466 386.446 228.383 390.717C229.299 394.989 223.823 435.839 223.823 438.586C224.008 441.201 225.081 443.674 226.863 445.593C228.081 446.814 236.921 451.691 240.274 451.691C243.627 451.691 244.834 453.832 244.834 455.357C244.834 456.881 240.129 458.518 233.434 458.518C226.74 458.518 218.089 456.568 215.966 456.568C213.842 456.568 210.791 458.092 207.751 456.568C204.711 455.043 207.751 447.734 208.366 444.382C208.981 441.03 203.806 417.544 201.369 406.266C198.933 394.989 199.805 391.323 200.118 388.89Z" stroke="#263238" stroke-miterlimit="10"/>
<path d="M238.777 213.726C238.777 213.726 243.638 225.385 243.426 229.208C243.214 233.031 236.72 247.022 236.72 248.714C236.72 250.407 253.004 305.966 253.004 305.966C253.004 305.966 234.608 311.908 217.91 312.535C207.325 312.79 196.784 311.064 186.829 307.446L199.883 244.477L198.821 214.78C198.821 214.78 204.108 196.967 213.35 195.723C222.593 194.478 236.877 210.33 238.777 213.726Z" fill="#09BBB5" stroke="#263238" stroke-miterlimit="10"/>
<path opacity="0.1" d="M238.777 213.726C238.777 213.726 243.638 225.385 243.426 229.208C243.214 233.031 236.72 247.022 236.72 248.714C236.72 250.407 253.004 305.966 253.004 305.966C253.004 305.966 234.608 311.908 217.91 312.535C207.325 312.79 196.784 311.064 186.829 307.446L199.883 244.477L198.821 214.78C198.821 214.78 204.108 196.967 213.35 195.723C222.593 194.478 236.877 210.33 238.777 213.726Z" fill="#263238"/>
<path d="M235.569 204.792C235.569 204.792 236.53 206.709 241.302 205.106C246.075 203.503 246.566 201.743 250.389 202.718C254.211 203.693 255.485 204.96 258.503 204.792C261.52 204.624 262.012 203.828 262.012 203.828C262.012 203.828 263.286 203.189 262.806 204.31C262.325 205.431 260.101 205.913 257.218 205.913C254.334 205.913 251.629 203.996 248.623 203.828C245.616 203.66 244.152 205.913 240.978 206.709C239.575 207.119 238.133 207.386 236.675 207.505L235.569 204.792Z" fill="#09BBB5" stroke="#263238" stroke-width="0.5" stroke-miterlimit="10"/>
<path opacity="0.1" d="M235.569 204.792C235.569 204.792 236.53 206.709 241.302 205.106C246.075 203.503 246.566 201.743 250.389 202.718C254.211 203.693 255.485 204.96 258.503 204.792C261.52 204.624 262.012 203.828 262.012 203.828C262.012 203.828 263.286 203.189 262.806 204.31C262.325 205.431 260.101 205.913 257.218 205.913C254.334 205.913 251.629 203.996 248.623 203.828C245.616 203.66 244.152 205.913 240.978 206.709C239.575 207.119 238.133 207.386 236.675 207.505L235.569 204.792Z" fill="black"/>
<path d="M235.569 204.792C235.569 204.792 236.53 206.709 241.302 205.106C246.075 203.503 246.566 201.743 250.389 202.718C254.211 203.693 255.485 204.96 258.503 204.792C261.52 204.624 262.012 203.828 262.012 203.828C262.012 203.828 263.286 203.189 262.806 204.31C262.325 205.431 260.101 205.913 257.218 205.913C254.334 205.913 251.629 203.996 248.623 203.828C245.616 203.66 244.152 205.913 240.978 206.709C239.575 207.119 238.133 207.386 236.675 207.505L235.569 204.792Z" stroke="#263238" stroke-width="0.5" stroke-miterlimit="10"/>
<path d="M237.648 212.46C237.648 212.46 238.285 213.581 242.42 216.451C246.555 219.321 251.663 216.137 255.161 216.776C255.19 216.552 255.171 216.325 255.104 216.109C255.037 215.894 254.924 215.695 254.773 215.528C254.622 215.361 254.437 215.228 254.23 215.14C254.023 215.051 253.799 215.009 253.574 215.016C251.819 215.016 250.545 217.258 245.449 215.812C240.352 214.366 237.804 209.108 237.648 212.46Z" fill="#09BBB5" stroke="#263238" stroke-width="0.5" stroke-miterlimit="10"/>
<path opacity="0.1" d="M237.648 212.46C237.648 212.46 238.285 213.581 242.42 216.451C246.555 219.321 251.663 216.137 255.161 216.776C255.19 216.552 255.171 216.325 255.104 216.109C255.037 215.894 254.924 215.695 254.773 215.528C254.622 215.361 254.437 215.228 254.23 215.14C254.023 215.051 253.799 215.009 253.574 215.016C251.819 215.016 250.545 217.258 245.449 215.812C240.352 214.366 237.804 209.108 237.648 212.46Z" fill="black"/>
<path d="M237.648 212.46C237.648 212.46 238.285 213.581 242.42 216.451C246.555 219.321 251.663 216.137 255.161 216.776C255.19 216.552 255.171 216.325 255.104 216.109C255.037 215.894 254.924 215.695 254.773 215.528C254.622 215.361 254.437 215.228 254.23 215.14C254.023 215.051 253.799 215.009 253.574 215.016C251.819 215.016 250.545 217.258 245.449 215.812C240.352 214.366 237.804 209.108 237.648 212.46Z" stroke="#263238" stroke-width="0.5" stroke-miterlimit="10"/>
<path d="M257.866 215.442C257.866 215.109 257.767 214.783 257.582 214.506C257.398 214.23 257.135 214.014 256.828 213.887C256.521 213.76 256.184 213.727 255.858 213.793C255.533 213.859 255.234 214.02 255 214.257C254.766 214.493 254.607 214.794 254.544 215.121C254.48 215.447 254.515 215.786 254.644 216.093C254.772 216.4 254.989 216.662 255.266 216.845C255.543 217.029 255.868 217.125 256.2 217.123C256.42 217.123 256.638 217.08 256.84 216.995C257.043 216.91 257.227 216.786 257.382 216.63C257.537 216.474 257.659 216.288 257.742 216.084C257.825 215.88 257.867 215.662 257.866 215.442Z" fill="#09BBB5" stroke="#263238" stroke-width="0.5" stroke-miterlimit="10"/>
<path opacity="0.1" d="M257.866 215.442C257.866 215.109 257.767 214.783 257.582 214.506C257.398 214.23 257.135 214.014 256.828 213.887C256.521 213.76 256.184 213.727 255.858 213.793C255.533 213.859 255.234 214.02 255 214.257C254.766 214.493 254.607 214.794 254.544 215.121C254.48 215.447 254.515 215.786 254.644 216.093C254.772 216.4 254.989 216.662 255.266 216.845C255.543 217.029 255.868 217.125 256.2 217.123C256.42 217.123 256.638 217.08 256.84 216.995C257.043 216.91 257.227 216.786 257.382 216.63C257.537 216.474 257.659 216.288 257.742 216.084C257.825 215.88 257.867 215.662 257.866 215.442Z" fill="black"/>
<path d="M257.866 215.442C257.866 215.109 257.767 214.783 257.582 214.506C257.398 214.23 257.135 214.014 256.828 213.887C256.521 213.76 256.184 213.727 255.858 213.793C255.533 213.859 255.234 214.02 255 214.257C254.766 214.493 254.607 214.794 254.544 215.121C254.48 215.447 254.515 215.786 254.644 216.093C254.772 216.4 254.989 216.662 255.266 216.845C255.543 217.029 255.868 217.125 256.2 217.123C256.42 217.123 256.638 217.08 256.84 216.995C257.043 216.91 257.227 216.786 257.382 216.63C257.537 216.474 257.659 216.288 257.742 216.084C257.825 215.88 257.867 215.662 257.866 215.442Z" stroke="#263238" stroke-width="0.5" stroke-miterlimit="10"/>
<path d="M265.041 203.906C265.041 203.574 264.943 203.248 264.759 202.972C264.574 202.695 264.312 202.48 264.006 202.353C263.7 202.225 263.363 202.192 263.038 202.257C262.712 202.322 262.414 202.482 262.179 202.717C261.945 202.952 261.785 203.252 261.72 203.578C261.656 203.904 261.689 204.242 261.816 204.55C261.943 204.857 262.158 205.12 262.433 205.304C262.709 205.489 263.033 205.588 263.365 205.588C263.809 205.588 264.236 205.411 264.55 205.095C264.864 204.78 265.041 204.352 265.041 203.906V203.906Z" fill="#09BBB5" stroke="#263238" stroke-width="0.5" stroke-miterlimit="10"/>
<path opacity="0.1" d="M265.041 203.906C265.041 203.574 264.943 203.248 264.759 202.972C264.574 202.695 264.312 202.48 264.006 202.353C263.7 202.225 263.363 202.192 263.038 202.257C262.712 202.322 262.414 202.482 262.179 202.717C261.945 202.952 261.785 203.252 261.72 203.578C261.656 203.904 261.689 204.242 261.816 204.55C261.943 204.857 262.158 205.12 262.433 205.304C262.709 205.489 263.033 205.588 263.365 205.588C263.809 205.588 264.236 205.411 264.55 205.095C264.864 204.78 265.041 204.352 265.041 203.906V203.906Z" fill="black"/>
<path d="M265.041 203.906C265.041 203.574 264.943 203.248 264.759 202.972C264.574 202.695 264.312 202.48 264.006 202.353C263.7 202.225 263.363 202.192 263.038 202.257C262.712 202.322 262.414 202.482 262.179 202.717C261.945 202.952 261.785 203.252 261.72 203.578C261.656 203.904 261.689 204.242 261.816 204.55C261.943 204.857 262.158 205.12 262.433 205.304C262.709 205.489 263.033 205.588 263.365 205.588C263.809 205.588 264.236 205.411 264.55 205.095C264.864 204.78 265.041 204.352 265.041 203.906V203.906Z" stroke="#263238" stroke-width="0.5" stroke-miterlimit="10"/>
<path d="M238.777 211.821C238.293 207.823 236.51 204.095 233.703 201.216C229.053 196.552 222.079 193.155 217.217 190.398C212.356 187.64 207.494 187.64 204.108 189.759C200.721 191.877 195.234 202.269 190.998 206.305C186.762 210.341 185.499 212.662 189.31 215.419C193.121 218.177 195.647 217.964 200.308 214.567C204.968 211.171 207.706 199.938 212.602 199.097C217.497 198.256 225.488 201.216 229.936 205.027C234.384 208.839 238.385 214.567 238.81 213.727C239.038 213.109 239.026 212.429 238.777 211.821V211.821Z" fill="#09BBB5" stroke="#263238" stroke-miterlimit="10"/>
<path opacity="0.1" d="M238.777 211.821C238.293 207.823 236.51 204.095 233.703 201.216C229.053 196.552 222.079 193.155 217.217 190.398C212.356 187.64 207.494 187.64 204.108 189.759C200.721 191.877 195.234 202.269 190.998 206.305C186.762 210.341 185.499 212.662 189.31 215.419C193.121 218.177 195.647 217.964 200.308 214.567C204.968 211.171 207.706 199.938 212.602 199.097C217.497 198.256 225.488 201.216 229.936 205.027C234.384 208.839 238.385 214.567 238.81 213.727C239.038 213.109 239.026 212.429 238.777 211.821V211.821Z" fill="black"/>
<path d="M238.777 211.821C238.293 207.823 236.51 204.095 233.703 201.216C229.053 196.552 222.079 193.155 217.217 190.398C212.356 187.64 207.494 187.64 204.108 189.759C200.721 191.877 195.234 202.269 190.998 206.305C186.762 210.341 185.499 212.662 189.31 215.419C193.121 218.177 195.647 217.964 200.308 214.567C204.968 211.171 207.706 199.938 212.602 199.097C217.497 198.256 225.488 201.216 229.936 205.027C234.384 208.839 238.385 214.567 238.81 213.727C239.038 213.109 239.026 212.429 238.777 211.821V211.821Z" stroke="#263238" stroke-miterlimit="10"/>
<path d="M214.68 206.092C214.68 206.092 210.657 203.973 206.22 207.572C201.783 211.171 187.22 233.02 183.174 238.322C179.128 243.625 177.262 245.531 178.525 249.14C179.788 252.75 199.034 273.097 200.308 275.003C201.252 276.365 202.31 277.644 203.471 278.826L208.757 279.039L214.256 273.736C212.356 269.148 210.169 264.684 207.706 260.373C203.683 253.378 199.458 246.809 199.458 246.809C199.458 246.809 219.117 224.533 220.593 219.242C221.463 215.955 221.319 212.48 220.179 209.276" fill="#09BBB5"/>
<path d="M214.68 206.092C214.68 206.092 210.657 203.973 206.22 207.572C201.783 211.171 187.22 233.02 183.174 238.322C179.128 243.625 177.262 245.531 178.525 249.14C179.788 252.75 199.034 273.097 200.308 275.003C201.252 276.365 202.31 277.644 203.471 278.826L208.757 279.039L214.256 273.736C212.356 269.148 210.169 264.684 207.706 260.373C203.683 253.378 199.458 246.809 199.458 246.809C199.458 246.809 219.117 224.533 220.593 219.242C221.463 215.955 221.319 212.48 220.179 209.276" stroke="#263238" stroke-miterlimit="10"/>
<path opacity="0.1" d="M214.68 206.092C214.68 206.092 210.657 203.973 206.22 207.572C201.783 211.171 187.22 233.02 183.174 238.322C179.128 243.625 177.262 245.531 178.525 249.14C179.788 252.75 199.034 273.097 200.308 275.003C201.252 276.365 202.31 277.644 203.471 278.826L208.757 279.039L214.256 273.736C212.356 269.148 210.169 264.684 207.706 260.373C203.683 253.378 199.458 246.809 199.458 246.809C199.458 246.809 219.117 224.533 220.593 219.242C221.463 215.955 221.319 212.48 220.179 209.276" fill="black"/>
<path d="M214.68 206.092C214.68 206.092 210.657 203.973 206.22 207.572C201.783 211.171 187.22 233.02 183.174 238.322C179.128 243.625 177.262 245.531 178.525 249.14C179.788 252.75 199.034 273.097 200.308 275.003C201.252 276.365 202.31 277.644 203.471 278.826L208.757 279.039L214.256 273.736C212.356 269.148 210.169 264.684 207.706 260.373C203.683 253.378 199.458 246.809 199.458 246.809C199.458 246.809 219.117 224.533 220.593 219.242C221.463 215.955 221.319 212.48 220.179 209.276" stroke="#263238" stroke-miterlimit="10"/>
<path d="M214.256 273.736L218.905 279.252C218.905 279.252 211.931 279.678 208.757 279.039L214.256 273.736Z" fill="white" stroke="#263238" stroke-miterlimit="10"/>
<path d="M221.654 279.039H227.366C227.366 279.039 230.115 293.242 229.266 299.397" stroke="#263238" stroke-linecap="round" stroke-linejoin="round"/>
<path d="M201.213 293.029C201.213 294.061 201.146 295.059 201.146 296" stroke="#263238" stroke-linecap="round" stroke-linejoin="round"/>
<path d="M202.42 279.678C202.42 279.678 201.694 284.756 201.302 290.485" stroke="#263238" stroke-linecap="round" stroke-linejoin="round"/>
<path d="M209.048 245.643C211.904 248.133 215.579 249.475 219.363 249.409" stroke="#263238" stroke-linecap="round" stroke-linejoin="round"/>
<path d="M213.73 251.92C216.958 252.634 220.322 252.416 223.431 251.293" stroke="#263238" stroke-linecap="round" stroke-linejoin="round"/>
<path d="M223.744 220.543C223.744 220.543 224.37 225.251 216.86 226.148" stroke="#263238" stroke-linecap="round" stroke-linejoin="round"/>
<path d="M215.921 227.773C215.921 227.773 219.989 229.656 222.493 228.715" stroke="#263238" stroke-linecap="round" stroke-linejoin="round"/>
<path d="M187.868 302.883C187.868 302.883 201.593 307.547 215.317 307.984" stroke="#263238" stroke-linecap="round" stroke-linejoin="round"/>
<path d="M220.626 307.95C220.626 307.95 228.818 307.513 233.691 306.627" stroke="#263238" stroke-linecap="round" stroke-linejoin="round"/>
<path d="M238.564 305.294C242.618 304.765 246.617 303.872 250.512 302.625" stroke="#263238" stroke-linecap="round" stroke-linejoin="round"/>
<path d="M199.458 246.831C199.096 245.731 198.512 244.718 197.743 243.854C196.974 242.99 196.036 242.294 194.988 241.809" stroke="#263238" stroke-linecap="round" stroke-linejoin="round"/>
<path d="M212.568 199.097C212.568 199.097 204.99 199.635 202.308 202.561C199.626 205.487 194.921 210.408 194.921 210.408" stroke="#263238" stroke-linecap="round" stroke-linejoin="round"/>
</svg>
