<svg width="1000" height="760" viewBox="0 0 1000 760" fill="none" xmlns="http://www.w3.org/2000/svg">
<path d="M660.799 478H705.123L846.933 574.233" stroke="#263238" stroke-miterlimit="10"/>
<path d="M706.181 478V83.7755" stroke="#263238" stroke-miterlimit="10"/>
<path d="M207.468 478H156.358L21.9175 565.157" stroke="#263238" stroke-miterlimit="10"/>
<path d="M156.358 478V83.7755" stroke="#263238" stroke-miterlimit="10"/>
<path d="M28.0122 434.671L66.7172 411.936V262.022L28.0122 281.385V434.671Z" stroke="#263238" stroke-miterlimit="10"/>
<path d="M64.9451 262.821L58.1809 265.803C53.0808 274.448 48.2616 288.3 44.9983 296.88C40.4558 308.702 34.7667 320.052 28.0122 330.766V338.178C36.4143 325.702 43.4016 312.329 48.845 298.306C55.5012 280.499 61.0984 268.073 64.9451 262.821Z" fill="#263238"/>
<path d="M45.5601 359.681C40.5464 359.681 36.4619 369.514 36.4619 381.638C36.4619 390.801 38.7959 398.645 42.0807 401.93V426.329L46.6838 423.325V403.443C51.1357 402.017 54.5934 392.832 54.5934 381.681C54.5934 379.93 54.5934 378.245 54.3341 376.602L66.6522 363.917V357.217L53.4048 370.854C51.8921 364.176 48.953 359.681 45.5601 359.681Z" fill="#263238"/>
<path d="M39.6172 346.801C35.4838 351.514 31.6097 356.449 28.0122 361.583V369.017C32.3061 362.069 37.2095 355.517 42.6644 349.437C53.4833 336.672 61.6591 321.885 66.7172 305.935V291.131C62.0709 310.668 53.902 330.398 39.6172 346.801Z" fill="#263238"/>
<path d="M94.249 397.219L133.321 371.74V106.705L94.249 111.805V397.219Z" stroke="#263238" stroke-miterlimit="10"/>
<path d="M125.779 140.223C128.504 140.197 131.148 139.295 133.321 137.651V132.032C132.448 133.236 131.318 134.23 130.014 134.944C128.71 135.657 127.263 136.073 125.779 136.16C124.994 136.159 124.214 136.036 123.467 135.793V107.915L119.404 108.433V133.308C115.514 129.59 112.921 122.718 112.921 115.003C112.915 113.068 113.089 111.136 113.439 109.233L105.962 110.206V165.443C105.197 165.262 104.414 165.167 103.628 165.162C101.854 165.235 100.114 165.672 98.5152 166.445C96.9167 167.218 95.4941 168.311 94.3354 169.657V176.14C97.3177 171.667 100.495 169.246 103.628 169.246C104.426 169.261 105.216 169.415 105.962 169.7V314.493C105.215 314.771 104.425 314.918 103.628 314.925C100.495 314.925 97.3177 312.505 94.3354 308.053V314.536C95.4941 315.882 96.9167 316.975 98.5152 317.748C100.114 318.521 101.854 318.958 103.628 319.031C104.414 319.025 105.197 318.931 105.962 318.75V338.2C100.408 338.74 96.2804 347.082 96.2804 358.038C96.2804 368.995 100.408 377.359 105.962 377.899V389.59L110.003 386.932V376.84C114.045 374.182 116.789 367.007 116.789 358.038C116.789 349.07 114.045 341.917 110.003 339.259V317.021C114.221 313.785 117.496 309.479 119.49 304.552V380.816L123.553 378.18V293.768C132.543 259.951 132.543 224.372 123.553 190.555V140.05C124.288 140.179 125.033 140.237 125.779 140.223ZM105.876 373.858C103.369 373.058 100.257 367.223 100.257 358.103C100.257 348.984 103.369 343.17 105.876 342.371V373.858ZM119.404 293.53C116.681 302.023 113.396 308.269 109.917 311.77V172.639C113.396 176.14 116.681 182.386 119.404 190.879V293.53ZM119.404 179.771C117.41 174.843 114.134 170.538 109.917 167.301V124.361C111.114 130.135 114.518 135.214 119.404 138.516V179.771Z" fill="#263238"/>
<path d="M764.833 307.08L726.128 281.839V105.257L764.833 110.314V307.08Z" stroke="#263238" stroke-miterlimit="10"/>
<path d="M761.375 303.687L764.833 305.827V295.734L761.375 303.687Z" fill="#263238"/>
<path d="M741.494 245.965L727.295 282.574L730.775 284.713L741.494 257.073V291.369L745.513 293.854V246.721L764.833 196.865V185.735L745.513 235.592V186.859L764.833 135.209V123.734L745.513 175.384V107.807L741.494 107.266V186.124L726.128 227.185V238.66L741.494 197.6V245.965Z" fill="#263238"/>
<path d="M740.391 154.313C740.391 167.582 737.668 178.344 734.297 178.344C730.925 178.344 728.202 167.539 728.202 154.313C728.202 141.087 730.925 130.304 734.297 130.304C737.668 130.304 740.391 141.066 740.391 154.313Z" fill="#263238"/>
<path d="M757.118 257.246C757.118 261.568 754.957 265.242 752.169 265.242C749.381 265.242 747.198 261.654 747.198 257.246C747.198 252.837 749.36 249.228 752.169 249.228C754.978 249.228 757.118 252.815 757.118 257.246Z" fill="#263238"/>
<path d="M28.0122 265.976L66.7172 247.564V115.371L28.0122 120.406V265.976Z" stroke="#263238" stroke-miterlimit="10"/>
<path d="M50.8116 186.254V117.445L46.792 117.964V195.957L66.7172 176.032V170.348L50.8116 186.254Z" fill="#263238"/>
<path d="M28.0122 169.462V175.427C36.3972 184.612 43.7017 197.513 40.1359 212.662C37.3764 223.608 33.3058 234.18 28.0122 244.149V252.794C35.1181 240.556 40.5134 227.402 44.0474 213.7C48.4993 194.682 38.1909 179.403 28.0122 169.462Z" fill="#263238"/>
<path d="M44.1116 237.472C44.0224 244.038 45.3492 250.547 48.0016 256.554L66.7166 247.65V207.951C65.2242 207.187 63.5742 206.78 61.8974 206.763C52.0644 206.763 44.1116 220.486 44.1116 237.472Z" fill="#263238"/>
<path d="M837.207 431.775L798.502 406.533V115.371L837.207 120.406V431.775Z" stroke="#263238" stroke-miterlimit="10"/>
<path d="M837.207 139.142C835.349 142.406 833.188 146.317 830.897 150.747L808.098 144.891V116.624L804.078 116.084V148.025L829.017 154.508C819.919 172.574 809.351 197.578 806.326 221.177C803.711 241.578 808.789 258.477 813.716 274.837C819.422 293.746 824.76 311.575 819.227 334.742L798.502 324.693V329.166L818.212 338.718C815.503 348.403 811.99 357.843 807.709 366.942L798.502 361.604V366.251L805.958 370.573C803.495 375.543 800.966 380.082 798.502 384.231V391.838C802.489 385.627 806.139 379.207 809.438 372.604L829.622 384.317C824.897 395.306 819.288 405.894 812.852 415.977L816.202 418.138C822.673 407.994 828.324 397.349 833.101 386.306L837.207 388.683V383.993L834.679 382.524C835.543 380.363 836.386 378.201 837.207 376.04V363.42C835.479 369.298 833.317 375.089 831.156 380.492L811.166 368.887C815.51 359.711 819.088 350.191 821.864 340.426L837.186 347.838V343.365L822.923 336.449C829.039 311.878 823.225 292.406 817.542 273.583C812.744 257.635 807.773 241.167 810.28 221.588C813.284 198.183 823.938 173.244 832.972 155.437L837.186 156.518V152.368L834.852 151.763L837.186 147.441L837.207 139.142Z" fill="#263238"/>
<path d="M831.157 269.196C833.21 274.578 835.306 280.131 837.229 285.945V273.886L834.895 267.727C827.98 249.574 821.929 233.906 827.007 217.395C829.504 209.457 832.928 201.841 837.208 194.704V186.946C831.19 196.015 826.462 205.878 823.161 216.25C817.758 234.1 824.241 251.151 831.157 269.196Z" fill="#263238"/>
<path d="M812.766 309.825C812.766 304.984 810.713 301.18 808.184 301.18C805.656 301.18 803.625 305.092 803.625 309.825C803.625 314.558 805.678 318.599 808.184 318.599C810.691 318.599 812.766 314.687 812.766 309.825Z" fill="#263238"/>
<path d="M207.468 29.77V699.187H651.895V13" fill="white"/>
<path d="M207.468 29.77V699.187H651.895V13" stroke="#263238" stroke-miterlimit="10"/>
<path d="M577.402 89.5672H271.825V551.542H577.402V89.5672Z" fill="white"/>
<path opacity="0.18" d="M577.402 89.5672H271.825V551.542H577.402V89.5672Z" fill="black"/>
<path d="M577.402 89.5672H452.448V551.542H577.402V89.5672Z" fill="#263238" stroke="#263238" stroke-miterlimit="10"/>
<path d="M577.402 249.768H271.825V391.341H577.402V249.768Z" fill="#263238"/>
<path d="M512.202 89.5672H500.986V551.542H512.202V89.5672Z" fill="#09BBB5"/>
<path d="M368.123 89.5672H356.906V551.542H368.123V89.5672Z" fill="#263238"/>
<path d="M291.599 542.897C291.521 542.897 291.443 542.879 291.372 542.846C291.301 542.812 291.239 542.763 291.188 542.703C290.684 542.251 290.287 541.693 290.025 541.069C289.763 540.445 289.644 539.77 289.676 539.094C289.684 539.023 289.706 538.954 289.741 538.891C289.775 538.829 289.822 538.774 289.879 538.73C289.935 538.685 290 538.653 290.069 538.634C290.138 538.615 290.21 538.61 290.281 538.619C290.42 538.635 290.548 538.705 290.637 538.814C290.725 538.923 290.768 539.062 290.756 539.202C290.744 539.734 290.85 540.262 291.066 540.748C291.283 541.234 291.605 541.665 292.01 542.012C292.109 542.112 292.164 542.248 292.164 542.39C292.164 542.531 292.109 542.667 292.01 542.768C291.894 542.862 291.747 542.908 291.599 542.897Z" fill="#263238"/>
<path d="M294.279 545.469H293.349C293.237 545.444 293.136 545.384 293.059 545.299C292.981 545.214 292.932 545.108 292.917 544.994C292.833 543.957 293.1 542.922 293.674 542.055C293.953 541.678 294.151 541.247 294.255 540.789C294.359 540.332 294.367 539.857 294.279 539.397C294.063 538.532 293.739 538.251 293.566 538.208C293.393 538.165 293.458 538.208 293.371 538.208C293.256 538.416 293.195 538.651 293.195 538.889C293.195 539.127 293.256 539.361 293.371 539.57C293.433 539.699 293.443 539.848 293.398 539.984C293.354 540.121 293.259 540.235 293.133 540.304C293.068 540.337 292.997 540.356 292.925 540.361C292.852 540.365 292.779 540.355 292.711 540.331C292.642 540.307 292.579 540.269 292.526 540.22C292.472 540.171 292.429 540.111 292.399 540.045C292.162 539.674 292.036 539.243 292.036 538.802C292.036 538.362 292.162 537.931 292.399 537.56C292.54 537.362 292.736 537.21 292.962 537.122C293.189 537.034 293.436 537.013 293.674 537.063C294.084 537.063 294.819 537.538 295.208 539.072C295.321 539.66 295.317 540.265 295.194 540.851C295.072 541.438 294.834 541.994 294.495 542.487C294.133 543.056 293.905 543.698 293.825 544.367C295.403 544.497 295.986 543.805 296.461 542.379C296.487 542.312 296.525 542.251 296.575 542.199C296.624 542.148 296.683 542.106 296.748 542.077C296.813 542.048 296.883 542.032 296.955 542.03C297.026 542.028 297.097 542.04 297.164 542.066C297.23 542.091 297.292 542.13 297.343 542.179C297.395 542.228 297.437 542.287 297.466 542.352C297.495 542.417 297.511 542.487 297.513 542.559C297.515 542.63 297.503 542.701 297.477 542.768C297.323 543.511 296.924 544.181 296.344 544.671C295.764 545.16 295.037 545.442 294.279 545.469Z" fill="#263238"/>
<path d="M298.039 542.833C297.761 542.841 297.485 542.788 297.231 542.676C296.976 542.563 296.75 542.395 296.569 542.184C296.074 541.288 295.814 540.28 295.814 539.256C295.814 538.232 296.074 537.224 296.569 536.328C296.63 536.235 296.722 536.166 296.829 536.133C296.871 536.058 296.93 535.994 297.001 535.945C297.073 535.896 297.154 535.865 297.239 535.852C298.089 535.745 298.948 535.948 299.659 536.425C300.37 536.901 300.885 537.619 301.108 538.446C301.384 539.178 301.38 539.987 301.097 540.717C300.814 541.447 300.271 542.046 299.573 542.401C299.101 542.659 298.577 542.807 298.039 542.833ZM297.175 537.819C296.951 538.408 296.852 539.037 296.886 539.666C296.919 540.295 297.084 540.91 297.369 541.471C297.715 541.86 298.32 541.839 299.163 541.471C299.617 541.219 299.966 540.812 300.145 540.324C300.323 539.835 300.32 539.299 300.135 538.813C300.008 538.296 299.716 537.834 299.302 537.499C298.889 537.163 298.377 536.972 297.844 536.955C297.834 537.062 297.834 537.171 297.844 537.279C297.863 537.419 297.826 537.561 297.741 537.674C297.656 537.787 297.53 537.862 297.391 537.884C297.318 537.904 297.241 537.896 297.175 537.862V537.819Z" fill="#263238"/>
<path d="M283.538 541.471C282.714 541.624 281.864 541.526 281.096 541.19C280.746 540.988 280.377 540.822 279.994 540.693C279.627 540.693 279.432 540.953 279.043 540.456L278.805 540.131C278.676 539.959 278.654 539.742 278.805 539.656C279.198 538.704 279.389 537.681 279.367 536.652C279.322 535.115 279.453 533.578 279.756 532.071C280.167 529.758 281.701 522.194 283.798 522.519C284.77 522.67 285.245 523.664 284.748 528.418C284.493 531.463 283.687 534.435 282.371 537.192C281.883 537.903 281.633 538.751 281.658 539.613H281.788C282.177 539.959 282.825 539.959 283.646 539.613C284.467 539.267 284.446 538.619 284.619 537.452C284.792 536.285 284.9 535.744 285.678 535.464C286.456 535.183 287.212 535.701 287.839 536.241L288.228 536.566C288.401 536.566 288.941 535.701 289.438 534.621C289.438 534.621 289.438 534.621 289.697 533.583C289.849 532.712 290.125 531.868 290.519 531.076L290.756 530.731C291.189 530.595 291.645 530.551 292.096 530.601C292.19 530.662 292.262 530.752 292.301 530.857C292.34 530.962 292.344 531.077 292.312 531.185C292.312 531.401 292.161 531.746 292.118 531.941C292.075 532.135 292.118 532.352 292.334 532.373L292.917 532.2C293.479 532.075 294 531.812 294.434 531.435C294.868 531.057 295.201 530.578 295.403 530.039C295.84 528.985 296.596 528.094 297.564 527.489L299.725 526.236C300.222 525.933 300.157 524.982 300.784 524.788C301.994 524.399 301.324 526.776 300.978 527.187C300.233 527.872 299.387 528.44 298.471 528.872C297.766 529.327 297.221 529.992 296.915 530.774C296.623 531.522 296.154 532.188 295.548 532.715C294.942 533.241 294.217 533.614 293.436 533.799L293.09 533.908C292.514 533.78 291.916 533.78 291.34 533.908C290.908 535.744 290.475 537.646 289.179 538.1C288.793 538.177 288.394 538.159 288.017 538.046C287.64 537.933 287.297 537.729 287.018 537.452L286.801 537.257C286.65 537.149 286.477 537.257 286.434 537.495V537.862C286.428 538.535 286.243 539.195 285.897 539.772C285.551 540.349 285.058 540.824 284.467 541.147L283.538 541.471ZM283.257 526.733C283.257 525.825 282.955 525.998 282.544 527.122C281.996 528.83 281.585 530.579 281.312 532.352C280.988 534.145 280.967 534.383 280.967 534.383C280.967 535.572 281.247 535.658 281.68 534.534C282.42 532.507 282.9 530.394 283.106 528.245L283.257 526.733Z" fill="#263238"/>
<path d="M440.173 89.5672H428.957V551.542H440.173V89.5672Z" fill="#263238"/>
<path d="M514.644 310.56C509.328 297.29 490.743 281.363 474.816 273.389C458.888 265.414 437.645 277.387 437.645 277.387C441.274 272.478 443.854 266.875 445.226 260.927C446.598 254.979 446.732 248.812 445.619 242.81C441.621 222.906 431.01 222.906 425.694 214.932C420.378 206.957 417.741 199.004 407.109 185.735C396.476 172.466 384.547 181.737 372.532 180.419C360.516 179.101 345.972 168.468 330.045 168.468C314.117 168.468 302.167 183.077 302.167 183.077C302.167 183.077 295.532 185.735 287.558 189.712C279.583 193.688 284.9 207 296.85 217.59C308.801 228.179 310.119 234.878 315.436 230.859C320.752 226.839 315.436 220.248 303.485 210.955C291.534 201.663 312.778 204.321 322.07 204.321C331.363 204.321 352.606 238.898 355.264 246.808C357.923 254.717 373.85 278.662 384.482 321.149C395.115 363.636 396.433 415.415 397.751 460.539C398.875 498.919 407.671 540.153 410.286 551.65H422.107C420.94 543.006 418.563 528.742 415.018 521.611C409.702 511 413.679 491.075 415.018 467.173C416.358 443.272 426.969 431.342 430.946 406.123C434.922 380.903 432.264 367.612 449.531 335.758C466.798 303.903 478.9 306.626 501.375 310.56C511.079 312.288 515.855 314.882 517.756 316.438C516.464 314.624 515.418 312.648 514.644 310.56Z" fill="#09BBB5"/>
<path d="M373.547 551.693H385.974C386.406 526.538 387.465 442.645 381.846 431.386C375.211 418.095 356.626 414.097 348.652 406.166L332.725 390.217C332.725 390.217 338.041 418.095 348.652 428.728C359.263 439.36 360.603 448.631 360.603 453.947C360.603 459.264 372.597 475.191 375.168 493.776C377.156 507.175 374.931 536.393 373.547 551.693Z" fill="#09BBB5"/>
<path d="M322.135 204.364C322.135 204.364 338.386 204.364 343.357 214.413C348.327 224.462 354.551 240.54 370.738 244.258C386.924 247.975 403.154 260.444 404.321 265.415C405.488 270.385 411.777 262.929 420.486 264.161C429.195 265.393 430.449 279.094 439.158 267.9C447.867 256.705 442.896 241.794 435.419 233.15C427.942 224.505 406.806 204.537 403.003 197.081C399.199 189.625 386.838 185.887 375.643 188.437C364.449 190.987 359.479 180.981 339.575 180.981C319.671 180.981 302.167 189.323 322.135 204.364Z" fill="#263238"/>
<path d="M437.839 280.412C437.839 280.412 433.798 313.499 434.663 320.565C435.527 327.632 446.721 296.491 456.684 289.057C472.265 277.409 502.693 297.355 502.693 297.355C502.693 297.355 480.65 271.919 464.766 271.919C450.806 271.919 447.715 273.411 437.839 280.412Z" fill="#263238"/>
<path d="M363.477 452.953C363.477 452.953 375.514 440.354 374.952 432.315C374.39 424.276 360.04 418.57 352.585 414.551C345.129 410.531 337.111 400.223 337.111 400.223C337.111 400.223 340.591 416.842 348.587 423.714C356.583 430.586 360.624 431.17 361.769 436.918C362.915 442.667 361.186 453.58 363.477 452.953Z" fill="#263238"/>
<path d="M577.402 89.5672H271.825V551.542H577.402V89.5672Z" stroke="#263238" stroke-width="2" stroke-miterlimit="10"/>
<path d="M121.284 492.588C124.764 494.1 133.257 493.928 133.278 493.928C133.3 493.928 131.442 488.352 131.29 488.006C129.41 484.116 123.51 477.655 118.713 478.303C117.917 478.431 117.157 478.726 116.482 479.169C115.808 479.611 115.235 480.191 114.8 480.871C114.366 481.55 114.08 482.314 113.961 483.111C113.842 483.909 113.892 484.723 114.11 485.499C114.909 488.827 118.324 491.291 121.284 492.588Z" fill="#263238"/>
<path d="M207.338 494.468C207.338 494.468 208.894 488.806 208.938 488.438C209.543 484.116 208.181 475.472 203.816 473.311C203.081 472.983 202.286 472.814 201.482 472.813C200.677 472.812 199.882 472.98 199.147 473.306C198.411 473.632 197.753 474.108 197.213 474.705C196.674 475.301 196.265 476.004 196.014 476.768C194.826 479.988 196.317 483.943 198.175 486.645C200.12 489.929 207.338 494.468 207.338 494.468Z" fill="#263238"/>
<path d="M232.753 463.629C227.934 463.11 222.207 469.723 220.435 473.678C220.283 474.002 218.511 479.621 218.598 479.621C217.69 480.658 216.718 481.782 215.702 483.036C213.8 485.348 211.704 487.984 209.586 491.01C207.288 494.241 205.181 497.603 203.276 501.081C201.115 504.959 199.307 509.024 197.873 513.226C197.873 513.226 197.873 513.226 197.873 513.377C197.873 511.972 197.873 507.996 197.873 507.694C197.333 503.371 193.724 495.419 188.969 494.533C188.172 494.411 187.359 494.457 186.581 494.669C185.803 494.881 185.079 495.253 184.454 495.762C183.828 496.271 183.317 496.905 182.952 497.624C182.587 498.343 182.377 499.13 182.335 499.935C182.054 503.35 184.496 506.764 186.938 508.925C189.661 511.346 197.225 513.701 197.743 513.874C196.393 518.193 195.332 522.597 194.567 527.057C194.091 529.65 193.724 532.265 193.356 534.902C193.356 533.691 193.356 532.589 193.356 532.438C192.816 528.116 189.207 520.163 184.431 519.299C183.637 519.173 182.825 519.216 182.048 519.426C181.271 519.635 180.548 520.006 179.924 520.513C179.3 521.021 178.79 521.654 178.427 522.372C178.064 523.09 177.857 523.876 177.818 524.68C177.537 528.094 179.979 531.509 182.421 533.67C184.863 535.831 191.282 537.992 192.967 538.532C192.838 539.548 192.708 540.542 192.6 541.558C192.016 546.42 191.455 551.283 190.763 556.037C190.504 557.701 190.201 559.343 189.92 560.986C189.92 559.905 189.92 558.976 189.92 558.825C189.358 554.503 185.771 546.55 180.995 545.685C180.2 545.56 179.388 545.603 178.612 545.813C177.835 546.022 177.111 546.392 176.488 546.9C175.864 547.408 175.354 548.041 174.991 548.759C174.628 549.477 174.421 550.263 174.382 551.066C174.101 554.481 176.543 557.895 178.985 560.057C182.133 562.163 185.588 563.766 189.229 564.811C188.861 566.475 188.516 568.161 188.105 569.76C187.781 570.84 187.565 571.921 187.197 573.001L186.16 576.178C185.447 578.188 184.69 580.263 183.999 582.186C183.48 583.548 182.962 584.823 182.443 586.098C182.702 584.434 183.156 581.17 183.156 580.889C183.1 577.092 182.073 573.372 180.174 570.084C180.227 569.661 180.227 569.232 180.174 568.809C180.077 568.01 179.813 567.24 179.397 566.55C178.982 565.86 178.425 565.266 177.764 564.807C177.102 564.347 176.351 564.033 175.56 563.885C174.768 563.737 173.955 563.758 173.172 563.947C168.482 565.2 165.522 573.412 165.284 577.734C165.284 577.994 165.435 580.781 165.586 582.532C165.349 581.516 165.133 580.522 164.873 579.485C164.376 577.324 163.836 575.357 163.252 573.131L162.28 569.933C161.977 568.852 161.524 567.772 161.135 566.648C160.205 564.119 159.146 561.591 158.023 559.084C159.838 558.652 166.256 556.923 168.828 555.043C171.4 553.163 174.123 549.856 174.101 546.399C174.122 545.593 173.973 544.792 173.664 544.048C173.355 543.304 172.894 542.633 172.309 542.078C171.724 541.524 171.029 541.099 170.269 540.831C169.51 540.562 168.702 540.456 167.899 540.52C163.08 541.061 158.887 548.732 158.023 552.968C158.023 553.228 157.677 556.339 157.547 558.068C156.877 556.556 156.186 555.043 155.386 553.552C153.225 549.078 150.783 544.648 148.427 540.196L150.351 535.571C152.961 534.912 155.453 533.855 157.742 532.438C160.313 530.471 163.036 527.251 163.015 523.794C163.032 522.99 162.881 522.191 162.571 521.45C162.261 520.708 161.799 520.04 161.214 519.488C160.63 518.936 159.936 518.513 159.178 518.246C158.42 517.979 157.614 517.873 156.812 517.937C151.993 518.456 147.801 526.128 146.936 530.363C146.936 530.687 146.461 535.161 146.418 536.306C144.905 533.389 143.414 530.471 142.095 527.511C140.24 523.554 138.659 519.474 137.363 515.301C137.665 515.301 145.661 513.42 148.622 511.151C151.194 509.185 153.917 505.965 153.895 502.507C153.916 501.701 153.767 500.901 153.458 500.156C153.149 499.412 152.688 498.741 152.103 498.187C151.518 497.633 150.823 497.207 150.063 496.939C149.304 496.671 148.496 496.565 147.693 496.629C142.873 497.169 138.681 504.841 137.817 509.077C137.817 509.358 137.449 512.772 137.341 514.393H137.06C135.854 510.153 135.029 505.813 134.596 501.426C134.316 499.028 134.207 496.715 134.121 494.446C135.655 494.273 142.636 493.344 145.51 491.593C148.384 489.843 151.345 487.012 151.691 483.619C151.793 482.824 151.729 482.017 151.502 481.249C151.274 480.481 150.889 479.769 150.37 479.158C149.851 478.548 149.21 478.052 148.489 477.704C147.767 477.356 146.981 477.162 146.18 477.136C141.317 477.136 136.325 484.311 134.985 488.417C134.985 488.654 134.424 491.01 134.099 492.739C134.099 491.723 134.099 490.686 134.099 489.692C134.099 486.039 134.337 482.668 134.575 479.707C134.705 478.022 134.877 476.487 135.05 475.061C136.455 474.11 142.052 470.155 143.695 467.324C145.337 464.493 146.742 460.582 145.488 457.384C145.219 456.625 144.793 455.932 144.239 455.349C143.684 454.767 143.012 454.308 142.268 454.002C141.524 453.696 140.724 453.55 139.919 453.574C139.115 453.599 138.325 453.792 137.6 454.142C133.278 456.303 132.154 464.947 132.868 469.269C132.868 469.637 134.553 475.299 134.64 475.256C134.467 476.617 134.272 478.087 134.099 479.707C133.797 482.668 133.494 486.039 133.408 489.713C133.281 493.677 133.375 497.646 133.689 501.599C134.03 506.026 134.753 510.415 135.85 514.717V514.868C135.072 513.68 132.824 510.395 132.63 510.157C129.799 506.894 122.408 502.226 117.935 504.128C117.203 504.463 116.55 504.949 116.019 505.553C115.487 506.158 115.089 506.868 114.851 507.637C114.612 508.405 114.538 509.216 114.634 510.015C114.73 510.814 114.993 511.584 115.406 512.275C117.049 515.279 121.003 516.748 124.202 517.224C127.811 517.743 135.396 515.538 136.001 515.365C137.244 519.715 138.782 523.975 140.604 528.116C141.642 530.536 142.765 532.935 143.932 535.334C143.241 534.318 142.614 533.41 142.506 533.281C139.675 530.018 132.284 525.35 127.832 527.251C127.099 527.585 126.444 528.069 125.91 528.673C125.376 529.276 124.976 529.986 124.735 530.755C124.495 531.524 124.419 532.335 124.513 533.135C124.608 533.935 124.87 534.707 125.282 535.399C126.925 538.402 130.879 539.894 134.078 540.347C137.276 540.801 143.846 539.072 145.553 538.597L146.915 541.342C149.076 545.664 151.237 549.986 153.398 554.416C154.133 555.95 154.781 557.485 155.429 559.019C154.824 558.112 154.284 557.355 154.198 557.247C151.366 553.984 143.976 549.316 139.502 551.218C138.77 551.553 138.118 552.039 137.586 552.643C137.055 553.248 136.657 553.958 136.418 554.727C136.18 555.495 136.106 556.306 136.201 557.105C136.297 557.904 136.56 558.674 136.974 559.365C138.616 562.369 142.571 563.838 145.769 564.314C149.552 564.343 153.315 563.774 156.92 562.628C157.547 564.227 158.196 565.805 158.714 567.383C159.06 568.463 159.471 569.544 159.751 570.581L160.659 573.801C161.156 575.962 161.675 578.015 162.107 580.047C162.41 581.451 162.691 582.813 162.972 584.174C162.28 582.64 160.81 579.658 160.681 579.441C158.39 575.768 151.777 570.041 147.088 571.229C146.313 571.45 145.593 571.831 144.975 572.347C144.357 572.864 143.854 573.505 143.5 574.228C143.145 574.952 142.946 575.741 142.917 576.546C142.887 577.351 143.027 578.154 143.327 578.901C144.516 582.121 148.19 584.196 151.28 585.125C154.37 586.054 162.215 585.125 163.166 585.125C163.62 587.286 164.03 589.555 164.398 591.608C165.673 598.805 166.559 604.834 166.926 609.07C166.926 609.826 167.099 610.496 167.164 611.123H152.577L156.445 686.566L156.942 696.442C156.981 697.123 157.277 697.763 157.771 698.233C158.264 698.703 158.919 698.967 159.6 698.971H181.06C181.743 698.972 182.4 698.71 182.895 698.239C183.39 697.768 183.685 697.125 183.718 696.442L188.04 611.123H174.447C174.555 610.928 174.641 610.734 174.749 610.496C176.63 606.628 179.201 601.031 181.989 594.202C182.897 592.041 183.783 589.728 184.69 587.329C185.62 587.524 193.075 589.037 196.555 588.259C199.71 587.546 203.535 585.752 204.94 582.64C205.299 581.917 205.501 581.127 205.533 580.321C205.565 579.516 205.427 578.712 205.127 577.963C204.827 577.214 204.372 576.537 203.793 575.977C203.213 575.416 202.521 574.984 201.763 574.709C197.181 573.153 190.158 578.382 187.586 581.862C187.435 582.078 186.052 584.477 185.187 586.011C185.555 585.039 185.922 584.088 186.29 583.072C187.024 581.084 187.694 579.074 188.451 576.891C188.753 575.832 189.077 574.73 189.402 573.693C189.726 572.656 189.963 571.532 190.266 570.322C190.893 567.707 191.39 565.027 191.844 562.304C193.594 562.931 199.861 565.113 203.103 564.876C206.344 564.638 210.364 563.471 212.223 560.554C212.687 559.895 213.007 559.145 213.162 558.354C213.317 557.563 213.304 556.749 213.122 555.963C212.941 555.178 212.595 554.44 212.109 553.797C211.622 553.154 211.006 552.621 210.299 552.233C205.977 550.072 198.262 554.114 195.172 557.161C194.999 557.355 193.011 559.797 191.995 561.159C192.233 559.516 192.514 557.895 192.708 556.231C193.335 551.283 193.789 546.269 194.286 541.255L198.435 538.467C200.974 539.352 203.635 539.84 206.323 539.915C209.564 539.699 213.606 538.511 215.464 535.593C215.928 534.936 216.248 534.188 216.403 533.399C216.558 532.61 216.544 531.796 216.363 531.013C216.181 530.229 215.836 529.493 215.349 528.852C214.863 528.211 214.247 527.68 213.541 527.294C209.219 525.133 201.504 529.153 198.413 532.222C198.197 532.438 195.388 535.96 194.718 536.89C195.064 533.605 195.431 530.407 195.928 527.143C196.585 522.824 197.517 518.551 198.716 514.35C199.018 514.458 206.712 517.354 210.429 517.094C213.649 516.878 217.69 515.69 219.549 512.772C220.013 512.113 220.333 511.364 220.488 510.573C220.643 509.782 220.63 508.967 220.448 508.182C220.267 507.396 219.921 506.658 219.435 506.015C218.948 505.373 218.332 504.84 217.625 504.452C213.303 502.291 205.588 506.332 202.498 509.379C202.303 509.595 200.164 512.253 199.17 513.55L198.932 513.42C200.258 509.228 201.958 505.163 204.01 501.275C205.113 499.114 206.172 497.104 207.468 495.202C208.851 495.872 215.183 498.963 218.555 499.092C221.926 499.222 225.924 498.487 228.107 495.829C228.638 495.224 229.036 494.514 229.275 493.745C229.513 492.977 229.587 492.166 229.491 491.366C229.395 490.567 229.132 489.797 228.719 489.106C228.305 488.415 227.75 487.82 227.091 487.358C223.071 484.678 214.946 487.898 211.553 490.599C211.358 490.751 209.651 492.436 208.441 493.69C208.981 492.847 209.543 491.939 210.083 491.14C212.093 488.071 214.146 485.413 215.983 483.057C217.02 481.717 218.014 480.55 218.944 479.448C220.629 479.448 227.588 479.21 230.505 477.806C233.423 476.401 236.772 473.873 237.486 470.523C237.651 469.758 237.658 468.967 237.507 468.198C237.356 467.43 237.049 466.701 236.606 466.055C236.163 465.41 235.592 464.862 234.93 464.444C234.267 464.027 233.527 463.75 232.753 463.629ZM179.374 593.121C176.457 599.82 173.777 605.31 171.854 609.113L170.795 611.166H170.47C170.384 610.431 170.276 609.61 170.146 608.703C169.563 604.38 168.634 598.351 167.186 591.111C166.753 588.821 166.213 586.379 165.651 583.893C167.916 582.974 170.131 581.935 172.286 580.781C175.205 583.29 178.455 585.384 181.946 587.005C181.081 589.123 180.217 591.198 179.374 593.121Z" fill="#263238"/>
<path d="M644.612 760C682.22 760 712.708 749.115 712.708 735.688C712.708 722.261 682.22 711.376 644.612 711.376C607.004 711.376 576.516 722.261 576.516 735.688C576.516 749.115 607.004 760 644.612 760Z" fill="#09BBB5"/>
<path opacity="0.5" d="M644.612 760C682.22 760 712.708 749.115 712.708 735.688C712.708 722.261 682.22 711.376 644.612 711.376C607.004 711.376 576.516 722.261 576.516 735.688C576.516 749.115 607.004 760 644.612 760Z" fill="white"/>
<path d="M615.048 273.108C614.462 277.559 613.201 281.895 611.309 285.966C608.651 290.656 605.95 291.456 607.895 292.601C609.84 293.746 611.417 294.503 611.417 294.503C612.087 299.076 613.047 303.602 614.292 308.053C615.912 313.066 615.545 315.4 620.191 315.336C624.838 315.271 630.24 311.338 630.24 311.338C630.24 311.338 632.099 303.947 630.737 288.452C630.625 284.358 628.926 280.468 625.998 277.605C623.07 274.741 619.143 273.129 615.048 273.108Z" fill="white" stroke="#263238" stroke-miterlimit="10" stroke-linecap="round"/>
<path d="M638.345 566.994C636.666 583.326 635.945 599.742 636.184 616.158C636.529 644.771 632.229 690.716 621.532 699.468C617.015 703.185 616.734 705.476 614.616 707.659C612.498 709.841 601.65 711.592 601.758 715.914C601.866 720.236 602.492 721.835 605.756 723.953C609.019 726.071 620.235 727.562 624.017 727.519C627.799 727.476 631.473 717.708 637.869 712.24C644.266 706.773 652.997 703.877 653.926 699.641C655.461 693.158 651.765 687.042 649.95 682.936C646.06 673.816 661.49 655.274 665.077 646.586C668.665 637.899 667.995 619.551 666.288 612.009C664.58 604.467 676.531 564.897 676.531 564.897L638.345 566.994Z" fill="white" stroke="#263238" stroke-miterlimit="10" stroke-linecap="round"/>
<path d="M601.801 715.914C601.801 720.236 602.536 721.835 605.799 723.953C609.062 726.071 620.278 727.562 624.06 727.519C627.842 727.476 631.516 717.708 637.913 712.24C644.309 706.773 653.04 703.877 653.969 699.641C655.504 693.158 651.808 687.042 649.993 682.936C649.781 682.438 649.636 681.915 649.561 681.38C643.115 681.802 636.644 681.189 630.392 679.565C630.032 681.149 629.643 682.662 629.225 684.103C636.184 687.409 646.254 685.68 646.254 685.68C644.093 694.325 633.007 707.983 625.465 708.609C617.923 709.236 614.659 707.659 614.659 707.659C612.52 709.841 601.736 711.592 601.801 715.914Z" fill="#263238" stroke="#263238" stroke-miterlimit="10" stroke-linecap="round"/>
<path d="M645.714 701.413L648.005 729.313L650.447 729.291L652.046 699.468L645.714 701.413Z" fill="#263238" stroke="#263238" stroke-miterlimit="10" stroke-linecap="round"/>
<path d="M638.345 566.994C636.666 583.326 635.945 599.742 636.184 616.158C636.437 636.023 634.779 655.867 631.235 675.415C636.851 678.185 643.095 679.437 649.345 679.046C649.799 669.256 661.965 654.172 665.164 646.629C668.838 637.985 668.081 619.594 666.374 612.052C664.667 604.51 676.618 564.941 676.618 564.941L638.345 566.994Z" fill="#09BBB5"/>
<path opacity="0.2" d="M638.345 566.994C636.666 583.326 635.945 599.742 636.184 616.158C636.437 636.023 634.779 655.867 631.235 675.415C636.851 678.185 643.095 679.437 649.345 679.046C649.799 669.256 661.965 654.172 665.164 646.629C668.838 637.985 668.081 619.594 666.374 612.052C664.667 604.51 676.618 564.941 676.618 564.941L638.345 566.994Z" fill="black"/>
<path d="M638.345 566.994C636.666 583.326 635.945 599.742 636.184 616.158C636.437 636.023 634.779 655.867 631.235 675.415C636.851 678.185 643.095 679.437 649.345 679.046C649.799 669.256 661.965 654.172 665.164 646.629C668.838 637.985 668.081 619.594 666.374 612.052C664.667 604.51 676.618 564.941 676.618 564.941L638.345 566.994Z" stroke="#263238" stroke-miterlimit="10" stroke-linecap="round"/>
<path d="M624.319 568.247C624.319 568.247 629.052 601.657 634.044 612.938C639.036 624.219 647.724 674.335 645.757 689.462C645.757 689.462 637.329 708.458 635.773 713.883C634.323 718.317 632.576 722.649 630.543 726.849C630.543 726.849 618.139 729.14 618.268 738.324C618.398 750.751 641.543 745.067 641.543 745.067C644.544 744.878 647.349 743.511 649.348 741.266C651.347 739.02 652.379 736.075 652.219 733.073C652.219 729.291 656.325 716.822 661.166 714.055C666.007 711.289 670.307 710.706 670.761 704.763C671.215 698.82 665.207 691.342 665.207 691.342C665.307 679.808 666.987 668.341 670.199 657.262C675.407 640.47 670.199 619.465 666.417 611.879C662.635 604.294 659.264 600.08 659.178 592.43C659.091 584.779 662.679 568.658 662.679 568.658C662.679 568.658 631.343 568.701 624.319 568.247Z" fill="white" stroke="#263238" stroke-miterlimit="10" stroke-linecap="round"/>
<path d="M659.177 592.667C659.177 585.103 662.678 568.895 662.678 568.895C662.678 568.895 631.343 568.723 624.319 568.269C624.319 568.269 629.052 601.679 634.044 612.96C638.604 623.247 646.211 665.82 646.038 684.708C649.28 686.329 656.065 688.382 665.488 684.6C666.036 675.365 667.631 666.223 670.242 657.349C675.45 640.557 670.242 619.551 666.46 611.966C662.678 604.38 659.264 600.231 659.177 592.667Z" fill="#09BBB5"/>
<path opacity="0.2" d="M659.739 585.406C660.733 577.734 662.678 568.917 662.678 568.917C662.678 568.917 631.343 568.744 624.319 568.29C624.319 568.29 625.616 577.324 627.539 587.589C634.044 589.728 644.698 590.852 659.739 585.406Z" fill="black"/>
<path d="M659.177 592.667C659.177 585.103 662.678 568.895 662.678 568.895C662.678 568.895 631.343 568.723 624.319 568.269C624.319 568.269 629.052 601.679 634.044 612.96C638.604 623.247 646.211 665.82 646.038 684.708C649.28 686.329 656.065 688.382 665.488 684.6C666.036 675.365 667.631 666.223 670.242 657.349C675.45 640.557 670.242 619.551 666.46 611.966C662.678 604.38 659.264 600.231 659.177 592.667Z" stroke="#263238" stroke-miterlimit="10" stroke-linecap="round"/>
<path d="M662.743 710.857L665.293 743.208L667.995 743.165L669.724 708.631L662.743 710.857Z" fill="#263238" stroke="#263238" stroke-miterlimit="10" stroke-linecap="round"/>
<path d="M665.229 689.894C651.916 694.217 645.779 689.462 645.779 689.462L645.282 690.586C644.806 691.645 644.072 693.352 643.121 695.448L656.087 698.517C656.087 698.517 644.007 725.66 640.246 727.865C636.486 730.069 630.522 726.914 630.522 726.914C630.522 726.914 618.117 729.205 618.247 738.389C618.376 750.815 641.521 745.132 641.521 745.132C644.524 744.937 647.329 743.566 649.327 741.317C651.326 739.067 652.357 736.121 652.197 733.116C652.197 729.356 656.303 716.886 661.144 714.12C665.985 711.354 670.285 710.77 670.739 704.827C671.193 698.885 665.185 691.407 665.185 691.407C665.185 691.407 665.207 690.845 665.229 689.894Z" fill="#263238" stroke="#263238" stroke-miterlimit="10" stroke-linecap="round"/>
<path d="M617.49 344.035C617.49 344.035 603.616 375.651 603.746 385.744C603.875 395.836 612.023 433.72 612.066 437.891C612.109 442.061 600.202 538.338 597.976 550.267C595.75 562.196 594.042 568.701 594.042 568.701C594.042 568.701 620.3 579.679 642.84 578.815C665.38 577.95 695.549 568.679 695.549 568.679L692.48 560.402C699.505 559.355 705.958 555.93 710.763 550.699L683.511 454.855C683.511 454.855 678.541 437.696 679.578 424.038C680.615 410.38 691.464 375.219 686.407 350.367C681.35 325.514 658.81 324.563 645.174 327.113C631.537 329.663 620.948 335.088 617.49 344.035Z" fill="#263238" stroke="#263238" stroke-miterlimit="10" stroke-linecap="round"/>
<path d="M626.653 236.499C626.653 236.499 619.392 245.144 612.433 248.688C605.475 252.232 607.074 254.587 611.915 270.039C616.756 285.491 623.865 295.972 625.551 306.367C627.237 316.762 621.229 335.131 612.433 346.477C603.638 357.822 590.39 352.182 593.956 357.563C597.522 362.944 604.891 364.046 611.807 358.903C618.722 353.76 626.199 328.475 638.215 327.546C650.231 326.616 658.702 344.186 661.555 356.569C664.407 368.952 654.899 404.437 670.199 411.374C687.963 419.413 701.989 401.584 706.311 381.551C710.979 359.94 693.344 340.491 689.022 324.996C684.7 309.501 686.731 296.318 687.985 271.077C689.238 245.835 672.447 235.959 658.4 230.988C644.353 226.018 631.667 233.322 626.653 236.499Z" fill="#09BBB5"/>
<g opacity="0.2">
<path d="M638.215 327.546C646.751 326.897 653.494 335.585 657.665 345.115C660.28 333.597 666.547 323.504 675.537 324.131C682.949 324.607 690.47 331.954 696.024 340.815C693.181 335.776 690.822 330.48 688.979 324.996C684.894 310.84 686.364 298.544 687.617 277.214C685.11 283.913 680.464 292.104 671.971 296.815C655.957 305.719 638.15 276.047 638.15 276.047C638.15 276.047 649.431 300.381 652.392 310.473C655.352 320.565 632.207 281.385 635.773 295.043C638.647 306.043 639.965 317.41 637.588 327.632L638.215 327.546Z" fill="black"/>
<path d="M704.668 362.814C706.376 376.429 690.168 400.85 661.274 390.563C661.62 400.093 663.608 408.478 670.264 411.482C688.028 419.521 702.054 401.692 706.376 381.659C708.429 372.086 706.16 362.944 702.594 354.408C703.573 357.131 704.268 359.948 704.668 362.814Z" fill="black"/>
</g>
<path d="M626.653 236.499C626.653 236.499 619.392 245.144 612.433 248.688C605.475 252.232 607.074 254.587 611.915 270.039C616.756 285.491 623.865 295.972 625.551 306.367C627.237 316.762 621.229 335.131 612.433 346.477C603.638 357.822 590.39 352.182 593.956 357.563C597.522 362.944 604.891 364.046 611.807 358.903C618.722 353.76 626.199 328.475 638.215 327.546C650.231 326.616 658.702 344.186 661.555 356.569C664.407 368.952 654.899 404.437 670.199 411.374C687.963 419.413 701.989 401.584 706.311 381.551C710.979 359.94 693.344 340.491 689.022 324.996C684.7 309.501 686.731 296.318 687.985 271.077C689.238 245.835 672.447 235.959 658.4 230.988C644.353 226.018 631.667 233.322 626.653 236.499Z" stroke="#263238" stroke-miterlimit="10" stroke-linecap="round"/>
<path d="M622.18 247.953C622.18 247.953 619.176 261.308 634.044 285.21C648.912 309.112 677.266 348.119 677.568 372.842C677.871 397.565 670.891 398.278 670.891 398.278" stroke="#263238" stroke-width="0.75" stroke-miterlimit="10" stroke-linecap="round"/>
<path d="M640.981 235.051C640.981 235.051 627.366 263.145 642.213 285.75C657.059 308.355 692.306 337.789 695.202 369.449C698.098 401.109 687.444 408.867 682.409 412.087" stroke="#263238" stroke-width="0.75" stroke-miterlimit="10" stroke-linecap="round"/>
<path d="M663.651 269.024C663.651 269.024 660.085 289.338 674.456 317.086" stroke="#263238" stroke-width="0.75" stroke-miterlimit="10" stroke-linecap="round"/>
<path d="M666.46 239.806C666.46 239.806 683.749 247.218 680.788 270.709C677.828 294.2 677.439 309.436 682.625 318.88" stroke="#263238" stroke-width="0.75" stroke-miterlimit="10" stroke-linecap="round"/>
<path d="M624.016 296.123C624.016 296.123 631.126 307.448 631.256 317.583C631.386 327.719 623.217 334.872 623.217 334.872" stroke="#263238" stroke-width="0.75" stroke-miterlimit="10" stroke-linecap="round"/>
<path d="M697.58 441.024C697.429 428.058 690.254 423.887 680.075 416.301C669.897 408.716 666.633 379.822 663.5 365.019C660.366 350.215 654.121 329.944 645.174 327.092C636.227 324.239 628.642 333.229 628.642 333.229C607.766 375.025 613.06 471.711 614.335 478.216C615.61 484.721 619.198 487.055 637.545 483.878C655.893 480.702 682.582 478 693.215 472.533C703.847 467.065 697.731 454.077 697.58 441.024ZM658.681 410.034C650.404 413.686 626.264 421.682 626.264 421.682L617.361 421.79C617.361 421.79 617.944 372.518 621.921 356.958C625.897 341.398 631.127 332.516 643.056 336.514C654.985 340.512 657.557 358.319 660.128 374.311C662.7 390.303 666.914 406.36 658.637 410.034H658.681Z" fill="white"/>
<path opacity="0.2" d="M682.841 418.333C684.077 419.867 685.421 421.311 686.861 422.655C692.804 427.993 691.01 441.046 691.01 448.761C691.01 456.476 683.9 464.191 666.093 468.945C648.286 473.7 629.354 475.429 628.101 473.7C626.848 471.971 640.7 429.268 643.596 415.718C634.952 418.808 626.134 421.682 626.134 421.682L617.231 421.79C617.231 421.79 617.382 408.327 618.117 393.264C616.971 395.252 615.632 397.932 614.162 401.195C611.396 438.431 613.579 474.326 614.335 478.216C615.61 484.7 619.197 487.055 637.545 483.878C655.893 480.702 682.582 478 693.215 472.533C703.847 467.065 697.731 454.077 697.537 441.024C697.45 429.181 691.529 424.73 682.841 418.333Z" fill="black"/>
<path d="M697.58 441.024C697.429 428.058 690.254 423.887 680.075 416.301C669.897 408.716 666.633 379.822 663.5 365.019C660.366 350.215 654.121 329.944 645.174 327.092C636.227 324.239 628.642 333.229 628.642 333.229C607.766 375.025 613.06 471.711 614.335 478.216C615.61 484.721 619.198 487.055 637.545 483.878C655.893 480.702 682.582 478 693.215 472.533C703.847 467.065 697.731 454.077 697.58 441.024ZM658.681 410.034C650.404 413.686 626.264 421.682 626.264 421.682L617.361 421.79C617.361 421.79 617.944 372.518 621.921 356.958C625.897 341.398 631.127 332.516 643.056 336.514C654.985 340.512 657.557 358.319 660.128 374.311C662.7 390.303 666.914 406.36 658.637 410.034H658.681Z" stroke="#263238" stroke-miterlimit="10" stroke-linecap="round"/>
<path d="M684.786 425.162C684.786 425.162 653.624 438.128 624.146 441.975L684.786 425.162Z" fill="white"/>
<path d="M684.786 425.162C684.786 425.162 653.624 438.128 624.146 441.975" stroke="#263238" stroke-miterlimit="10" stroke-linecap="round"/>
<path d="M678.865 429.333L679.513 432.423C679.573 432.691 679.69 432.944 679.855 433.163C680.021 433.382 680.232 433.564 680.473 433.695C680.715 433.826 680.982 433.904 681.256 433.923C681.531 433.942 681.806 433.902 682.063 433.806C682.482 433.642 682.829 433.335 683.042 432.939C683.256 432.543 683.323 432.085 683.23 431.645L682.604 428.533C682.549 428.244 682.428 427.971 682.249 427.737C682.071 427.504 681.84 427.315 681.575 427.187C681.31 427.058 681.019 426.994 680.724 426.999C680.43 427.004 680.141 427.078 679.881 427.215C679.496 427.4 679.186 427.711 679.001 428.096C678.817 428.48 678.769 428.917 678.865 429.333Z" fill="white" stroke="#263238" stroke-miterlimit="10" stroke-linecap="round"/>
<path d="M601.52 448.091C601.52 448.091 588.251 480.896 587.754 488.633C587.257 496.369 599.467 526.473 599.467 526.473C599.467 526.473 600.504 512.21 601.628 505.684C602.752 499.157 599.057 489.087 599.057 489.087L621.208 457.902L601.52 448.091Z" fill="white" stroke="#263238" stroke-miterlimit="10" stroke-linecap="round"/>
<path d="M584.339 472.792C584.143 472.595 583.904 472.446 583.641 472.357C583.378 472.267 583.098 472.239 582.823 472.274C582.547 472.31 582.283 472.408 582.052 472.561C581.82 472.715 581.627 472.919 581.487 473.159C581.097 473.693 580.887 474.336 580.887 474.996C580.887 475.657 581.097 476.3 581.487 476.833C583.432 479.124 590.239 485.478 590.909 482.387C591.384 480.14 586.803 475.191 584.339 472.792Z" fill="white" stroke="#263238" stroke-miterlimit="10" stroke-linecap="round"/>
<path d="M585.982 465.099C585.815 464.832 585.593 464.606 585.331 464.434C585.068 464.262 584.771 464.15 584.46 464.105C584.15 464.059 583.833 464.082 583.532 464.172C583.231 464.261 582.954 464.415 582.718 464.623C582.123 465.092 581.691 465.738 581.485 466.468C581.279 467.198 581.31 467.975 581.573 468.686C583.021 471.82 588.64 480.896 590.217 477.741C591.557 475.385 587.97 468.535 585.982 465.099Z" fill="white" stroke="#263238" stroke-miterlimit="10" stroke-linecap="round"/>
<path d="M587.624 460.236C587.461 459.944 587.233 459.695 586.957 459.506C586.681 459.317 586.366 459.195 586.035 459.149C585.704 459.103 585.367 459.134 585.05 459.24C584.733 459.346 584.446 459.525 584.209 459.761C583.594 460.244 583.148 460.911 582.938 461.666C582.728 462.42 582.765 463.221 583.042 463.953C584.533 467.195 590.368 476.639 592.119 473.354C593.437 470.869 589.677 463.802 587.624 460.236Z" fill="white" stroke="#263238" stroke-miterlimit="10" stroke-linecap="round"/>
<path d="M593.2 456.541C593.104 456.222 592.936 455.929 592.709 455.686C592.482 455.442 592.201 455.255 591.889 455.137C591.578 455.02 591.243 454.977 590.912 455.01C590.581 455.044 590.261 455.153 589.979 455.33C589.278 455.676 588.702 456.234 588.334 456.924C587.966 457.614 587.823 458.402 587.926 459.177C588.683 462.678 592.249 473.159 594.734 470.328C596.506 468.232 594.431 460.495 593.2 456.541Z" fill="white" stroke="#263238" stroke-miterlimit="10" stroke-linecap="round"/>
<path d="M649.625 353.738C649.625 353.738 647.464 329.426 635.708 330.161C626.739 330.722 619.759 336.881 616.388 352.96C613.017 369.038 609.905 412.973 607.117 421.92C604.329 430.867 595.577 450.014 595.577 450.014C595.577 450.014 605.734 456.497 612.865 460.495C617.671 463.042 622.941 464.592 628.36 465.055C628.36 465.055 632.834 442.45 634.433 427.582C636.032 412.714 645.584 366.921 647.399 366.294" fill="#263238"/>
<path d="M649.625 353.738C649.625 353.738 647.464 329.426 635.708 330.161C626.739 330.722 619.759 336.881 616.388 352.96C613.017 369.038 609.905 412.973 607.117 421.92C604.329 430.867 595.577 450.014 595.577 450.014C595.577 450.014 605.734 456.497 612.865 460.495C617.671 463.042 622.941 464.592 628.36 465.055C628.36 465.055 632.834 442.45 634.433 427.582C636.032 412.714 645.584 366.921 647.399 366.294" stroke="#263238" stroke-miterlimit="10" stroke-linecap="round"/>
<path d="M637.199 415.069C637.199 415.069 645.52 376.062 646.471 371.156" stroke="white" stroke-width="0.75" stroke-miterlimit="10" stroke-linecap="round"/>
<path d="M643.056 387.689L652.176 373.144" stroke="white" stroke-width="0.75" stroke-miterlimit="10" stroke-linecap="round"/>
</svg>
