<svg width="1000" height="760" viewBox="0 0 1000 760" fill="none" xmlns="http://www.w3.org/2000/svg">
<path d="M905.491 418.729C898.886 415.118 895.825 418.135 893.425 415.118C891.025 412.101 900.031 404.263 881.953 396.402C881.953 396.402 880.742 379.513 856.014 378.918C831.287 378.324 837.892 395.807 831.265 400.035C824.637 404.263 822.809 397.613 816.181 401.84C809.554 406.068 812.57 414.501 807.132 415.713C801.693 416.924 794.448 410.296 787.821 414.501C781.193 418.707 781.215 422.362 778.176 422.362C775.138 422.362 769.126 419.94 765.493 422.362C761.86 424.784 757.654 427.779 757.654 427.779H910.314C910.314 427.779 912.119 422.362 905.491 418.729Z" fill="#09BBB5"/>
<path opacity="0.5" d="M905.491 418.729C898.886 415.118 895.825 418.135 893.425 415.118C891.025 412.101 900.031 404.263 881.953 396.402C881.953 396.402 880.742 379.513 856.014 378.918C831.287 378.324 837.892 395.807 831.265 400.035C824.637 404.263 822.809 397.613 816.181 401.84C809.554 406.068 812.57 414.501 807.132 415.713C801.693 416.924 794.448 410.296 787.821 414.501C781.193 418.707 781.215 422.362 778.176 422.362C775.138 422.362 769.126 419.94 765.493 422.362C761.86 424.784 757.654 427.779 757.654 427.779H910.314C910.314 427.779 912.119 422.362 905.491 418.729Z" fill="white"/>
<path d="M827.61 158.858C818.406 153.838 814.244 158.022 810.897 153.838C807.55 149.654 820.079 138.887 794.977 127.877C794.977 127.877 793.326 104.471 759.042 103.656C724.758 102.841 733.962 127.062 724.758 132.92C715.554 138.777 713.066 129.573 703.862 135.43C694.658 141.287 698.841 153.045 691.333 154.653C683.824 156.26 673.717 147.122 664.579 152.979C655.441 158.836 655.375 163.857 651.192 163.857C647.008 163.857 638.663 160.51 633.576 163.857C628.49 167.204 622.721 171.365 622.721 171.365H834.215C834.215 171.365 836.814 163.879 827.61 158.858Z" fill="#09BBB5"/>
<path opacity="0.5" d="M827.61 158.858C818.406 153.838 814.244 158.022 810.897 153.838C807.55 149.654 820.079 138.887 794.977 127.877C794.977 127.877 793.326 104.471 759.042 103.656C724.758 102.841 733.962 127.062 724.758 132.92C715.554 138.777 713.066 129.573 703.862 135.43C694.658 141.287 698.841 153.045 691.333 154.653C683.824 156.26 673.717 147.122 664.579 152.979C655.441 158.836 655.375 163.857 651.192 163.857C647.008 163.857 638.663 160.51 633.576 163.857C628.49 167.204 622.721 171.365 622.721 171.365H834.215C834.215 171.365 836.814 163.879 827.61 158.858Z" fill="white"/>
<path d="M676.734 153.706C663.764 146.616 657.863 152.517 653.151 146.616C648.439 140.714 666.121 125.389 630.736 110.042C630.736 110.042 628.38 77.0128 580.091 75.8458C531.803 74.6787 544.707 108.875 531.649 117.132C518.592 125.389 515.135 112.42 502.165 120.677C489.196 128.934 495.075 145.449 484.55 147.805C474.025 150.161 459.778 137.191 446.809 145.449C433.84 153.706 433.818 160.862 427.917 160.862C422.015 160.862 410.301 156.15 403.145 160.862C395.989 165.574 387.731 171.475 387.731 171.475H686.18C686.18 171.475 689.725 160.774 676.734 153.706Z" fill="#09BBB5"/>
<path opacity="0.5" d="M676.734 153.706C663.764 146.616 657.863 152.517 653.151 146.616C648.439 140.714 666.121 125.389 630.736 110.042C630.736 110.042 628.38 77.0128 580.091 75.8458C531.803 74.6787 544.707 108.875 531.649 117.132C518.592 125.389 515.135 112.42 502.165 120.677C489.196 128.934 495.075 145.449 484.55 147.805C474.025 150.161 459.778 137.191 446.809 145.449C433.84 153.706 433.818 160.862 427.917 160.862C422.015 160.862 410.301 156.15 403.145 160.862C395.989 165.574 387.731 171.475 387.731 171.475H686.18C686.18 171.475 689.725 160.774 676.734 153.706Z" fill="white"/>
<path d="M53.039 352.583C56.6942 354.169 65.612 353.971 65.612 353.971C65.612 353.971 63.6963 348.136 63.5201 347.783C61.5825 343.688 55.373 336.928 50.3086 337.61C49.4747 337.744 48.6785 338.052 47.972 338.514C47.2656 338.977 46.665 339.584 46.2096 340.295C45.7543 341.006 45.4544 341.805 45.3298 342.641C45.2051 343.476 45.2585 344.328 45.4864 345.141C46.3231 348.62 49.9343 351.218 53.039 352.583Z" fill="#263238"/>
<path d="M169.895 322.219C164.831 321.668 158.885 328.604 156.992 332.744C156.816 333.096 154.966 338.998 155.076 338.998C154.129 340.099 153.116 341.199 152.037 342.565C150.056 345.009 147.854 347.761 145.652 350.932C143.241 354.312 141.035 357.834 139.046 361.479C136.784 365.552 134.89 369.819 133.387 374.228C133.38 374.279 133.38 374.331 133.387 374.382C133.387 372.907 133.387 368.746 133.387 368.415C132.793 364.011 128.983 355.578 124.029 354.653C123.196 354.519 122.344 354.562 121.528 354.78C120.713 354.998 119.953 355.386 119.298 355.918C118.644 356.45 118.109 357.115 117.728 357.869C117.348 358.622 117.132 359.447 117.093 360.29C116.807 363.879 119.295 367.446 121.915 369.714C124.778 372.247 132.682 374.735 133.321 374.911C131.907 379.426 130.796 384.031 129.996 388.695C129.512 391.425 129.115 394.178 128.741 396.93C128.741 395.653 128.741 394.508 128.741 394.332C128.147 389.928 124.337 381.495 119.383 380.57C118.544 380.429 117.684 380.467 116.861 380.683C116.037 380.899 115.269 381.288 114.608 381.823C113.946 382.358 113.405 383.027 113.021 383.787C112.637 384.546 112.419 385.379 112.381 386.229C112.095 389.796 114.693 393.363 117.203 395.631C119.713 397.899 126.473 400.167 128.213 400.717L127.794 403.91C127.178 409.019 126.605 414.105 125.879 419.082C125.614 420.843 125.306 422.561 124.998 424.278C124.998 423.133 124.998 422.076 124.998 422.076C124.403 417.672 120.594 409.239 115.64 408.314C114.806 408.187 113.954 408.236 113.141 408.458C112.327 408.68 111.569 409.07 110.915 409.603C110.261 410.137 109.727 410.801 109.346 411.554C108.965 412.306 108.746 413.131 108.704 413.973C108.417 417.54 110.905 421.129 113.526 423.375C116.831 425.582 120.455 427.267 124.271 428.374C123.897 430.113 123.522 431.875 123.082 433.548C122.752 434.693 122.532 435.75 122.135 436.939C121.739 438.128 121.409 439.141 121.056 440.286C120.308 442.378 119.515 444.558 118.722 446.584C118.194 447.993 117.643 449.336 117.093 450.679C117.379 448.94 117.842 445.527 117.842 445.24C117.761 441.213 116.639 437.276 114.583 433.812C114.616 433.365 114.616 432.916 114.583 432.469C114.482 431.624 114.204 430.81 113.765 430.08C113.327 429.351 112.738 428.723 112.039 428.238C111.339 427.753 110.545 427.422 109.708 427.267C108.871 427.112 108.011 427.136 107.184 427.339C102.274 428.638 99.1692 437.247 98.927 441.783C98.927 442.048 99.0811 444.976 99.2353 446.804C98.9931 445.747 98.7509 444.712 98.4866 443.611C97.9802 441.409 97.3857 439.207 96.7911 437.005C96.4388 435.904 96.1085 434.803 95.7562 433.658C95.4039 432.513 94.9635 431.456 94.5892 430.223C93.5983 427.559 92.3873 424.917 91.3084 422.274C93.224 421.812 99.9399 420.072 102.648 418.025C105.357 415.977 108.175 412.586 108.153 408.997C108.18 408.143 108.023 407.293 107.694 406.504C107.365 405.716 106.871 405.007 106.245 404.425C105.62 403.843 104.877 403.402 104.066 403.131C103.256 402.859 102.397 402.765 101.547 402.853C96.5049 403.404 92.1231 411.441 91.1982 415.889C91.1982 416.175 90.846 419.434 90.7138 421.217C89.9872 419.654 89.2826 418.069 88.5119 416.483C86.31 411.947 83.8438 407.411 81.4217 402.875C80.6951 401.488 79.9685 400.101 79.2198 398.714C79.8804 398.56 88.0275 396.688 90.956 394.31C93.6424 392.24 96.5049 388.849 96.4608 385.282C96.487 384.427 96.3304 383.576 96.0016 382.787C95.6728 381.997 95.1793 381.287 94.554 380.704C93.9287 380.12 93.1861 379.677 92.3758 379.403C91.5655 379.129 90.7061 379.032 89.8551 379.117C84.8127 379.667 80.4308 387.704 79.506 392.152C79.506 392.482 79.0216 397.194 78.9776 398.383C77.3702 395.323 75.8288 392.262 74.3976 389.179C72.4796 385.016 70.8249 380.735 69.4433 376.364C69.7735 376.364 78.251 374.382 81.2676 371.96C83.9539 369.891 86.7944 366.522 86.7724 362.932C86.7986 362.078 86.642 361.227 86.3132 360.437C85.9843 359.648 85.4908 358.938 84.8655 358.354C84.2403 357.77 83.4977 357.327 82.6874 357.053C81.8771 356.78 81.0177 356.682 80.1666 356.767C75.1242 357.318 70.7424 365.377 69.8176 369.825C69.8176 370.177 69.2891 375.219 69.2671 376.144C69.2671 375.88 69.0909 375.638 69.0249 375.373C67.7646 370.953 66.9025 366.428 66.4486 361.854C66.1624 359.321 66.0303 356.899 65.9642 354.543C67.5496 354.345 74.7719 353.376 77.8986 351.527C81.0254 349.677 83.998 346.748 84.3723 343.159C84.4835 342.323 84.4182 341.473 84.1805 340.664C83.9428 339.854 83.5381 339.104 82.9924 338.46C82.4467 337.817 81.7721 337.296 81.0123 336.929C80.2525 336.563 79.4244 336.36 78.5812 336.333C73.4948 336.333 68.2542 343.842 66.867 348.158C66.867 348.4 66.2725 350.866 65.9202 352.561C65.9202 351.504 65.9202 350.359 65.9202 349.369C65.9202 345.537 66.1844 342.014 66.4046 338.887C66.5587 337.126 66.7349 335.519 66.911 334.043C68.3863 333.03 74.2655 328.869 76.071 325.918C77.8766 322.968 79.2859 318.828 77.9647 315.503C77.6804 314.708 77.2326 313.982 76.6502 313.371C76.0677 312.761 75.3636 312.279 74.5833 311.957C73.8031 311.636 72.964 311.481 72.1203 311.504C71.2766 311.527 70.4472 311.727 69.6855 312.09C65.2816 314.424 63.9825 323.518 64.7311 327.988C64.7311 328.384 66.4927 334.307 66.5808 334.263C66.3826 335.695 66.1844 337.236 66.0082 338.932C65.7 342.036 65.3697 345.537 65.2816 349.435C65.1299 353.584 65.2255 357.738 65.5679 361.876C65.894 366.519 66.6308 371.124 67.7698 375.638C67.7793 375.689 67.7793 375.741 67.7698 375.792C66.9771 374.537 64.621 371.102 64.4229 370.859C61.4503 367.424 53.6995 362.536 49.0094 364.518C48.2416 364.869 47.5564 365.378 46.9983 366.011C46.4403 366.645 46.022 367.389 45.7706 368.195C45.5193 369.001 45.4405 369.851 45.5395 370.689C45.6385 371.528 45.913 372.336 46.3451 373.061C48.0846 376.21 52.2242 377.773 55.5711 378.258C59.3584 378.808 67.3074 376.496 67.9459 376.32C69.4247 380.966 71.2198 385.505 73.3186 389.906C74.4196 392.46 75.5206 394.97 76.8197 397.481C76.0931 396.424 75.4325 395.477 75.3224 395.279C72.3498 391.844 64.599 386.977 59.9089 388.959C59.1516 389.319 58.4779 389.833 57.9312 390.469C57.3844 391.104 56.9766 391.847 56.734 392.649C56.4913 393.452 56.4193 394.296 56.5224 395.128C56.6255 395.96 56.9015 396.762 57.3327 397.481C59.0502 400.629 63.1898 402.171 66.5587 402.655C69.9277 403.14 76.7757 401.334 78.5812 400.828C79.0657 401.774 79.5281 402.743 79.9905 403.69C82.1924 408.292 84.6365 412.85 86.7724 417.408C87.521 419.015 88.2036 420.623 88.9743 422.23L87.6972 420.381C84.7246 416.946 76.9738 412.057 72.2837 414.039C71.5159 414.39 70.8307 414.899 70.2727 415.533C69.7146 416.166 69.2963 416.91 69.045 417.716C68.7936 418.522 68.7148 419.372 68.8138 420.211C68.9128 421.049 69.1873 421.857 69.6194 422.583C71.3589 425.731 75.4765 427.295 78.8455 427.779C82.8102 427.795 86.7537 427.201 90.5377 426.018C91.1983 427.691 91.8588 429.365 92.4313 430.994C92.7836 432.139 93.202 433.196 93.5103 434.341C93.8185 435.486 94.1268 436.543 94.4571 437.732C94.9635 439.934 95.514 442.136 95.9764 444.338C96.3067 445.813 96.593 447.222 96.8792 448.741C96.1526 447.134 94.6773 444.029 94.4791 443.787C92.079 439.934 85.143 433.945 80.2327 435.2C79.4199 435.429 78.6645 435.827 78.0158 436.368C77.367 436.908 76.8396 437.58 76.4677 438.338C76.0958 439.096 75.8879 439.925 75.8575 440.769C75.8271 441.613 75.9749 442.454 76.2912 443.237C77.5243 446.606 81.3777 448.763 84.6145 449.842C88.1816 450.943 96.0865 449.842 97.0774 449.842C97.5618 452.22 98.0022 454.51 98.3765 456.69C99.6977 464.243 100.578 470.562 101.041 475.01C101.041 475.803 101.195 476.508 101.283 477.212H85.8696L91.4625 484.302H117.467L123.06 477.212H108.814C108.814 476.992 109.012 476.794 109.122 476.552C111.082 472.478 113.79 466.621 116.719 459.465C117.643 457.263 118.59 454.775 119.559 452.265C120.506 452.463 128.367 454.048 131.978 453.233C135.281 452.485 139.288 450.613 140.786 447.332C141.162 446.576 141.374 445.749 141.408 444.905C141.442 444.062 141.298 443.22 140.984 442.436C140.67 441.652 140.194 440.944 139.586 440.357C138.979 439.77 138.255 439.318 137.461 439.031C132.638 437.402 125.284 442.884 122.598 446.54C122.444 446.738 120.968 449.27 120.087 450.943C120.462 449.93 120.858 448.94 121.232 447.861C122.003 445.769 122.708 443.655 123.434 441.387L124.425 438.018C124.8 436.917 125.02 435.684 125.328 434.517C125.989 431.765 126.517 428.946 127.002 426.084C128.829 426.744 135.391 429.034 138.782 428.792C142.173 428.55 146.4 427.317 148.36 424.388C148.845 423.698 149.178 422.914 149.339 422.087C149.5 421.259 149.484 420.407 149.293 419.586C149.102 418.765 148.739 417.994 148.229 417.323C147.72 416.651 147.074 416.095 146.334 415.691C141.82 413.356 133.717 417.65 130.503 420.843C130.304 421.041 128.301 423.595 127.156 425.027C127.442 423.309 127.706 421.592 127.926 419.852C128.543 414.81 129.027 409.701 129.534 404.593C129.666 403.029 129.842 401.466 130.018 399.903C130.657 400.145 138.407 403.029 142.195 402.765C145.586 402.523 149.813 401.29 151.773 398.361C152.271 397.668 152.615 396.876 152.785 396.039C152.954 395.202 152.943 394.339 152.754 393.507C152.564 392.674 152.2 391.891 151.686 391.21C151.171 390.528 150.518 389.964 149.769 389.554C145.233 387.242 137.152 391.535 133.938 394.728C133.695 394.97 130.745 398.648 130.04 399.617C130.392 396.204 130.789 392.769 131.317 389.422C132.003 384.893 132.982 380.414 134.246 376.012C134.554 376.122 142.613 379.161 146.511 378.874C149.88 378.654 154.129 377.399 156.089 374.471C156.589 373.777 156.936 372.984 157.105 372.145C157.274 371.307 157.263 370.442 157.071 369.608C156.879 368.774 156.512 367.991 155.993 367.311C155.474 366.63 154.816 366.069 154.063 365.663C149.659 363.329 141.446 367.623 138.231 370.815C137.989 371.08 134.818 375.043 134.29 375.792C134.29 375.549 134.422 375.263 134.51 375.021C135.895 370.636 137.671 366.384 139.817 362.316C140.962 360.114 142.195 357.912 143.45 355.952C144.881 356.657 151.531 359.894 155.054 360.026C158.577 360.158 162.783 359.387 165.073 356.613C165.62 355.982 166.029 355.243 166.274 354.444C166.519 353.646 166.594 352.805 166.495 351.975C166.395 351.146 166.123 350.346 165.696 349.628C165.27 348.91 164.697 348.289 164.016 347.805C159.788 344.987 151.267 348.378 147.722 351.196C147.523 351.35 145.74 353.134 144.441 354.455C145.035 353.552 145.608 352.605 146.18 351.747C148.382 348.554 150.43 345.757 152.368 343.291C153.469 341.904 154.57 340.649 155.45 339.504C157.234 339.504 164.434 339.262 167.583 337.787C170.732 336.311 174.189 333.647 174.893 330.146C175.186 329.295 175.284 328.39 175.18 327.497C175.076 326.604 174.773 325.745 174.294 324.985C173.814 324.224 173.17 323.581 172.409 323.102C171.647 322.623 170.788 322.322 169.895 322.219ZM113.944 457.967C110.883 464.992 108.087 470.717 106.061 474.702C105.643 475.517 105.291 476.221 104.938 476.904H104.608C104.608 476.111 104.41 475.275 104.278 474.328C103.661 469.924 102.692 463.472 101.173 455.876C100.711 453.476 100.16 450.921 99.5656 448.301C101.938 447.316 104.254 446.198 106.502 444.954C109.56 447.609 112.968 449.832 116.63 451.56C115.728 453.762 114.825 455.964 113.944 457.967Z" fill="#263238"/>
<path d="M143.208 354.543C143.208 354.543 144.815 348.62 144.881 348.224C145.498 343.82 144.067 334.682 139.487 332.458C138.717 332.114 137.883 331.936 137.04 331.935C136.197 331.935 135.363 332.111 134.592 332.454C133.822 332.797 133.132 333.298 132.568 333.924C132.004 334.551 131.578 335.289 131.317 336.091C130.084 339.46 131.626 343.6 133.519 346.44C135.699 349.787 143.208 354.543 143.208 354.543Z" fill="#263238"/>
<path d="M555.408 375.88C560.406 378.082 572.627 377.773 572.627 377.773C572.627 377.773 570.007 369.78 569.786 369.296C567.1 363.703 558.623 354.433 551.731 355.38C550.59 355.564 549.501 355.986 548.535 356.62C547.569 357.253 546.748 358.083 546.124 359.056C545.501 360.028 545.09 361.121 544.917 362.264C544.745 363.406 544.816 364.572 545.125 365.685C546.27 370.463 551.158 374.008 555.408 375.88Z" fill="#09BBB5"/>
<path d="M715.399 334.307C708.485 333.559 700.272 343.115 697.784 348.708C697.564 349.214 695.032 357.273 695.164 357.273H695.296C693.997 358.749 692.609 360.356 691.134 362.162C688.426 365.487 685.387 369.252 682.327 373.59C679.029 378.235 676 383.065 673.255 388.056C670.165 393.631 667.571 399.467 665.504 405.496V405.716C665.504 403.69 665.504 397.987 665.394 397.547C664.601 391.381 659.427 379.931 652.601 378.676C651.457 378.499 650.29 378.564 649.173 378.867C648.057 379.17 647.016 379.704 646.119 380.435C645.223 381.165 644.489 382.076 643.967 383.109C643.445 384.141 643.146 385.272 643.088 386.427C642.692 391.315 646.237 396.226 649.694 399.308C653.591 402.787 664.425 406.178 665.284 406.442C663.342 412.632 661.812 418.943 660.704 425.335C660.043 429.056 659.493 432.843 658.986 436.609C658.986 434.847 658.986 433.284 658.986 433.064C658.193 426.898 653.019 415.448 646.171 414.193C645.029 414.016 643.862 414.081 642.747 414.384C641.632 414.687 640.593 415.221 639.698 415.952C638.802 416.684 638.071 417.595 637.551 418.627C637.032 419.659 636.735 420.789 636.681 421.944C636.284 426.832 639.829 431.743 643.286 434.825C646.743 437.908 655.97 441.035 658.414 441.805C658.238 443.259 658.039 444.712 657.863 446.209C657.048 453.189 656.234 460.169 655.243 466.973C654.891 469.373 654.45 471.729 654.032 474.086C654.032 472.522 654.032 471.201 654.032 471.003C653.239 464.837 648.065 453.387 641.239 452.132C640.095 451.955 638.928 452.02 637.811 452.323C636.695 452.626 635.654 453.16 634.758 453.891C633.861 454.622 633.127 455.533 632.605 456.565C632.083 457.597 631.784 458.728 631.726 459.883C631.33 464.771 634.875 469.682 638.332 472.764C641.789 475.847 650.134 478.665 653.041 479.612C652.535 482.012 652.028 484.413 651.434 486.703C650.971 488.266 650.663 489.807 650.134 491.349C649.606 492.89 649.144 494.409 648.637 495.929C647.602 498.791 646.545 501.764 645.444 504.56C644.718 506.476 643.969 508.325 643.242 510.175C643.617 507.775 644.255 503.085 644.255 502.689C644.187 497.226 642.716 491.873 639.984 487.143C640.002 486.532 639.965 485.92 639.873 485.315C639.725 484.169 639.338 483.066 638.737 482.078C638.136 481.091 637.334 480.24 636.383 479.582C635.433 478.924 634.355 478.473 633.218 478.259C632.082 478.044 630.914 478.07 629.789 478.335C623.073 480.119 618.779 491.921 618.493 498.153C618.493 498.527 618.713 502.556 618.911 505.023C618.559 503.569 618.251 502.138 617.876 500.619C617.172 497.646 616.379 494.696 615.542 491.525C615.08 490.005 614.617 488.486 614.155 486.923C613.693 485.359 613.076 483.796 612.526 482.233C611.204 478.577 609.685 474.966 608.122 471.355C610.72 470.739 619.946 468.383 623.645 465.542C627.345 462.702 631.22 458.1 631.198 453.189C631.225 452.042 631.013 450.902 630.575 449.842C630.137 448.781 629.482 447.824 628.654 447.03C627.825 446.237 626.84 445.625 625.762 445.233C624.683 444.842 623.535 444.679 622.39 444.756C615.476 445.505 609.465 456.536 608.21 462.613C608.21 462.988 607.725 467.458 607.549 469.924C606.558 467.722 605.589 465.52 604.511 463.428C601.406 457.197 598.103 451.009 594.8 444.8C593.787 442.884 592.818 440.991 591.827 439.075C592.752 438.877 603.762 436.323 607.902 433.13C611.579 430.311 615.498 425.687 615.454 420.777C615.481 419.63 615.269 418.49 614.831 417.429C614.393 416.369 613.739 415.412 612.91 414.618C612.081 413.825 611.096 413.213 610.018 412.821C608.939 412.429 607.791 412.267 606.646 412.344C599.732 413.092 593.721 424.124 592.466 430.201C592.466 430.664 591.805 437.093 591.739 438.745C589.538 434.539 587.336 430.333 585.486 426.128C582.848 420.408 580.582 414.524 578.704 408.512C579.122 408.512 590.638 405.804 594.866 402.545C598.543 399.727 602.463 395.103 602.419 390.192C602.453 389.043 602.245 387.9 601.809 386.837C601.374 385.773 600.719 384.813 599.889 384.018C599.059 383.223 598.071 382.611 596.99 382.222C595.908 381.833 594.757 381.675 593.611 381.759C586.697 382.508 580.708 393.517 579.453 399.616C579.343 400.101 578.726 407.015 578.704 408.27C578.704 407.918 578.44 407.565 578.352 407.235C576.615 401.183 575.436 394.984 574.829 388.717C574.432 385.26 574.256 381.935 574.146 378.698C576.348 378.412 586.345 377.091 590.484 374.581C594.624 372.07 598.852 367.975 599.292 363.131C599.45 361.986 599.366 360.821 599.044 359.712C598.722 358.602 598.171 357.572 597.425 356.69C596.68 355.807 595.757 355.091 594.717 354.589C593.676 354.086 592.542 353.808 591.387 353.772C584.429 353.772 577.251 364.055 575.335 369.957C575.335 370.287 574.52 373.678 574.058 376.144C574.058 374.669 574.058 373.171 574.058 371.74C574.058 366.478 574.388 361.677 574.719 357.406C574.917 354.984 575.159 352.782 575.401 350.8C577.427 349.413 585.464 343.732 587.93 339.658C590.396 335.585 592.334 329.992 590.528 325.412C590.14 324.323 589.526 323.328 588.728 322.492C587.93 321.656 586.964 320.998 585.895 320.56C584.825 320.121 583.675 319.913 582.52 319.949C581.364 319.984 580.229 320.263 579.188 320.766C573.023 323.958 571.394 336.399 572.407 342.521C572.407 343.049 574.829 351.174 574.939 351.108H575.049C574.785 353.068 574.52 355.182 574.278 357.494C573.838 361.765 573.419 366.588 573.287 371.872C573.098 377.556 573.23 383.246 573.684 388.915C574.187 395.271 575.248 401.571 576.854 407.742V407.962C575.753 406.244 572.451 401.554 572.252 401.202C568.179 396.512 557.566 389.818 551.158 392.548C550.107 393.028 549.169 393.725 548.405 394.592C547.642 395.46 547.07 396.478 546.727 397.582C546.384 398.686 546.278 399.849 546.415 400.996C546.553 402.144 546.931 403.249 547.525 404.241C549.881 408.534 555.54 410.67 560.142 411.353C565.316 412.101 576.216 408.931 577.075 408.688C578.868 414.92 581.075 421.026 583.68 426.964C585.178 430.443 586.785 433.9 588.459 437.335C587.468 435.882 586.565 434.583 586.411 434.407C582.359 429.717 571.724 423.023 565.338 425.753C564.285 426.231 563.345 426.926 562.579 427.793C561.813 428.659 561.239 429.678 560.894 430.781C560.549 431.885 560.441 433.049 560.577 434.198C560.713 435.346 561.09 436.453 561.683 437.446C564.039 441.739 569.72 443.875 574.3 444.536C578.88 445.196 588.304 442.708 590.771 442.026C591.431 443.325 592.07 444.646 592.73 445.967C595.879 452.242 599.05 458.496 601.978 464.727C603.013 466.929 603.96 469.131 604.907 471.333C604.004 470.034 603.255 468.955 603.123 468.801C599.05 464.111 588.437 457.417 582.029 460.125C580.977 460.608 580.039 461.306 579.275 462.176C578.511 463.045 577.939 464.066 577.597 465.171C577.254 466.276 577.148 467.442 577.286 468.591C577.423 469.74 577.802 470.847 578.396 471.84C580.752 476.133 586.411 478.269 591.013 478.93C595.615 479.59 604.224 477.344 607.043 476.53C607.946 478.732 608.848 481.088 609.619 483.334C610.103 484.897 610.676 486.35 611.094 487.936C611.513 489.521 611.953 491.04 612.371 492.56C613.098 495.532 613.847 498.593 614.463 501.521C614.926 503.547 615.3 505.485 615.718 507.423C614.705 505.221 612.658 500.971 612.437 500.641C609.135 495.378 599.644 487.165 592.906 488.882C591.795 489.2 590.763 489.747 589.878 490.489C588.992 491.231 588.273 492.151 587.766 493.19C587.259 494.228 586.977 495.361 586.937 496.516C586.897 497.671 587.1 498.821 587.534 499.892C589.229 504.494 594.492 507.467 598.94 508.7C603.828 510.197 614.639 508.832 615.983 508.7C616.643 511.937 617.238 515.085 617.744 518.058C619.572 528.385 620.695 537.061 621.399 543.138C621.531 544.217 621.62 545.186 621.73 546.088H600.789L608.43 555.799H644.123L651.764 546.088H632.255L632.695 545.208C635.359 539.615 639.081 531.6 643.088 521.801C644.365 518.696 645.664 515.372 646.964 511.937C648.263 512.201 658.986 514.381 663.962 513.258C668.498 512.223 673.981 509.669 676.007 505.199C676.517 504.162 676.803 503.031 676.848 501.877C676.893 500.723 676.695 499.572 676.268 498.499C675.84 497.426 675.192 496.455 674.366 495.648C673.54 494.841 672.554 494.217 671.471 493.815C664.865 491.613 654.802 499.099 651.103 504.098C650.883 504.384 648.901 507.841 647.668 510.065C648.175 508.656 648.703 507.291 649.232 505.837C650.289 502.975 651.257 500.068 652.292 497.03L653.679 492.428C654.164 490.886 654.494 489.213 654.913 487.605C655.815 483.84 656.542 479.987 657.115 476.067C659.625 476.992 668.609 480.119 673.255 479.789C677.901 479.458 683.692 477.763 686.466 473.645C687.132 472.699 687.591 471.624 687.812 470.488C688.033 469.353 688.012 468.184 687.751 467.057C687.489 465.93 686.992 464.872 686.292 463.95C685.593 463.029 684.707 462.266 683.692 461.711C677.504 458.518 666.429 464.397 662.025 468.779C661.761 469.043 658.942 472.544 657.445 474.504C657.819 472.148 658.193 469.814 658.48 467.414C659.338 460.522 659.999 453.52 660.682 446.517C660.88 444.315 661.122 442.246 661.342 440.11C662.223 440.44 672.814 444.382 678.033 444.029C682.657 443.699 688.47 442.004 691.244 437.886C691.907 436.939 692.363 435.863 692.582 434.729C692.802 433.594 692.78 432.426 692.518 431.3C692.256 430.174 691.761 429.116 691.063 428.195C690.366 427.273 689.482 426.509 688.47 425.951C682.282 422.759 671.207 428.638 666.803 433.02C666.451 433.35 662.399 438.392 661.474 439.625C661.959 434.935 662.509 430.267 663.214 425.665C664.164 419.459 665.502 413.318 667.221 407.279C667.64 407.455 678.671 411.683 684.022 411.243C688.646 410.912 694.459 409.217 697.234 405.099C697.9 404.155 698.36 403.08 698.583 401.946C698.806 400.812 698.787 399.643 698.527 398.516C698.268 397.39 697.773 396.331 697.076 395.409C696.378 394.486 695.494 393.722 694.481 393.165C688.294 389.972 677.196 395.851 672.792 400.233C672.462 400.585 668.124 406.002 667.397 407.037C667.508 406.685 667.574 406.31 667.684 405.98C669.587 399.975 672.027 394.153 674.972 388.585C676.535 385.48 678.231 382.618 679.926 379.777C681.908 380.768 690.936 385.172 695.824 385.37C700.713 385.568 706.416 384.489 709.542 380.702C710.303 379.831 710.872 378.811 711.213 377.707C711.555 376.602 711.66 375.438 711.523 374.291C711.386 373.143 711.01 372.036 710.418 371.043C709.827 370.05 709.033 369.192 708.089 368.525C702.298 364.672 690.628 369.296 685.784 373.171C685.519 373.392 683.075 375.836 681.38 377.575C682.172 376.342 682.943 375.065 683.736 373.898C686.642 369.494 689.571 365.685 692.213 362.316C693.71 360.4 695.12 358.705 696.441 357.141C698.885 357.141 708.728 356.789 713.043 354.763C717.359 352.738 722.049 349.126 723.062 344.304C723.32 343.132 723.319 341.919 723.059 340.747C722.798 339.576 722.285 338.476 721.555 337.524C720.826 336.572 719.896 335.791 718.833 335.235C717.77 334.679 716.598 334.363 715.399 334.307ZM638.795 520.172C634.633 529.794 630.78 537.655 628.005 543.094C627.455 544.195 626.948 545.164 626.486 546.066H626.023C625.891 545.009 625.737 543.864 625.561 542.543C624.702 536.4 623.359 527.68 621.311 517.287C620.673 514.006 619.924 510.505 619.109 506.916C622.365 505.638 625.541 504.168 628.622 502.512C632.189 506.366 641.305 510.88 642.494 511.452C641.261 514.447 640.006 517.397 638.795 520.172Z" fill="#09BBB5"/>
<path d="M678.958 378.566C678.958 378.566 681.16 370.441 681.16 369.913C682.019 363.769 680.059 351.372 673.783 348.334C672.728 347.86 671.584 347.614 670.427 347.611C669.27 347.609 668.126 347.85 667.068 348.32C666.011 348.789 665.064 349.476 664.29 350.336C663.516 351.196 662.932 352.209 662.576 353.31C660.902 357.912 663.038 363.571 665.548 367.468C668.609 372.048 678.936 378.566 678.958 378.566Z" fill="#09BBB5"/>
<path d="M330.283 443.809H67.3076V590.567H330.283V443.809Z" fill="white" stroke="#263238" stroke-linecap="round" stroke-linejoin="round"/>
<path d="M330.283 443.809H255.726V590.567H330.283V443.809Z" fill="#263238" stroke="#263238" stroke-linecap="round" stroke-linejoin="round"/>
<path d="M524.801 259.816H261.826V736.048H524.801V259.816Z" fill="white" stroke="#263238" stroke-linecap="round" stroke-linejoin="round"/>
<path d="M524.801 259.816H450.244V736.048H524.801V259.816Z" fill="#263238" stroke="#263238" stroke-linecap="round" stroke-linejoin="round"/>
<path d="M330.283 589.687H67.3076V736.445H330.283V589.687Z" fill="white" stroke="#263238" stroke-linecap="round" stroke-linejoin="round"/>
<path d="M453.084 589.687H310.444V736.445H453.084V589.687Z" fill="#263238" stroke="#263238" stroke-linecap="round" stroke-linejoin="round"/>
<path d="M533.389 589.687H321.52V736.445H533.389V589.687Z" fill="white" stroke="#263238" stroke-linecap="round" stroke-linejoin="round"/>
<path d="M542.02 513.72L405.171 333.735H330.239V380.658L229.061 513.72H542.02Z" fill="#263238" stroke="#263238" stroke-linecap="round" stroke-linejoin="round"/>
<path d="M330.239 333.735L193.368 513.72H467.089L330.239 333.735Z" fill="white" stroke="#263238" stroke-linecap="round" stroke-linejoin="round"/>
<path d="M700.713 514.623H437.737V736.445H700.713V514.623Z" fill="#09BBB5" stroke="#263238" stroke-linecap="round" stroke-linejoin="round"/>
<path d="M700.713 514.623H600.525V736.445H700.713V514.623Z" fill="#263238" stroke="#263238" stroke-linecap="round" stroke-linejoin="round"/>
<path d="M424.68 514.623H161.704V736.445H424.68V514.623Z" fill="#09BBB5" stroke="#263238" stroke-linecap="round" stroke-linejoin="round"/>
<path d="M424.68 514.623H324.492V736.445H424.68V514.623Z" fill="#263238" stroke="#263238" stroke-linecap="round" stroke-linejoin="round"/>
<path d="M734.689 533.163L666.671 522.154C666.671 522.154 662.84 513.676 660.88 511.716C658.92 509.757 647.492 510.417 647.492 510.417C647.492 510.417 645.291 511.716 648.483 513.346C651.676 514.975 654.032 514.513 654.693 515.548C655.353 516.583 658.216 527.724 660.814 528.759C662.817 529.387 664.902 529.714 667.001 529.728C667.001 529.728 737.309 556.415 740.876 555.777C744.443 555.138 746.733 546 746.733 546L734.689 533.163Z" fill="white" stroke="#263238" stroke-linecap="round" stroke-linejoin="round"/>
<path d="M659.273 521.097C659.273 521.097 654.693 515.438 653.328 515.438C651.963 515.438 651.985 517.64 653.064 518.675C654.673 520.754 656.033 523.016 657.115 525.412C658.458 528.121 663.589 528.649 663.589 528.649" fill="white"/>
<path d="M659.273 521.097C659.273 521.097 654.693 515.438 653.328 515.438C651.963 515.438 651.985 517.64 653.064 518.675C654.673 520.754 656.033 523.016 657.115 525.412C658.458 528.121 663.589 528.649 663.589 528.649" stroke="#263238" stroke-linecap="round" stroke-linejoin="round"/>
<path d="M767.586 508.083L728.92 532.833L742.131 560.819L779.256 536.73C779.256 536.73 785.487 514.271 767.586 508.083Z" fill="white" stroke="#263238" stroke-linecap="round" stroke-linejoin="round"/>
<path d="M751.291 506.146L764.965 507.114L768.554 490.182L755.211 485.954L741.867 489.213L744.465 499.958L751.291 506.146Z" fill="white" stroke="#263238" stroke-linecap="round" stroke-linejoin="round"/>
<path d="M713.859 496.369C711.026 498.199 707.793 499.317 704.434 499.628C698.577 500.288 692.72 493.022 692.72 484.655C692.72 476.287 712.89 457.637 726.894 455.677C740.898 453.718 754.88 478.798 756.84 484.016C758.8 489.235 753.912 491.503 749.992 491.503C746.073 491.503 744.135 491.172 742.836 491.172C741.537 491.172 744.135 494.74 739.907 496.699C735.68 498.659 730.153 498.329 727.533 499.298C724.912 500.266 715.18 499.628 713.859 496.369Z" fill="#263238" stroke="#263238" stroke-linecap="round" stroke-linejoin="round"/>
<path d="M708.662 490.842C710.661 495.517 713.291 499.895 716.479 503.856C721.037 509.074 725.595 508.414 725.903 509.713C726.211 511.012 727.202 514.931 729.823 515.9C730.65 516.157 731.529 516.203 732.379 516.034C733.229 515.865 734.023 515.486 734.689 514.931C734.689 514.931 746.095 518.829 749.662 517.529C753.229 516.23 754.55 505.485 753.581 501.918C752.426 499.062 750.642 496.504 748.363 494.431C748.363 494.431 748.055 483.686 743.497 482.695C738.939 481.704 734.689 486.615 735.68 489.301C736.671 491.987 737.639 493.529 737.309 494.519C736.979 495.51 731.122 493.529 729.823 492.56C728.523 491.591 727.863 496.457 722.975 496.787C718.086 497.118 708.662 490.842 708.662 490.842Z" fill="white" stroke="#263238" stroke-linecap="round" stroke-linejoin="round"/>
<path d="M766.925 487.583C766.925 487.583 760.099 509.404 758.778 513.302C757.457 517.199 761.398 526.007 761.398 526.007L775.16 490.182L766.925 487.583Z" fill="white" stroke="#263238" stroke-linecap="round" stroke-linejoin="round"/>
<path d="M794.207 585.745L791.763 598.957C791.763 598.957 776.063 623.486 766.749 642.136C757.435 660.787 762.345 667.15 762.807 669.594C763.27 672.039 832.983 722.11 832.983 722.11H845.247L792.775 660.743L828.579 615.119C828.579 615.119 850.598 664.684 856.543 670.563C862.488 676.442 915.423 719.138 915.423 719.138L926.212 720.613L880.082 647.531C880.082 647.531 860.947 585.701 852.602 575.396C844.256 565.091 840.821 560.687 840.821 560.687L794.207 585.745Z" fill="#263238" stroke="#263238" stroke-linecap="round" stroke-linejoin="round"/>
<path d="M805.15 603.383L828.557 615.185L811.58 612.829" stroke="white" stroke-width="0.5" stroke-linecap="round" stroke-linejoin="round"/>
<path d="M792.754 660.809L777.67 656.207" stroke="white" stroke-width="0.5" stroke-linecap="round" stroke-linejoin="round"/>
<path d="M809.862 589.642L814.156 594.377L810.721 600.806L815.874 602.105L819.749 593.936L817.173 589.642" stroke="white" stroke-width="0.5" stroke-linecap="round" stroke-linejoin="round"/>
<path d="M772.782 493.11C772.782 493.11 763.027 518.19 761.772 524.047C760.517 529.904 761.134 537.721 765.031 547.145C768.928 556.57 784.232 572.534 786.852 576.123C789.472 579.712 788.151 584.93 793.678 587.837C799.205 590.743 812.108 588.541 820.938 584.116C827.852 580.659 840.557 567.667 840.887 563.44C841.218 559.212 822.655 536.422 812.879 520.458C803.102 504.494 798.236 497.36 789.45 492.802C780.665 488.244 775.16 490.182 772.782 493.11Z" fill="white" stroke="#263238" stroke-linecap="round" stroke-linejoin="round"/>
<path d="M778.881 530.829C778.881 530.829 804.005 530.279 806.185 530.279" stroke="#263238" stroke-linecap="round" stroke-linejoin="round"/>
<path d="M775.601 533.471C775.601 533.471 811.118 547.123 822.59 547.674" stroke="#263238" stroke-linecap="round" stroke-linejoin="round"/>
<path d="M737.727 537.721C737.727 537.721 656.983 529.904 653.416 529.244C649.849 528.583 643.617 517.001 642.626 515.702C641.635 514.403 631.617 510.836 629.943 510.836C628.27 510.836 621.686 511.915 624.284 513.544C627.362 515.919 630.248 518.533 632.916 521.361C636.007 525.01 639.379 528.411 643.001 531.534C645.886 533.378 649.033 534.773 652.337 535.673C652.337 535.673 738.696 557.56 742.616 556.261C746.535 554.962 739.049 537.391 739.049 537.391L737.727 537.721Z" fill="white" stroke="#263238" stroke-linecap="round" stroke-linejoin="round"/>
<path d="M787.755 498.659C785.975 497.766 783.963 497.444 781.993 497.735C780.023 498.027 778.191 498.918 776.746 500.288C771.549 505.155 734.755 536.092 734.755 536.092L744.201 563.109L796.937 523.056C796.937 523.056 802.794 514.249 797.906 506.784" fill="white"/>
<path d="M787.755 498.659C785.975 497.766 783.963 497.444 781.993 497.735C780.023 498.027 778.191 498.918 776.746 500.288C771.549 505.155 734.755 536.092 734.755 536.092L744.201 563.109L796.937 523.056C796.937 523.056 802.794 514.249 797.906 506.784" stroke="#263238" stroke-linecap="round" stroke-linejoin="round"/>
<path d="M832.983 722.154L824.638 729.509C824.638 729.509 812.857 731.953 813.342 735.388C813.826 738.823 831.992 736.863 835.361 736.863C838.73 736.863 849.101 733.428 850.576 729.993C852.052 726.558 845.181 722.154 845.181 722.154H832.983Z" fill="white" stroke="#263238" stroke-linecap="round" stroke-linejoin="round"/>
<path d="M915.401 719.204L911.481 729.993C911.481 729.993 900.185 734.903 901.176 737.854C902.167 740.804 925.199 739.307 927.181 736.863C929.163 734.419 926.19 720.679 926.19 720.679L915.401 719.204Z" fill="white" stroke="#263238" stroke-linecap="round" stroke-linejoin="round"/>
<path d="M260.152 186.404C260.152 186.404 264.072 194.948 276.49 196.577C295.691 199.109 309.519 180.525 310.84 163.835C312.162 147.144 310.51 131.466 310.51 123.275C310.51 115.084 308.308 98.1072 304.301 93.1969C300.293 88.2866 291.882 96.7861 285.65 109.865C279.419 122.945 276.843 130.145 269.62 141.595C262.398 153.045 257.862 160.906 257.202 169.405C256.986 175.216 257.991 181.007 260.152 186.404Z" fill="#263238" stroke="#263238" stroke-linecap="round" stroke-linejoin="round"/>
<path d="M212.062 312.332C212.062 312.332 195.393 300.882 193.103 298.262C190.813 295.642 187.533 300.244 189.492 307.422C191.452 314.6 203.563 328.032 206.821 328.032C210.08 328.032 215.981 316.252 215.981 316.252L212.062 312.332Z" fill="white" stroke="#263238" stroke-linecap="round" stroke-linejoin="round"/>
<path d="M206.514 315.283L208.341 309.756C203.047 306.218 197.96 302.38 193.104 298.262C190.902 295.664 187.533 300.244 189.493 307.422C191.452 314.6 203.563 328.032 206.822 328.032C208.605 328.032 211.226 324.575 213.097 321.426C209.949 318.74 206.514 315.283 206.514 315.283Z" fill="white" stroke="#263238" stroke-linecap="round" stroke-linejoin="round"/>
<path d="M247.051 241.034C247.051 241.034 218.272 280.294 212.062 285.843C205.853 291.392 201.603 294.651 201.603 294.651C194.452 293.703 187.352 292.394 180.333 290.732C173.463 288.772 168.244 288.111 170.204 293.682C172.163 299.253 192.113 310.02 197.353 311.672C202.594 313.323 202.902 311.342 204.862 309.69C206.822 308.039 214.352 298.24 220.562 292.361C226.771 286.482 244.122 276.331 250.992 261.534C257.862 246.737 258.501 237.973 254.912 238.304C252.158 238.773 249.502 239.695 247.051 241.034Z" fill="white" stroke="#263238" stroke-linecap="round" stroke-linejoin="round"/>
<path d="M254.912 238.414C252.165 238.848 249.509 239.733 247.051 241.034C247.051 241.034 218.272 280.294 212.062 285.843C208.804 288.772 206.095 291.04 204.246 292.449C208.02 293.807 211.401 296.076 214.088 299.055C216.29 296.633 218.492 294.188 220.562 292.207C226.793 286.328 244.122 276.177 250.992 261.38C257.862 246.583 258.501 238.083 254.912 238.414Z" fill="#263238" stroke="#263238" stroke-linecap="round" stroke-linejoin="round"/>
<path d="M320.991 223.705C320.991 223.705 270.611 229.584 260.152 231.874C249.693 234.164 246.082 237.115 245.091 239.735C244.1 242.355 212.062 312.398 212.062 312.398C212.062 312.398 212.062 315.349 215.981 316.318C215.981 316.318 245.421 284.61 251.961 277.079C258.501 269.549 264.732 256.139 264.732 256.139C264.732 256.139 315.376 266.929 334.401 259.09C353.425 251.251 354.35 235.221 353.69 231.94C353.029 228.659 320.991 223.705 320.991 223.705Z" fill="#263238" stroke="#263238" stroke-linecap="round" stroke-linejoin="round"/>
<path d="M308.55 136.046C311.279 140.277 313.792 144.642 316.081 149.126C317.38 152.407 310.51 169.736 311.501 175.945C312.492 182.155 324.25 197.524 324.25 202.368C324.25 207.212 315.09 224.608 315.09 224.608L353.69 234.098C353.69 234.098 355.892 204.658 355.892 187.329C355.892 170 342.482 146.439 334.951 140.23C327.421 134.021 319.912 126.16 319.912 126.16L308.55 136.046Z" fill="white" stroke="#263238" stroke-linecap="round" stroke-linejoin="round"/>
<path d="M306.151 87.516C303.57 86.0045 300.563 85.3841 297.595 85.7501C294.626 86.1162 291.861 87.4485 289.724 89.5417C286.73 92.3602 283.427 96.4558 283.427 100.727C283.786 111.081 287.67 121.001 294.436 128.846C301.967 137.015 310.466 139.305 316.037 137.015C321.608 134.725 322.907 123.275 318.966 110.592C315.024 97.909 312.36 91.6336 306.217 87.6921L306.151 87.516Z" fill="white" stroke="#263238" stroke-linecap="round" stroke-linejoin="round"/>
<path d="M303.002 96.1475C303.002 96.1475 311.171 104.647 314.76 106.276C318.349 107.906 318.701 103.656 318.041 96.4558C317.38 89.2555 308.881 82.0772 304.301 82.0772C299.721 82.0772 300.381 89.9161 303.002 96.1475Z" fill="#263238" stroke="#263238" stroke-linecap="round" stroke-linejoin="round"/>
<path d="M304.301 93.1969C303.077 102.156 299.072 110.505 292.851 117.066C282.391 128.075 265.701 147.496 261.781 158.286C258.402 167.277 257.834 177.083 260.152 186.404C257.748 182.533 256.262 178.163 255.808 173.629C255.354 169.095 255.943 164.517 257.532 160.245C262.75 144.832 272.945 128.846 273.562 115.106C274.178 101.366 275.521 84.2791 287.302 78.7963C299.082 73.3135 305.291 81.7469 304.301 93.1969Z" fill="#263238" stroke="#263238" stroke-linecap="round" stroke-linejoin="round"/>
<path d="M300.558 92.6464C300.558 92.6464 304.807 99.8027 292.102 113.3C279.397 126.798 267.771 138.16 267.771 138.16" stroke="white" stroke-width="0.5" stroke-linecap="round" stroke-linejoin="round"/>
<path d="M264.688 188.43C265.779 189.443 266.992 190.315 268.299 191.028" stroke="white" stroke-width="0.5" stroke-linecap="round" stroke-linejoin="round"/>
<path d="M288.667 125.675C288.667 125.675 269.62 144.458 262.244 157.163C256.827 166.455 256.937 177.178 261.539 184.533" stroke="white" stroke-width="0.5" stroke-linecap="round" stroke-linejoin="round"/>
<path d="M277.371 111.429C276.482 111.692 275.566 111.854 274.641 111.913" stroke="white" stroke-width="0.5" stroke-linecap="round" stroke-linejoin="round"/>
<path d="M297.343 84.147C297.343 84.147 291.97 102.907 281.357 109.601" stroke="white" stroke-width="0.5" stroke-linecap="round" stroke-linejoin="round"/>
<path d="M335.04 140.296C332.089 137.852 329.138 135.166 326.628 132.787C323.38 137.805 319.157 142.118 314.209 145.471C314.901 146.653 315.526 147.873 316.081 149.126C317.38 152.407 310.51 169.736 311.501 175.945C312.492 182.155 324.25 197.524 324.25 202.368C324.25 207.212 315.09 224.608 315.09 224.608L353.69 234.098C353.69 234.098 355.892 204.658 355.892 187.329C355.892 170 342.57 146.505 335.04 140.296Z" fill="#09BBB5" stroke="#263238" stroke-linecap="round" stroke-linejoin="round"/>
<path d="M323.282 149.126C323.282 149.126 315.751 153.706 321.63 165.486C327.509 177.266 342.901 198.185 342.901 198.185C342.901 198.185 321.63 215.205 317.38 218.795C313.929 221.519 309.899 223.417 305.6 224.343C304.631 224.343 294.48 222.384 292.851 222.714C291.222 223.044 284.352 226.964 286.245 227.624C288.97 227.896 291.72 227.785 294.414 227.294C297.505 228.808 300.822 229.805 304.235 230.245C308.815 230.575 314.694 226.964 314.694 226.964C314.694 226.964 359.503 204.724 362.784 201.135C366.065 197.546 341.183 151.416 338.255 148.135C336.452 146.176 334.022 144.907 331.385 144.546" fill="#09BBB5"/>
<path d="M323.282 149.126C323.282 149.126 315.751 153.706 321.63 165.486C327.509 177.266 342.901 198.185 342.901 198.185C342.901 198.185 321.63 215.205 317.38 218.795C313.929 221.519 309.899 223.417 305.6 224.343C304.631 224.343 294.48 222.384 292.851 222.714C291.222 223.044 284.352 226.964 286.245 227.624C288.97 227.896 291.72 227.785 294.414 227.294C297.505 228.808 300.822 229.805 304.235 230.245C308.815 230.575 314.694 226.964 314.694 226.964C314.694 226.964 359.503 204.724 362.784 201.135C366.065 197.546 341.183 151.416 338.255 148.135C336.452 146.176 334.022 144.907 331.385 144.546" stroke="#263238" stroke-linecap="round" stroke-linejoin="round"/>
<path d="M310.863 222.67C309.19 223.457 307.421 224.02 305.6 224.343C304.631 224.343 294.48 222.384 292.851 222.714C291.222 223.044 284.352 226.964 286.245 227.624C288.97 227.896 291.72 227.785 294.414 227.294C297.505 228.808 300.822 229.805 304.235 230.245C307.55 230.139 310.787 229.217 313.659 227.558L310.863 222.67Z" fill="white" stroke="#263238" stroke-linecap="round" stroke-linejoin="round"/>
<path d="M180.333 290.82C173.463 288.86 168.244 288.199 170.204 293.77C172.163 299.341 192.113 310.108 197.353 311.76C202.594 313.411 202.902 311.43 204.862 309.778C206.599 308.043 208.238 306.212 209.772 304.295L198.322 298.328L201.603 294.739C194.452 293.791 187.352 292.482 180.333 290.82Z" fill="white" stroke="#263238" stroke-linecap="round" stroke-linejoin="round"/>
<path d="M202.242 311.694C196.693 307.422 191.232 302.886 180.222 295.664C177.11 293.492 173.817 291.591 170.38 289.983C169.609 290.643 169.411 291.788 170.094 293.704C172.053 299.253 192.003 310.042 197.243 311.694C198.038 312.071 198.902 312.28 199.781 312.306C200.661 312.333 201.536 312.177 202.352 311.848L202.242 311.694Z" fill="#263238" stroke="#263238" stroke-linecap="round" stroke-linejoin="round"/>
<path d="M962.323 735.388H38V745.208H962.323V735.388Z" fill="#263238" stroke="#263238" stroke-linecap="round" stroke-linejoin="round"/>
</svg>
