<svg width="1012" height="760" viewBox="0 0 1012 760" fill="none" xmlns="http://www.w3.org/2000/svg">
<path d="M910.36 169.249H135.945V693.602H910.36V169.249Z" fill="white" stroke="#263238" stroke-linecap="round" stroke-linejoin="round"/>
<path d="M902.232 184.42H640.758V614.095H902.232V184.42Z" fill="white" stroke="#263238" stroke-linecap="round" stroke-linejoin="round"/>
<path d="M405.812 184.42H144.337V614.095H405.812V184.42Z" fill="white" stroke="#263238" stroke-linecap="round" stroke-linejoin="round"/>
<path d="M902.232 323.232L640.758 414.574V184.393H902.232V323.232Z" fill="#263238" stroke="#263238" stroke-linecap="round" stroke-linejoin="round"/>
<path d="M405.812 323.232L144.337 431.783V184.393H405.812V323.232Z" fill="#263238" stroke="#263238" stroke-linecap="round" stroke-linejoin="round"/>
<path d="M630.035 169.249H416.27V693.602H630.035V169.249Z" fill="#09BBB5" stroke="#263238" stroke-linecap="round" stroke-linejoin="round"/>
<path d="M428.37 455.611H617.936V673.798H428.37V455.611ZM428.37 189.027V407.213H617.936V189.027H428.37Z" fill="white" stroke="#263238" stroke-linecap="round" stroke-linejoin="round"/>
<path d="M617.936 648.911V622.038L484.763 673.798H552.832L617.936 648.911Z" fill="#263238"/>
<path d="M428.37 343.83L617.936 261.094V189.027H428.37V343.83Z" fill="#263238"/>
<path d="M541.739 407.213L617.936 378.09V353.997L481.003 407.213H541.739Z" fill="#263238"/>
<path d="M428.37 641.656L617.936 563.897V455.611H428.37V641.656Z" fill="#263238"/>
<path d="M923.731 179.231H125.143L204.994 37.8237H843.88L923.731 179.231Z" fill="#09BBB5" stroke="#263238" stroke-linecap="round" stroke-linejoin="round"/>
<path d="M125.143 179.601C125.143 180.581 124.984 181.561 124.984 182.54C124.84 188.443 125.877 194.315 128.037 199.81C130.196 205.306 133.432 210.314 137.556 214.539C141.68 218.765 146.607 222.123 152.048 224.416C157.489 226.709 163.334 227.89 169.238 227.89C175.143 227.89 180.987 226.709 186.428 224.416C191.869 222.123 196.797 218.765 200.92 214.539C205.044 210.314 208.281 205.306 210.44 199.81C212.599 194.315 213.637 188.443 213.492 182.54C213.492 181.561 213.492 180.581 213.36 179.601H125.143Z" fill="white" stroke="#263238" stroke-linecap="round" stroke-linejoin="round"/>
<path d="M213.837 179.601C213.837 180.581 213.678 181.561 213.678 182.54C213.534 188.443 214.572 194.315 216.731 199.81C218.89 205.306 222.126 210.314 226.25 214.539C230.374 218.765 235.301 222.123 240.742 224.416C246.183 226.709 252.028 227.89 257.932 227.89C263.837 227.89 269.681 226.709 275.122 224.416C280.563 222.123 285.491 218.765 289.615 214.539C293.738 210.314 296.975 205.306 299.134 199.81C301.293 194.315 302.331 188.443 302.186 182.54C302.186 181.561 302.186 180.581 302.054 179.601H213.837Z" fill="#09BBB5" stroke="#263238" stroke-linecap="round" stroke-linejoin="round"/>
<path d="M302.53 179.601C302.53 180.581 302.371 181.561 302.371 182.54C302.227 188.443 303.265 194.315 305.424 199.81C307.583 205.306 310.819 210.314 314.943 214.539C319.067 218.765 323.994 222.123 329.435 224.416C334.876 226.709 340.721 227.89 346.625 227.89C352.53 227.89 358.374 226.709 363.816 224.416C369.257 222.123 374.184 218.765 378.308 214.539C382.431 210.314 385.668 205.306 387.827 199.81C389.986 194.315 391.024 188.443 390.88 182.54C390.88 181.561 390.88 180.581 390.747 179.601H302.53Z" fill="white" stroke="#263238" stroke-linecap="round" stroke-linejoin="round"/>
<path d="M391.224 179.601C391.224 180.581 391.065 181.561 391.065 182.54C390.921 188.443 391.959 194.315 394.118 199.81C396.277 205.306 399.514 210.314 403.637 214.539C407.761 218.765 412.688 222.123 418.129 224.416C423.57 226.709 429.415 227.89 435.319 227.89C441.224 227.89 447.069 226.709 452.51 224.416C457.951 222.123 462.878 218.765 467.002 214.539C471.125 210.314 474.362 205.306 476.521 199.81C478.68 194.315 479.718 188.443 479.574 182.54C479.574 181.561 479.574 180.581 479.441 179.601H391.224Z" fill="#09BBB5" stroke="#263238" stroke-linecap="round" stroke-linejoin="round"/>
<path d="M479.918 179.601C479.918 180.581 479.759 181.561 479.759 182.54C479.614 188.443 480.652 194.315 482.811 199.81C484.971 205.306 488.207 210.314 492.331 214.539C496.454 218.765 501.382 222.123 506.823 224.416C512.264 226.709 518.109 227.89 524.013 227.89C529.917 227.89 535.762 226.709 541.203 224.416C546.644 222.123 551.572 218.765 555.695 214.539C559.819 210.314 563.056 205.306 565.215 199.81C567.374 194.315 568.412 188.443 568.267 182.54C568.267 181.561 568.267 180.581 568.135 179.601H479.918Z" fill="white" stroke="#263238" stroke-linecap="round" stroke-linejoin="round"/>
<path d="M568.612 179.601C568.612 180.581 568.453 181.561 568.453 182.54C568.309 188.443 569.346 194.315 571.506 199.81C573.665 205.306 576.901 210.314 581.025 214.539C585.149 218.765 590.076 222.123 595.517 224.416C600.958 226.709 606.803 227.89 612.707 227.89C618.612 227.89 624.456 226.709 629.897 224.416C635.338 222.123 640.266 218.765 644.389 214.539C648.513 210.314 651.75 205.306 653.909 199.81C656.068 194.315 657.106 188.443 656.961 182.54C656.961 181.561 656.961 180.581 656.829 179.601H568.612Z" fill="#09BBB5" stroke="#263238" stroke-linecap="round" stroke-linejoin="round"/>
<path d="M657.305 179.601C657.305 180.581 657.146 181.561 657.146 182.54C657.002 188.443 658.04 194.315 660.199 199.81C662.358 205.306 665.594 210.314 669.718 214.539C673.842 218.765 678.769 222.123 684.21 224.416C689.651 226.709 695.496 227.89 701.4 227.89C707.305 227.89 713.149 226.709 718.59 224.416C724.031 222.123 728.959 218.765 733.083 214.539C737.206 210.314 740.443 205.306 742.602 199.81C744.761 194.315 745.799 188.443 745.654 182.54C745.654 181.561 745.655 180.581 745.522 179.601H657.305Z" fill="white" stroke="#263238" stroke-linecap="round" stroke-linejoin="round"/>
<path d="M745.999 179.601C745.999 180.581 745.84 181.561 745.84 182.54C745.696 188.443 746.734 194.315 748.893 199.81C751.052 205.306 754.289 210.314 758.412 214.539C762.536 218.765 767.463 222.123 772.904 224.416C778.345 226.709 784.19 227.89 790.095 227.89C795.999 227.89 801.844 226.709 807.285 224.416C812.726 222.123 817.653 218.765 821.777 214.539C825.901 210.314 829.137 205.306 831.296 199.81C833.455 194.315 834.493 188.443 834.349 182.54C834.349 181.561 834.349 180.581 834.216 179.601H745.999Z" fill="#09BBB5" stroke="#263238" stroke-linecap="round" stroke-linejoin="round"/>
<path d="M834.693 179.601C834.693 180.581 834.534 181.561 834.534 182.54C834.389 188.443 835.427 194.315 837.586 199.81C839.745 205.306 842.982 210.314 847.106 214.539C851.229 218.765 856.157 222.123 861.598 224.416C867.039 226.709 872.884 227.89 878.788 227.89C884.692 227.89 890.537 226.709 895.978 224.416C901.419 222.123 906.347 218.765 910.47 214.539C914.594 210.314 917.831 205.306 919.99 199.81C922.149 194.315 923.187 188.443 923.042 182.54C923.042 181.561 923.042 180.581 922.91 179.601H834.693Z" fill="white" stroke="#263238" stroke-linecap="round" stroke-linejoin="round"/>
<path d="M459.426 286.908L523.365 252.489L586.88 286.908" stroke="white" stroke-linecap="round" stroke-linejoin="round"/>
<path d="M529.613 252.489C529.613 251.253 529.246 250.045 528.559 249.018C527.873 247.99 526.897 247.189 525.755 246.716C524.614 246.244 523.357 246.12 522.145 246.361C520.933 246.602 519.82 247.197 518.946 248.071C518.072 248.945 517.477 250.058 517.236 251.27C516.995 252.482 517.119 253.739 517.592 254.88C518.064 256.022 518.865 256.998 519.893 257.684C520.92 258.371 522.128 258.737 523.364 258.737C525.021 258.737 526.611 258.079 527.782 256.907C528.954 255.736 529.613 254.146 529.613 252.489Z" fill="white" stroke="#263238" stroke-linecap="round" stroke-linejoin="round"/>
<path d="M586.88 286.908H459.426V349.973H586.88V286.908Z" fill="#09BBB5" stroke="#263238" stroke-linecap="round" stroke-linejoin="round"/>
<path d="M473.168 306.672C473.168 307.456 473.027 308.134 472.743 308.706C472.46 309.277 472.071 309.718 471.578 310.028C471.084 310.338 470.519 310.492 469.885 310.492C469.251 310.492 468.687 310.338 468.193 310.028C467.699 309.718 467.31 309.277 467.027 308.706C466.743 308.134 466.602 307.456 466.602 306.672C466.602 305.887 466.743 305.209 467.027 304.638C467.31 304.066 467.699 303.626 468.193 303.316C468.687 303.006 469.251 302.851 469.885 302.851C470.519 302.851 471.084 303.006 471.578 303.316C472.071 303.626 472.46 304.066 472.743 304.638C473.027 305.209 473.168 305.887 473.168 306.672ZM472.297 306.672C472.297 306.028 472.189 305.484 471.973 305.041C471.76 304.598 471.471 304.263 471.105 304.035C470.742 303.807 470.335 303.694 469.885 303.694C469.435 303.694 469.027 303.807 468.661 304.035C468.298 304.263 468.009 304.598 467.793 305.041C467.58 305.484 467.474 306.028 467.474 306.672C467.474 307.316 467.58 307.859 467.793 308.302C468.009 308.746 468.298 309.081 468.661 309.308C469.027 309.536 469.435 309.65 469.885 309.65C470.335 309.65 470.742 309.536 471.105 309.308C471.471 309.081 471.76 308.746 471.973 308.302C472.189 307.859 472.297 307.316 472.297 306.672ZM474.683 310.391V302.953H477.196C477.78 302.953 478.257 303.058 478.627 303.269C479 303.477 479.276 303.759 479.455 304.115C479.634 304.471 479.724 304.868 479.724 305.306C479.724 305.744 479.634 306.143 479.455 306.501C479.278 306.859 479.005 307.145 478.634 307.358C478.264 307.569 477.789 307.674 477.211 307.674H475.409V306.875H477.181C477.581 306.875 477.902 306.806 478.144 306.668C478.386 306.53 478.562 306.344 478.671 306.109C478.782 305.872 478.838 305.604 478.838 305.306C478.838 305.008 478.782 304.742 478.671 304.507C478.562 304.272 478.385 304.088 478.14 303.955C477.896 303.82 477.571 303.752 477.167 303.752H475.583V310.391H474.683ZM481.175 310.391V302.953H485.664V303.752H482.075V306.265H485.431V307.064H482.075V309.592H485.722V310.391H481.175ZM493.185 302.953V310.391H492.314L488.261 304.551H488.188V310.391H487.287V302.953H488.159L492.227 308.807H492.299V302.953H493.185ZM494.988 310.391V302.953H499.477V303.752H495.888V306.265H499.244V307.064H495.888V309.592H499.535V310.391H494.988ZM503.395 310.391H501.1V302.953H503.497C504.219 302.953 504.836 303.102 505.349 303.399C505.863 303.695 506.256 304.12 506.53 304.674C506.803 305.226 506.94 305.887 506.94 306.657C506.94 307.432 506.802 308.099 506.526 308.658C506.25 309.215 505.848 309.644 505.32 309.944C504.792 310.242 504.151 310.391 503.395 310.391ZM502.001 309.592H503.337C503.952 309.592 504.462 309.473 504.866 309.236C505.271 308.999 505.572 308.661 505.771 308.223C505.969 307.784 506.068 307.263 506.068 306.657C506.068 306.057 505.97 305.54 505.774 305.106C505.578 304.671 505.285 304.336 504.895 304.104C504.506 303.869 504.02 303.752 503.439 303.752H502.001V309.592Z" fill="#263238"/>
<path d="M610.205 447.351C617.37 447.351 623.178 441.542 623.178 434.378C623.178 427.213 617.37 421.404 610.205 421.404C603.04 421.404 597.232 427.213 597.232 434.378C597.232 441.542 603.04 447.351 610.205 447.351Z" fill="white" stroke="#263238" stroke-linecap="round" stroke-linejoin="round"/>
<path d="M610.205 437.687C612.033 437.687 613.515 436.205 613.515 434.378C613.515 432.55 612.033 431.068 610.205 431.068C608.377 431.068 606.896 432.55 606.896 434.378C606.896 436.205 608.377 437.687 610.205 437.687Z" fill="white" stroke="#263238" stroke-linecap="round" stroke-linejoin="round"/>
<path d="M1003.16 707.581H43.0411C41.8754 707.588 40.7198 707.364 39.6408 706.923C38.5618 706.482 37.5807 705.831 36.754 705.01C35.9272 704.188 35.2711 703.211 34.8234 702.134C34.3757 701.058 34.1452 699.904 34.1453 698.738C34.1452 697.573 34.3759 696.421 34.8239 695.346C35.2719 694.271 35.9284 693.295 36.7556 692.476C37.5827 691.656 38.564 691.008 39.6428 690.57C40.7217 690.131 41.8767 689.911 43.0411 689.922H1003.16C1005.5 689.922 1007.74 690.85 1009.39 692.504C1011.05 694.157 1011.97 696.4 1011.97 698.738C1011.97 701.079 1011.05 703.324 1009.39 704.982C1007.74 706.639 1005.5 707.574 1003.16 707.581Z" fill="#263238"/>
<path d="M188.816 286.352V304.196H183.23V284.631C183.233 283.53 183.02 282.439 182.601 281.421C182.182 280.403 181.566 279.477 180.789 278.698C180.012 277.918 179.088 277.299 178.071 276.877C177.055 276.455 175.964 276.238 174.864 276.238C172.638 276.238 170.503 277.122 168.929 278.696C167.355 280.27 166.471 282.405 166.471 284.631V308.935H161.176V296.042C161.176 294.445 160.543 292.914 159.417 291.783C158.291 290.651 156.762 290.012 155.166 290.005C153.565 290.005 152.029 290.641 150.897 291.773C149.765 292.905 149.129 294.441 149.129 296.042V315.819C149.136 316.847 149.549 317.83 150.278 318.554C151.008 319.278 151.993 319.685 153.021 319.685H166.259V334.299H183.018V315.369H194.641C195.891 315.369 197.09 314.873 197.973 313.989C198.857 313.105 199.354 311.906 199.354 310.656V286.352C199.354 284.947 198.796 283.6 197.803 282.607C196.81 281.614 195.463 281.056 194.058 281.056C192.663 281.07 191.33 281.634 190.348 282.626C189.367 283.618 188.816 284.956 188.816 286.352Z" fill="#09BBB5"/>
<path d="M189.77 333.134H160.302V360.457H189.77V333.134Z" fill="white" stroke="#263238" stroke-linecap="round" stroke-linejoin="round"/>
<path d="M191.491 326.648H158.528V335.438H191.491V326.648Z" fill="white" stroke="#263238" stroke-linecap="round" stroke-linejoin="round"/>
<path d="M180.503 434.616L169.754 417.433L176.929 418.148L176.214 408.113L184.104 418.148L184.819 387.33L190.538 407.399L197.713 381.585L199.857 411.688L214.207 396.65L204.173 420.292L214.207 416.718L194.853 438.216L180.503 434.616Z" fill="#09BBB5"/>
<path d="M204.49 436.946H175.023V464.269H204.49V436.946Z" fill="white" stroke="#263238" stroke-linecap="round" stroke-linejoin="round"/>
<path d="M206.238 430.486H173.276V439.276H206.238V430.486Z" fill="white" stroke="#263238" stroke-linecap="round" stroke-linejoin="round"/>
<path d="M333.162 434.616L322.413 417.433L329.562 418.148L328.847 408.113L336.737 418.148L337.452 387.33L343.17 407.399L350.345 381.585L352.49 411.688L366.84 396.65L356.805 420.292L366.84 416.718L347.486 438.216L333.162 434.616Z" fill="#09BBB5"/>
<path d="M357.123 436.946H327.655V464.269H357.123V436.946Z" fill="white" stroke="#263238" stroke-linecap="round" stroke-linejoin="round"/>
<path d="M358.871 430.486H325.908V439.276H358.871V430.486Z" fill="white" stroke="#263238" stroke-linecap="round" stroke-linejoin="round"/>
<path d="M258.633 431.042C253.582 430.966 248.544 430.488 243.569 429.612C235.626 428.182 234.249 423.152 237.85 421.669C241.45 420.186 253.603 422.384 253.603 422.384C253.603 422.384 237.85 422.384 235.705 413.064C233.561 403.745 241.424 404.46 243.648 406.631C245.872 408.802 251.591 413.064 251.591 413.064C251.591 413.064 239.412 400.886 239.412 393.711C239.412 386.536 247.355 387.277 249.446 391.566C251.538 395.855 256.621 408.775 256.621 408.775C256.621 408.775 248.678 385.847 258.766 389.422C268.853 392.996 266.708 403.745 266.708 405.916V415.209C266.708 415.209 276.743 395.882 280.343 400.171C283.944 404.46 275.313 412.35 275.313 412.35C275.313 412.35 280.343 393.817 292.522 394.426C304.701 395.035 293.237 403.745 291.092 407.346C288.948 410.946 279.628 418.81 279.628 418.81C279.628 418.81 300.412 409.49 310.42 409.49C320.428 409.49 311.161 420.954 305.416 421.669C299.671 422.384 288.921 423.814 288.921 423.814C288.921 423.814 303.271 430.274 297.526 431.756C291.781 433.239 277.457 430.327 277.457 430.327L258.633 431.042Z" fill="#09BBB5"/>
<path d="M281.879 436.946H252.411V464.269H281.879V436.946Z" fill="white" stroke="#263238" stroke-linecap="round" stroke-linejoin="round"/>
<path d="M283.626 430.486H250.664V439.276H283.626V430.486Z" fill="white" stroke="#263238" stroke-linecap="round" stroke-linejoin="round"/>
<path d="M302.979 298.795V312.033H307.11V297.524C307.117 295.879 307.775 294.303 308.941 293.142C310.107 291.981 311.686 291.329 313.331 291.329C314.975 291.329 316.55 291.982 317.712 293.144C318.874 294.305 319.527 295.881 319.527 297.524V315.528H323.366V306.023C323.366 304.843 323.834 303.712 324.669 302.878C325.503 302.044 326.634 301.575 327.814 301.575C328.996 301.575 330.13 302.043 330.968 302.876C331.807 303.71 332.281 304.841 332.288 306.023V320.691C332.281 321.451 331.974 322.179 331.434 322.714C330.893 323.25 330.163 323.55 329.402 323.55H319.527V334.379H307.11V320.373H298.505C297.576 320.366 296.687 319.992 296.032 319.332C295.378 318.673 295.01 317.781 295.01 316.852V298.875C295.01 297.819 295.428 296.806 296.172 296.057C296.916 295.308 297.926 294.884 298.982 294.877C300.026 294.883 301.027 295.296 301.773 296.027C302.52 296.758 302.952 297.751 302.979 298.795Z" fill="#09BBB5"/>
<path d="M326.702 333.134H297.235V360.457H326.702V333.134Z" fill="white" stroke="#263238" stroke-linecap="round" stroke-linejoin="round"/>
<path d="M328.423 326.648H295.461V335.438H328.423V326.648Z" fill="white" stroke="#263238" stroke-linecap="round" stroke-linejoin="round"/>
<path d="M189.214 506.736V519.974H193.344V505.465C193.344 503.822 193.997 502.246 195.158 501.084C196.32 499.922 197.896 499.27 199.539 499.27C201.185 499.27 202.763 499.922 203.929 501.083C205.095 502.244 205.754 503.819 205.761 505.465V523.469H209.573V513.911C209.58 512.729 210.055 511.597 210.893 510.764C211.732 509.931 212.866 509.463 214.048 509.463C215.228 509.463 216.359 509.931 217.193 510.766C218.027 511.6 218.496 512.731 218.496 513.911V528.552C218.499 528.93 218.428 529.304 218.286 529.654C218.144 530.004 217.934 530.323 217.668 530.591C217.402 530.859 217.085 531.072 216.737 531.218C216.388 531.363 216.014 531.438 215.636 531.438H205.761V542.266H193.344V528.234H184.739C183.812 528.234 182.923 527.866 182.268 527.211C181.613 526.555 181.244 525.666 181.244 524.739V506.736C181.244 505.683 181.663 504.672 182.408 503.928C183.152 503.183 184.162 502.764 185.216 502.764C186.271 502.764 187.284 503.182 188.033 503.926C188.782 504.67 189.207 505.68 189.214 506.736Z" fill="#09BBB5"/>
<path d="M212.909 541.075H183.441V568.398H212.909V541.075Z" fill="white" stroke="#263238" stroke-linecap="round" stroke-linejoin="round"/>
<path d="M214.657 534.615H181.694V543.405H214.657V534.615Z" fill="white" stroke="#263238" stroke-linecap="round" stroke-linejoin="round"/>
<path d="M335.333 506.736V519.974H339.49V505.465C339.49 503.822 340.143 502.246 341.305 501.084C342.466 499.922 344.042 499.27 345.685 499.27C347.331 499.27 348.909 499.922 350.075 501.083C351.242 502.244 351.9 503.819 351.907 505.465V523.469H355.72V513.911C355.727 512.729 356.201 511.597 357.039 510.764C357.878 509.931 359.012 509.463 360.194 509.463C361.374 509.463 362.505 509.931 363.339 510.766C364.173 511.6 364.642 512.731 364.642 513.911V528.552C364.645 528.93 364.574 529.304 364.432 529.654C364.29 530.004 364.08 530.323 363.814 530.591C363.548 530.859 363.232 531.072 362.883 531.218C362.534 531.363 362.16 531.438 361.783 531.438H351.854V542.266H339.437V528.234H330.832C329.906 528.234 329.017 527.866 328.361 527.211C327.706 526.555 327.338 525.666 327.338 524.739V506.736C327.338 505.683 327.756 504.672 328.501 503.928C329.246 503.183 330.256 502.764 331.309 502.764C331.835 502.757 332.357 502.855 332.845 503.051C333.333 503.248 333.777 503.539 334.151 503.909C334.526 504.278 334.823 504.718 335.026 505.204C335.229 505.689 335.333 506.21 335.333 506.736Z" fill="#09BBB5"/>
<path d="M359.056 541.075H329.588V568.398H359.056V541.075Z" fill="white" stroke="#263238" stroke-linecap="round" stroke-linejoin="round"/>
<path d="M360.803 534.615H327.84V543.405H360.803V534.615Z" fill="white" stroke="#263238" stroke-linecap="round" stroke-linejoin="round"/>
<path d="M260.407 540.519C257.629 535.971 254.164 531.88 250.134 528.393C243.621 522.78 241.741 509.727 241.741 509.727C241.741 509.727 244.548 508.801 250.134 514.387C253.828 518.288 256.964 522.68 259.453 527.44C257.719 520.385 256.471 513.22 255.72 505.994C255.72 500.408 265.066 486.429 265.066 486.429C266.434 491.305 267.364 496.293 267.846 501.335V522.78C271.22 516.208 275.637 510.226 280.925 505.068C286.409 500.74 292.714 497.57 299.458 495.748C299.458 495.748 300.385 506.948 296.652 510.654C292.919 514.361 277.086 527.44 277.086 527.44L298.532 523.733L277.086 536.786C277.086 536.786 273.062 542.081 269.62 540.519C266.601 539.721 263.426 539.721 260.407 540.519Z" fill="#09BBB5"/>
<path d="M281.005 541.075H251.538V568.398H281.005V541.075Z" fill="white" stroke="#263238" stroke-linecap="round" stroke-linejoin="round"/>
<path d="M282.752 534.615H249.79V543.405H282.752V534.615Z" fill="white" stroke="#263238" stroke-linecap="round" stroke-linejoin="round"/>
<path d="M352.49 327.204C352.49 327.204 343.197 319.261 340.311 316.455C337.425 313.648 330.276 305.705 336.022 308.512C340.286 310.831 344.359 313.487 348.201 316.455C348.201 316.455 343.197 301.416 343.197 297.101C343.197 292.785 350.345 295.671 353.946 302.846C357.546 310.021 359.665 315.025 359.665 315.025C359.665 315.025 353.204 286.352 358.95 284.922C364.695 283.492 366.125 303.455 366.125 303.455C366.125 303.455 371.129 268.348 378.303 276.211C385.478 284.075 373.273 304.885 373.273 304.885C373.273 304.885 387.623 294.85 384.737 302.74C383.757 305.161 382.3 307.36 380.454 309.206C378.607 311.053 376.408 312.509 373.988 313.489C373.988 313.489 394.771 308.459 389.053 316.349C383.334 324.238 364.695 330.699 364.695 330.699L352.49 327.204Z" fill="#09BBB5"/>
<path d="M377.509 333.134H348.041V360.457H377.509V333.134Z" fill="white" stroke="#263238" stroke-linecap="round" stroke-linejoin="round"/>
<path d="M379.257 326.648H346.294V335.438H379.257V326.648Z" fill="white" stroke="#263238" stroke-linecap="round" stroke-linejoin="round"/>
<path d="M237.849 327.204C237.849 327.204 228.53 319.261 225.67 316.455C222.811 313.648 215.636 305.705 221.355 308.512C225.624 310.824 229.697 313.48 233.534 316.455C233.534 316.455 228.53 301.416 228.53 297.101C228.53 292.785 235.705 295.671 239.279 302.846C242.853 310.021 244.998 315.025 244.998 315.025C244.998 315.025 238.564 286.352 244.283 284.922C250.002 283.492 251.458 303.455 251.458 303.455C251.458 303.455 256.488 268.348 263.637 276.211C270.785 284.075 258.633 304.885 258.633 304.885C258.633 304.885 272.956 294.85 270.097 302.74C269.113 305.158 267.655 307.355 265.809 309.201C263.963 311.047 261.766 312.505 259.348 313.489C259.348 313.489 280.131 308.459 274.386 316.349C268.641 324.238 250.028 330.699 250.028 330.699L237.849 327.204Z" fill="#09BBB5"/>
<path d="M262.843 333.134H233.375V360.457H262.843V333.134Z" fill="white" stroke="#263238" stroke-linecap="round" stroke-linejoin="round"/>
<path d="M264.59 326.648H231.627V335.438H264.59V326.648Z" fill="white" stroke="#263238" stroke-linecap="round" stroke-linejoin="round"/>
<path d="M407.453 358.975H145.343V372.212H407.453V358.975Z" fill="#09BBB5" stroke="#263238" stroke-linecap="round" stroke-linejoin="round"/>
<path d="M407.453 463.342H145.343V476.58H407.453V463.342Z" fill="#09BBB5" stroke="#263238" stroke-linecap="round" stroke-linejoin="round"/>
<path d="M407.453 567.709H145.343V580.947H407.453V567.709Z" fill="#09BBB5" stroke="#263238" stroke-linecap="round" stroke-linejoin="round"/>
<path d="M154.61 358.975H145.343V693.866H154.61V358.975Z" fill="#09BBB5" stroke="#263238" stroke-linecap="round" stroke-linejoin="round"/>
<path d="M407.453 358.975H398.187V693.866H407.453V358.975Z" fill="#09BBB5" stroke="#263238" stroke-linecap="round" stroke-linejoin="round"/>
<path d="M784.124 619.31C778.182 610.174 774.022 599.996 771.866 589.313C769.228 576.421 767.302 563.393 766.094 550.288C764.638 537.289 761.752 516.134 761.752 516.134C761.752 516.134 776.181 535.647 778.352 544.596C780.523 553.545 784.124 563.288 785.58 574.672C787.036 586.057 789.181 593.364 789.896 598.262C790.61 603.16 790.637 615.313 790.637 615.313C790.637 615.313 791.352 578.75 789.181 561.673C787.01 544.596 784.865 530.776 785.58 517.776C786.295 504.776 786.295 502.341 787.01 494.213C787.724 486.085 788.466 470.623 788.466 470.623C788.466 470.623 797.123 497.443 800.724 514.52C804.325 531.596 802.895 537.289 804.351 551.903C805.807 566.518 806.522 569.801 805.066 577.108C803.61 584.416 804.351 585.236 802.18 595.006C801.483 599.197 800.273 603.288 798.58 607.185C798.58 607.185 808.667 581.185 811.553 567.471C813.828 556.562 817.217 545.916 821.666 535.7C823.671 530.893 826.09 526.269 828.894 521.88L840.438 502.394C840.438 502.394 841.153 531.649 837.552 542.107C833.951 552.565 832.495 560.799 828.153 570.569C824.962 577.221 823.006 584.398 822.381 591.749C821.666 598.262 821.666 603.928 818.781 608.005C815.895 612.083 815.18 617.748 813.009 620.184C811.261 622.013 809.326 623.655 807.237 625.082C807.237 625.082 824.552 598.262 828.894 591.749C833.236 585.236 833.21 583.621 839.723 579.544C846.236 575.467 849.81 573.057 849.81 573.057C849.81 573.057 836.837 602.313 833.21 608.005C829.583 613.698 827.438 621.005 822.381 625.082C819.558 627.319 816.903 629.762 814.439 632.39H771.866C771.866 632.39 763.208 621.005 761.752 610.441C760.296 599.877 759.581 589.261 759.581 589.261C763.639 592.564 767.503 596.1 771.151 599.851C774.751 603.849 784.124 619.31 784.124 619.31Z" fill="#09BBB5"/>
<path d="M835.381 631.728H761.858V693.575H835.381V631.728Z" fill="white" stroke="#263238" stroke-linecap="round" stroke-linejoin="round"/>
<path d="M839.776 623.573H757.489V636.996H839.776V623.573Z" fill="white" stroke="#263238" stroke-linecap="round" stroke-linejoin="round"/>
<path d="M868.794 422.516C876.961 420.063 883.86 414.54 888.042 407.107C892.084 399.98 893.472 391.651 891.96 383.597C891.96 383.597 874.168 391.169 869.614 401.521C867.828 405.704 866.927 410.211 866.967 414.759C860.189 401.892 831.939 393.393 831.939 393.393C831.939 393.393 835.99 416.162 844.939 423.469C851.611 428.923 860.057 434.828 863.949 437.475V457.623C860.081 451.844 854.604 447.324 848.196 444.624C837.605 440.546 819.734 447.854 819.734 447.854C824.378 454.644 831.3 459.547 839.247 461.674C847.548 463.967 856.417 462.912 863.949 458.735V490.162C860.093 484.365 854.613 479.834 848.196 477.136C837.605 473.059 819.734 480.392 819.734 480.392C824.393 487.168 831.309 492.067 839.247 494.213C847.552 496.486 856.417 495.422 863.949 491.247V514.546C860.093 508.749 854.613 504.218 848.196 501.52C837.605 497.443 819.734 504.777 819.734 504.777C824.393 511.552 831.309 516.451 839.247 518.597C847.552 520.87 856.417 519.806 863.949 515.632V551.109C860.078 545.326 854.603 540.799 848.196 538.083C837.605 534.032 819.734 541.34 819.734 541.34C824.378 548.13 831.3 553.033 839.247 555.16C847.549 557.438 856.413 556.384 863.949 552.221V583.621C860.081 577.842 854.604 573.322 848.196 570.622C837.605 566.544 819.734 573.852 819.734 573.852C824.378 580.642 831.3 585.545 839.247 587.672C847.548 589.965 856.417 588.91 863.949 584.733V637.261C863.949 637.612 864.088 637.949 864.336 638.197C864.585 638.446 864.921 638.585 865.272 638.585C865.624 638.585 865.96 638.446 866.208 638.197C866.457 637.949 866.596 637.612 866.596 637.261V438.137C867.523 436.575 869.376 432.233 868.794 422.516Z" fill="#09BBB5"/>
<path d="M883.144 444.544C876.441 447.382 870.768 452.205 866.888 458.364C870.666 460.545 874.839 461.954 879.166 462.508C883.493 463.063 887.887 462.752 892.093 461.594C900.039 459.468 906.962 454.565 911.605 447.774C911.605 447.774 893.708 440.467 883.144 444.544Z" fill="#09BBB5"/>
<path d="M883.144 476.236C876.447 479.084 870.777 483.905 866.888 490.056C870.665 492.237 874.838 493.648 879.164 494.207C883.49 494.765 887.885 494.462 892.093 493.312C900.03 491.166 906.947 486.268 911.605 479.492C911.605 479.492 893.708 472.185 883.144 476.236Z" fill="#09BBB5"/>
<path d="M883.144 500.62C876.447 503.468 870.777 508.289 866.888 514.44C870.665 516.621 874.838 518.032 879.164 518.591C883.49 519.15 887.885 518.846 892.093 517.697C900.03 515.551 906.947 510.652 911.605 503.876C911.605 503.876 893.708 496.648 883.144 500.62Z" fill="#09BBB5"/>
<path d="M883.144 538.004C876.447 540.852 870.777 545.673 866.888 551.824C870.663 554.012 874.836 555.427 879.163 555.986C883.49 556.545 887.885 556.237 892.093 555.08C900.039 552.954 906.962 548.051 911.605 541.26C911.605 541.26 893.708 533.953 883.144 538.004Z" fill="#09BBB5"/>
<path d="M883.144 570.542C876.441 573.381 870.768 578.204 866.888 584.363C870.666 586.543 874.839 587.952 879.166 588.506C883.493 589.061 887.887 588.75 892.093 587.593C900.039 585.466 906.962 580.563 911.605 573.772C911.605 573.772 893.708 566.465 883.144 570.542Z" fill="#09BBB5"/>
<g opacity="0.5">
<path d="M868.794 422.516C876.961 420.063 883.86 414.54 888.042 407.107C892.084 399.98 893.472 391.651 891.96 383.597C891.96 383.597 874.168 391.169 869.614 401.521C867.828 405.704 866.927 410.211 866.967 414.759C860.189 401.892 831.939 393.393 831.939 393.393C831.939 393.393 835.99 416.162 844.939 423.469C851.611 428.923 860.057 434.828 863.949 437.475V457.623C860.081 451.844 854.604 447.324 848.196 444.624C837.605 440.546 819.734 447.854 819.734 447.854C824.378 454.644 831.3 459.547 839.247 461.674C847.548 463.967 856.417 462.912 863.949 458.735V490.162C860.093 484.365 854.613 479.834 848.196 477.136C837.605 473.059 819.734 480.392 819.734 480.392C824.393 487.168 831.309 492.067 839.247 494.213C847.552 496.486 856.417 495.422 863.949 491.247V514.546C860.093 508.749 854.613 504.218 848.196 501.52C837.605 497.443 819.734 504.777 819.734 504.777C824.393 511.552 831.309 516.451 839.247 518.597C847.552 520.87 856.417 519.806 863.949 515.632V551.109C860.078 545.326 854.603 540.799 848.196 538.083C837.605 534.032 819.734 541.34 819.734 541.34C824.378 548.13 831.3 553.033 839.247 555.16C847.549 557.438 856.413 556.384 863.949 552.221V583.621C860.081 577.842 854.604 573.322 848.196 570.622C837.605 566.544 819.734 573.852 819.734 573.852C824.378 580.642 831.3 585.545 839.247 587.672C847.548 589.965 856.417 588.91 863.949 584.733V637.261C863.949 637.612 864.088 637.949 864.336 638.197C864.585 638.446 864.921 638.585 865.272 638.585C865.624 638.585 865.96 638.446 866.208 638.197C866.457 637.949 866.596 637.612 866.596 637.261V438.137C867.523 436.575 869.376 432.233 868.794 422.516Z" fill="black"/>
<path d="M883.144 444.544C876.441 447.382 870.767 452.206 866.887 458.364C870.665 460.545 874.839 461.954 879.166 462.508C883.493 463.063 887.887 462.752 892.092 461.594C900.039 459.468 906.961 454.565 911.605 447.774C911.605 447.774 893.707 440.467 883.144 444.544Z" fill="black"/>
<path d="M883.144 476.236C876.447 479.084 870.777 483.905 866.887 490.056C870.665 492.237 874.838 493.648 879.164 494.207C883.49 494.766 887.884 494.462 892.092 493.312C900.03 491.166 906.946 486.268 911.605 479.492C911.605 479.492 893.707 472.185 883.144 476.236Z" fill="black"/>
<path d="M883.144 500.62C876.447 503.468 870.777 508.289 866.887 514.44C870.665 516.621 874.838 518.032 879.164 518.591C883.49 519.15 887.884 518.846 892.092 517.697C900.03 515.551 906.946 510.652 911.605 503.876C911.605 503.876 893.707 496.648 883.144 500.62Z" fill="black"/>
<path d="M883.144 538.004C876.447 540.852 870.777 545.673 866.887 551.824C870.663 554.012 874.835 555.427 879.163 555.986C883.49 556.545 887.885 556.237 892.092 555.08C900.039 552.954 906.961 548.051 911.605 541.26C911.605 541.26 893.707 533.953 883.144 538.004Z" fill="black"/>
<path d="M883.144 570.542C876.441 573.381 870.767 578.204 866.887 584.363C870.665 586.543 874.839 587.952 879.166 588.506C883.493 589.061 887.887 588.75 892.092 587.593C900.039 585.466 906.961 580.563 911.605 573.772C911.605 573.772 893.707 566.465 883.144 570.542Z" fill="black"/>
</g>
<path d="M882.217 631.728H852.749V693.575H882.217V631.728Z" fill="white" stroke="#263238" stroke-linecap="round" stroke-linejoin="round"/>
<path d="M883.964 623.573H851.001V636.996H883.964V623.573Z" fill="white" stroke="#263238" stroke-linecap="round" stroke-linejoin="round"/>
<path d="M723.918 631.728H650.395V693.575H723.918V631.728Z" fill="white" stroke="#263238" stroke-linecap="round" stroke-linejoin="round"/>
<path d="M728.313 623.573H646.026V636.996H728.313V623.573Z" fill="white" stroke="#263238" stroke-linecap="round" stroke-linejoin="round"/>
<path d="M662.864 515.182C661.077 509.68 657.3 505.045 652.274 502.182C643.669 497.396 634.691 493.314 625.428 489.977C625.428 489.977 624.633 494.848 631.941 503.797C639.248 512.746 654.71 524.13 654.71 524.13C649.313 524.732 643.884 524.997 638.454 524.925C627.863 524.925 618.12 538.745 618.12 538.745C618.12 538.745 632.761 541.181 637.633 541.181C642.505 541.181 660.402 535.488 660.402 535.488C660.402 535.488 654.71 544.437 654.71 550.95C655.362 559.401 656.44 567.813 657.94 576.155C657.94 576.155 667.709 572.078 670.145 563.95C672.084 555.652 673.447 547.231 674.222 538.745C676.337 541.99 679.105 544.758 682.35 546.873C688.837 551.745 706.735 558.258 706.735 558.258C705.134 550.952 702.092 544.039 697.786 537.924C692.686 531.24 685.549 526.398 677.453 524.13C679.329 524.026 681.165 523.537 682.845 522.694C684.526 521.852 686.015 520.674 687.222 519.232C691.273 514.361 697.812 497.284 697.812 497.284C692.368 495.921 686.618 496.501 681.556 498.925C673.428 503.056 662.864 515.182 662.864 515.182Z" fill="#09BBB5"/>
<path opacity="0.5" d="M662.864 515.182C661.077 509.68 657.3 505.045 652.274 502.182C643.669 497.396 634.691 493.314 625.428 489.977C625.428 489.977 624.633 494.848 631.941 503.797C639.248 512.746 654.71 524.13 654.71 524.13C649.313 524.732 643.884 524.997 638.454 524.925C627.863 524.925 618.12 538.745 618.12 538.745C618.12 538.745 632.761 541.181 637.633 541.181C642.505 541.181 660.402 535.488 660.402 535.488C660.402 535.488 654.71 544.437 654.71 550.95C655.362 559.401 656.44 567.813 657.94 576.155C657.94 576.155 667.709 572.078 670.145 563.95C672.084 555.652 673.447 547.231 674.222 538.745C676.337 541.99 679.105 544.758 682.35 546.873C688.837 551.745 706.735 558.258 706.735 558.258C705.134 550.952 702.092 544.039 697.786 537.924C692.686 531.24 685.549 526.398 677.453 524.13C679.329 524.026 681.165 523.537 682.845 522.694C684.526 521.852 686.015 520.674 687.222 519.232C691.273 514.361 697.812 497.284 697.812 497.284C692.368 495.921 686.618 496.501 681.556 498.925C673.428 503.056 662.864 515.182 662.864 515.182Z" fill="black"/>
<path d="M701.467 579.412C700.379 576.059 698.087 573.229 695.033 571.469C689.809 568.555 684.355 566.076 678.724 564.056C678.724 564.056 678.221 567.021 682.669 572.448C686.874 577.008 691.512 581.148 696.516 584.813C693.238 585.193 689.94 585.361 686.641 585.316C680.207 585.316 674.276 593.708 674.276 593.708C674.276 593.708 683.172 595.191 686.138 595.191C690.836 594.394 695.465 593.235 699.984 591.723C698.144 594.559 696.959 597.77 696.516 601.122C696.916 606.253 697.579 611.361 698.502 616.425C701.844 615.013 704.504 612.354 705.915 609.011C707.079 603.972 707.902 598.859 708.377 593.708C709.664 595.67 711.34 597.346 713.302 598.633C718.009 601.417 722.974 603.741 728.128 605.57C727.168 601.125 725.322 596.92 722.701 593.205C719.602 589.138 715.261 586.191 710.336 584.813C711.475 584.75 712.589 584.455 713.609 583.945C714.629 583.435 715.534 582.721 716.267 581.847C718.845 577.659 721 573.224 722.701 568.609C719.395 567.781 715.904 568.127 712.825 569.589C708.578 572.288 704.751 575.598 701.467 579.412Z" fill="#09BBB5"/>
<path opacity="0.5" d="M701.467 579.412C700.379 576.059 698.087 573.229 695.033 571.469C689.809 568.555 684.355 566.076 678.724 564.056C678.724 564.056 678.221 567.021 682.669 572.448C686.874 577.008 691.512 581.148 696.516 584.813C693.238 585.193 689.94 585.361 686.641 585.316C680.207 585.316 674.276 593.708 674.276 593.708C674.276 593.708 683.172 595.191 686.138 595.191C690.836 594.394 695.465 593.235 699.984 591.723C698.144 594.559 696.959 597.77 696.516 601.122C696.916 606.253 697.579 611.361 698.502 616.425C701.844 615.013 704.504 612.354 705.915 609.011C707.079 603.972 707.902 598.859 708.377 593.708C709.664 595.67 711.34 597.346 713.302 598.633C718.009 601.417 722.974 603.741 728.128 605.57C727.168 601.125 725.322 596.92 722.701 593.205C719.602 589.138 715.261 586.191 710.336 584.813C711.475 584.75 712.589 584.455 713.609 583.945C714.629 583.435 715.534 582.721 716.267 581.847C718.845 577.659 721 573.224 722.701 568.609C719.395 567.781 715.904 568.127 712.825 569.589C708.578 572.288 704.751 575.598 701.467 579.412Z" fill="black"/>
<path d="M677.877 610.203C676.567 606.157 673.79 602.747 670.093 600.645C663.771 597.125 657.175 594.124 650.368 591.67C650.368 591.67 649.759 595.244 655.134 601.837C660.238 607.339 665.849 612.347 671.893 616.796C667.92 617.237 663.923 617.432 659.926 617.378C652.142 617.378 644.967 627.545 644.967 627.545C644.967 627.545 655.743 629.345 659.317 629.345C662.891 629.345 676.076 625.162 676.076 625.162C676.076 625.162 671.893 631.754 671.893 636.52C672.374 642.734 673.169 648.919 674.276 655.053C674.276 655.053 681.451 652.061 683.251 646.078C684.68 639.977 685.679 633.785 686.243 627.545C687.797 629.936 689.835 631.974 692.227 633.528C697.019 637.129 710.177 641.921 710.177 641.921C709.009 636.542 706.767 631.454 703.585 626.962C699.843 622.042 694.602 618.473 688.652 616.796C690.031 616.718 691.379 616.359 692.613 615.74C693.848 615.12 694.941 614.254 695.827 613.195C698.819 609.621 703.585 597.045 703.585 597.045C699.579 596.036 695.346 596.458 691.618 598.236C685.66 601.228 677.877 610.203 677.877 610.203Z" fill="#09BBB5"/>
<path d="M655.531 575.414C654.232 571.363 651.465 567.945 647.774 565.83C641.442 562.313 634.837 559.312 628.023 556.854C628.023 556.854 627.441 560.455 632.815 567.048C637.903 572.548 643.506 577.548 649.548 581.98C645.585 582.441 641.596 582.644 637.607 582.589C629.823 582.589 622.648 592.755 622.648 592.755C622.648 592.755 633.398 594.556 636.998 594.556C640.599 594.556 653.678 590.373 653.678 590.373C653.678 590.373 649.468 596.939 649.468 601.731C649.953 607.946 650.757 614.132 651.878 620.264C651.878 620.264 659.053 617.272 660.853 611.289C662.268 605.186 663.268 598.994 663.845 592.755C665.408 595.139 667.445 597.176 669.828 598.739C674.594 602.34 687.752 607.105 687.752 607.105C686.587 601.73 684.354 596.643 681.186 592.147C677.427 587.233 672.18 583.666 666.227 581.98C667.604 581.905 668.95 581.549 670.184 580.934C671.418 580.319 672.513 579.459 673.402 578.406C676.394 574.805 681.186 562.255 681.186 562.255C677.18 561.247 672.948 561.668 669.219 563.447C663.315 566.439 655.531 575.414 655.531 575.414Z" fill="#09BBB5"/>
<path d="M694.425 546.714C690.269 545.813 685.927 546.493 682.246 548.62C676.014 552.31 670.09 556.498 664.533 561.143C664.533 561.143 667.34 563.473 675.733 562.149C683.058 560.517 690.212 558.194 697.099 555.213C695.492 558.857 693.653 562.395 691.592 565.803C687.673 572.528 692.836 583.859 692.836 583.859C692.836 583.859 699.799 575.467 701.626 572.369C703.453 569.271 706.445 555.795 706.445 555.795C708.297 559.437 710.928 562.627 714.149 565.141C719.758 567.852 725.501 570.273 731.358 572.395C731.358 572.395 732.391 564.691 728.128 560.137C723.578 555.821 718.73 551.831 713.62 548.197C716.466 548.06 719.253 547.329 721.801 546.052C727.334 543.722 738.083 534.773 738.083 534.773C732.853 533.068 727.333 532.438 721.853 532.92C715.719 533.685 709.997 536.416 705.544 540.704C706.161 539.483 706.524 538.149 706.61 536.784C706.696 535.419 706.505 534.05 706.047 532.761C704.459 528.419 696.04 517.829 696.04 517.829C693.159 520.784 691.399 524.651 691.062 528.763C690.586 535.488 694.425 546.714 694.425 546.714Z" fill="#09BBB5"/>
<path d="M802.181 651.32H702.844V693.601H802.181V651.32Z" fill="white" stroke="#263238" stroke-linecap="round" stroke-linejoin="round"/>
<path d="M808.111 645.733H696.939V654.894H808.111V645.733Z" fill="white" stroke="#263238" stroke-linecap="round" stroke-linejoin="round"/>
<path d="M740.069 628.259C740.069 628.259 744.967 625.797 736.839 620.105C728.711 614.413 726.249 614.439 726.249 614.439L734.377 628.259C729.116 626.497 723.654 625.403 718.12 625.003C714.197 625.006 710.318 625.836 706.736 627.439L723.389 636.176C723.389 636.176 705.915 634.746 702.659 634.746C698.497 635.407 694.416 636.499 690.48 638.003L702.659 640.438L683.967 646.131L703.479 647.746V655.874L715.658 648.566C716.282 650.283 717.108 651.918 718.12 653.438C719.736 655.874 725.428 662.387 725.428 662.387L732.735 651.002C732.735 651.002 735.171 658.336 737.607 658.336C740.359 658.629 743.079 659.169 745.735 659.951L747.615 649.519L759.555 658.336V651.002L766.068 658.336L771.76 649.387L772.581 656.694L783.171 651.823L788.043 661.566L790.479 649.387L797.309 650.499L798.607 646.951L801.863 648.566C806.017 650.273 810.395 651.37 814.863 651.823C812.863 648.988 810.697 646.274 808.376 643.695C805.655 641.631 802.638 639.989 799.428 638.823L805.12 636.388C805.12 636.388 793.735 632.31 790.479 632.31C787.32 632.831 784.285 633.936 781.53 635.567C784.123 633.864 786.34 631.647 788.043 629.054C789.334 626.15 790.422 623.159 791.3 620.105C791.3 620.105 779.094 620.105 777.479 624.182C775.864 628.259 772.608 634.773 772.608 634.773L766.915 622.594C765.232 624.236 763.852 626.163 762.838 628.286C762.19 630.419 761.651 632.584 761.223 634.773L756.351 625.029C754.845 622.546 752.919 620.342 750.659 618.516C750.226 621.483 749.952 624.47 749.838 627.465V633.157L745.761 623.388V631.516L740.069 628.259Z" fill="#09BBB5"/>
<path opacity="0.3" d="M740.069 628.259C740.069 628.259 744.967 625.797 736.839 620.105C728.711 614.413 726.249 614.439 726.249 614.439L734.377 628.259C729.116 626.497 723.654 625.403 718.12 625.003C714.197 625.006 710.318 625.836 706.736 627.439L723.389 636.176C723.389 636.176 705.915 634.746 702.659 634.746C698.497 635.407 694.416 636.499 690.48 638.003L702.659 640.438L683.967 646.131L703.479 647.746V655.874L715.658 648.566C716.282 650.283 717.108 651.918 718.12 653.438C719.736 655.874 725.428 662.387 725.428 662.387L732.735 651.002C732.735 651.002 735.171 658.336 737.607 658.336C740.359 658.629 743.079 659.169 745.735 659.951L747.615 649.519L759.555 658.336V651.002L766.068 658.336L771.76 649.387L772.581 656.694L783.171 651.823L788.043 661.566L790.479 649.387L797.309 650.499L798.607 646.951L801.863 648.566C806.017 650.273 810.395 651.37 814.863 651.823C812.863 648.988 810.697 646.274 808.376 643.695C805.655 641.631 802.638 639.989 799.428 638.823L805.12 636.388C805.12 636.388 793.735 632.31 790.479 632.31C787.32 632.831 784.285 633.936 781.53 635.567C784.123 633.864 786.34 631.647 788.043 629.054C789.334 626.15 790.422 623.159 791.3 620.105C791.3 620.105 779.094 620.105 777.479 624.182C775.864 628.259 772.608 634.773 772.608 634.773L766.915 622.594C765.232 624.236 763.852 626.163 762.838 628.286C762.19 630.419 761.651 632.584 761.223 634.773L756.351 625.029C754.845 622.546 752.919 620.342 750.659 618.516C750.226 621.483 749.952 624.47 749.838 627.465V633.157L745.761 623.388V631.516L740.069 628.259Z" fill="black"/>
</svg>
