<svg width="64" height="64" viewBox="0 0 64 64" fill="none" xmlns="http://www.w3.org/2000/svg">
<path d="M21.3334 10.5067C25.2881 8.54042 29.7087 7.70356 34.1085 8.08822C38.5083 8.47289 42.7166 10.0642 46.2701 12.6869C49.8236 15.3095 52.5846 18.8619 54.2489 22.9529C55.9132 27.0439 56.4164 31.5148 55.7031 35.8733C54.9897 40.2319 53.0876 44.3091 50.2059 47.6561C47.3243 51.0031 43.575 53.49 39.3708 54.843C35.1666 56.1961 30.6705 56.3628 26.3777 55.3248C22.0848 54.2868 18.1616 52.0844 15.0401 48.96C12.5016 46.4398 10.5686 43.3761 9.38672 40" stroke="black" stroke-width="3" stroke-linecap="round" stroke-linejoin="round"/>
<path d="M22.7733 34.6667C23.7097 36.2886 25.0567 37.6354 26.6788 38.5716C28.3008 39.5079 30.1408 40.0005 32.0137 40C33.8865 39.9995 35.7262 39.5059 37.3478 38.5689C38.9694 37.6318 40.3157 36.2844 41.2513 34.6619C42.1869 33.0395 42.6788 31.1994 42.6776 29.3265C42.6764 27.4537 42.1821 25.6141 41.2444 23.9929C40.3067 22.3717 38.9587 21.0259 37.336 20.091C35.7132 19.156 33.8728 18.6648 32 18.6667C31.0994 18.6586 30.202 18.7753 29.3333 19.0133" stroke="black" stroke-width="3" stroke-linecap="round" stroke-linejoin="round"/>
<path d="M8 24H18.6667M13.3333 29.3333V18.6667M18.6667 52C22.5966 54.6031 27.2061 55.9913 31.92 55.9913C36.6339 55.9913 41.2434 54.6031 45.1733 52C44.8142 48.736 43.2632 45.7193 40.8175 43.5281C38.3719 41.3368 35.2037 40.1251 31.92 40.1251C28.6363 40.1251 25.4681 41.3368 23.0225 43.5281C20.5768 45.7193 19.0258 48.736 18.6667 52V52Z" stroke="black" stroke-width="3" stroke-linecap="round" stroke-linejoin="round"/>
</svg>
