<svg width="1000" height="777" viewBox="0 0 1000 777" fill="none" xmlns="http://www.w3.org/2000/svg">
<path d="M900.83 365.658L900.962 113.024L557.213 112.844L557.081 365.478L900.83 365.658Z" fill="white"/>
<path d="M852.37 327.756C852.37 327.756 836.615 309.057 792.344 304.382C748.072 299.707 765.089 317.846 794.681 333.553C824.273 349.261 852.37 327.756 852.37 327.756Z" fill="white" stroke="#263238" stroke-linecap="round" stroke-linejoin="round"/>
<path d="M848.583 267.613C840.636 228.905 855.175 210.462 855.175 210.462C855.175 210.462 880.163 229.629 883.669 258.263C885.568 276.108 882.527 294.131 874.88 310.366C874.88 310.366 856.531 306.322 848.583 267.613Z" fill="white" stroke="#263238" stroke-linecap="round" stroke-linejoin="round"/>
<path d="M826.751 259.081C826.751 259.081 799.075 244.098 791.361 212.799C783.648 181.501 795.92 171.613 795.92 171.613C795.92 171.613 815.554 199.172 822.754 215.604C829.953 232.037 826.751 259.081 826.751 259.081Z" fill="white" stroke="#263238" stroke-linecap="round" stroke-linejoin="round"/>
<path d="M803.049 263.452C803.049 263.452 778.692 256.043 756.65 264.224C744.511 268.597 732.68 273.782 721.237 279.745C721.237 279.745 733.275 286.547 758.637 285.962C783.998 285.378 803.049 263.452 803.049 263.452Z" fill="white" stroke="#263238" stroke-linecap="round" stroke-linejoin="round"/>
<path d="M869.994 333.577C869.994 333.577 836.896 278.763 772.405 221.121C707.914 163.479 627.481 141.506 593.635 174.371C559.788 207.236 601.816 220.536 615.397 196.484" stroke="#263238" stroke-linecap="round" stroke-linejoin="round"/>
<path d="M763.522 200.902C763.522 200.902 731.966 177.059 721.985 154.292C712.004 131.525 722.429 120.937 737.763 135.312C753.097 149.688 763.522 200.902 763.522 200.902Z" stroke="#263238" stroke-linecap="round" stroke-linejoin="round"/>
<path d="M752.887 228.18C752.887 228.18 734.047 209.293 712.869 212.566C691.692 215.838 679.443 225.726 701.182 234.234C722.92 242.742 752.887 228.18 752.887 228.18Z" stroke="#263238" stroke-linecap="round" stroke-linejoin="round"/>
<path d="M594.032 255.225L684.445 255.902" stroke="#263238" stroke-linecap="round" stroke-linejoin="round"/>
<path d="M592.653 282.737L695.198 283.461" stroke="#263238" stroke-linecap="round" stroke-linejoin="round"/>
<path d="M604.247 315.321L727.829 314.9" stroke="#263238" stroke-linecap="round" stroke-linejoin="round"/>
<path d="M694.8 181.407C681.789 178.533 668.364 178.05 655.18 179.981C643.357 181.869 632.623 187.992 624.98 197.208C624.98 197.208 682.201 201.743 694.8 181.407Z" stroke="#263238" stroke-linecap="round" stroke-linejoin="round"/>
<path d="M709.129 161.726C709.129 161.726 698.727 138.024 678.742 129.305C658.757 120.586 662.099 131.222 662.099 131.222C662.099 131.222 680.752 164.764 709.129 161.726Z" stroke="#263238" stroke-linecap="round" stroke-linejoin="round"/>
<path d="M799.005 154.76C799.005 154.76 772.054 160.23 774.205 179.701C776.355 199.172 796.995 205.413 808.168 201.813C819.341 198.214 822.731 182.646 817.518 170.865C812.306 159.084 794.143 158.196 784.536 171.309" stroke="#263238" stroke-width="2" stroke-linecap="round" stroke-linejoin="round"/>
<path d="M841.103 140.127L828.34 175.073" stroke="#263238" stroke-width="2" stroke-linecap="round" stroke-linejoin="round"/>
<path d="M821.234 150.132L857.115 165.021" stroke="#263238" stroke-width="2" stroke-linecap="round" stroke-linejoin="round"/>
<path d="M925.743 365.624L923.171 384.627L914.032 367.564L888.226 212.238L899.937 210.298L925.743 365.624Z" fill="white" stroke="#263238" stroke-linecap="round" stroke-linejoin="round"/>
<path d="M897.287 210.715L890.9 211.776L916.698 367.101L923.085 366.04L897.287 210.715Z" fill="#09BBB5" stroke="#263238" stroke-width="0.5" stroke-linecap="round" stroke-linejoin="round"/>
<path d="M925.719 365.647L914.055 367.587L923.172 384.627L925.719 365.647Z" stroke="#263238" stroke-linecap="round" stroke-linejoin="round"/>
<path d="M918.613 376.095L923.171 384.627L924.457 375.137L918.613 376.095Z" fill="#263238" stroke="#263238" stroke-linecap="round" stroke-linejoin="round"/>
<path d="M891.195 193.866C889.642 194.124 888.255 194.987 887.339 196.267C886.423 197.547 886.053 199.138 886.31 200.691L888.226 212.238L899.914 210.298L897.997 198.751C897.739 197.203 896.879 195.82 895.604 194.905C894.329 193.989 892.744 193.616 891.195 193.866Z" fill="white" stroke="#263238" stroke-linecap="round" stroke-linejoin="round"/>
<path d="M891.195 193.866C889.642 194.124 888.255 194.987 887.339 196.267C886.423 197.547 886.053 199.138 886.31 200.691L887.245 206.208L898.932 204.268L898.02 198.751C897.763 197.198 896.899 195.812 895.619 194.896C894.339 193.979 892.748 193.609 891.195 193.866Z" fill="#263238" stroke="#263238" stroke-linecap="round" stroke-linejoin="round"/>
<path d="M86.7526 390.518H452.544C459.159 390.518 465.503 393.145 470.18 397.823C474.857 402.5 477.485 408.844 477.485 415.459V647.056C477.485 650.64 476.779 654.189 475.406 657.5C474.034 660.811 472.023 663.819 469.487 666.353C466.952 668.886 463.942 670.895 460.63 672.264C457.317 673.634 453.768 674.337 450.183 674.334H89.0901C81.8554 674.334 74.9171 671.46 69.8014 666.344C64.6857 661.229 61.8118 654.29 61.8118 647.056V415.435C61.818 408.825 64.4484 402.487 69.125 397.814C73.8017 393.142 80.142 390.518 86.7526 390.518Z" fill="white" stroke="#263238" stroke-linecap="round" stroke-linejoin="round"/>
<path d="M218.726 418.451H195.328V433.831H218.726V418.451Z" fill="#263238"/>
<path d="M142.922 513.259H121.207V534.81H142.922V513.259Z" fill="#263238"/>
<path d="M238.876 437.501H216.997V459.053H238.876V437.501Z" fill="#263238"/>
<path d="M191.635 418.451H168.237V433.831H191.635V418.451Z" fill="#263238"/>
<path d="M264.471 437.501H242.592V459.053H264.471V437.501Z" fill="#263238"/>
<path d="M245.818 418.451H222.42V433.831H245.818V418.451Z" fill="#263238"/>
<path d="M129.809 487.99H88.646V509.542H129.809V487.99Z" fill="#263238"/>
<path d="M187.708 437.501H165.83V459.053H187.708V437.501Z" fill="#263238"/>
<path d="M117.514 513.259H88.646V534.81H117.514V513.259Z" fill="#263238"/>
<path d="M272.933 418.451H249.535V433.831H272.933V418.451Z" fill="#263238"/>
<path d="M136.541 437.501H114.662V459.053H136.541V437.501Z" fill="#263238"/>
<path d="M137.453 418.451H114.054V433.831H137.453V418.451Z" fill="#263238"/>
<path d="M164.544 418.451H141.146V433.831H164.544V418.451Z" fill="#263238"/>
<path d="M162.136 437.501H140.258V459.053H162.136V437.501Z" fill="#263238"/>
<path d="M213.304 437.501H191.425V459.053H213.304V437.501Z" fill="#263238"/>
<path d="M381.298 418.451H357.9V433.831H381.298V418.451Z" fill="#263238"/>
<path d="M408.389 418.451H384.991V433.831H408.389V418.451Z" fill="#263238"/>
<path d="M392.401 437.501H370.522V459.053H392.401V437.501Z" fill="#263238"/>
<path d="M417.973 437.501H396.094V459.053H417.973V437.501Z" fill="#263238"/>
<path d="M458.482 513.259H426.248V534.81H458.482V513.259Z" fill="#263238"/>
<path d="M435.481 418.451H412.083V433.831H435.481V418.451Z" fill="#263238"/>
<path d="M110.992 437.501H88.646V459.053H110.992V437.501Z" fill="#263238"/>
<path d="M300.024 418.451H276.626V433.831H300.024V418.451Z" fill="#263238"/>
<path d="M327.115 418.451H303.717V433.831H327.115V418.451Z" fill="#263238"/>
<path d="M315.639 437.501H293.76V459.053H315.639V437.501Z" fill="#263238"/>
<path d="M366.806 437.501H344.927V459.053H366.806V437.501Z" fill="#263238"/>
<path d="M290.067 437.501H268.188V459.053H290.067V437.501Z" fill="#263238"/>
<path d="M341.234 437.501H319.355V459.053H341.234V437.501Z" fill="#263238"/>
<path d="M354.207 418.451H330.809V433.831H354.207V418.451Z" fill="#263238"/>
<path d="M320.851 513.259H299.136V534.81H320.851V513.259Z" fill="#263238"/>
<path d="M434.826 487.99H413.111V509.542H434.826V487.99Z" fill="#263238"/>
<path d="M409.418 487.99H387.703V509.542H409.418V487.99Z" fill="#263238"/>
<path d="M422.531 513.259H400.816V534.81H422.531V513.259Z" fill="#263238"/>
<path d="M397.123 513.259H375.408V534.81H397.123V513.259Z" fill="#263238"/>
<path d="M346.283 513.259H324.568V534.81H346.283V513.259Z" fill="#263238"/>
<path d="M371.691 513.259H349.976V534.81H371.691V513.259Z" fill="#263238"/>
<path d="M383.986 487.99H362.271V509.542H383.986V487.99Z" fill="#263238"/>
<path d="M358.578 487.99H336.863V509.542H358.578V487.99Z" fill="#263238"/>
<path d="M458.482 418.451H439.198V433.831H458.482V418.451Z" fill="#263238"/>
<path d="M110.361 418.451H88.646V433.831H110.361V418.451Z" fill="#263238"/>
<path d="M458.482 538.503H88.646V560.92H458.482V538.503Z" fill="#263238"/>
<path d="M458.482 437.501H421.69V459.053H458.482V437.501Z" fill="#263238"/>
<path d="M458.458 487.99H438.52V509.542H458.458V487.99Z" fill="#263238"/>
<path d="M432.395 484.157H428.702V462.746H406.964V484.157H403.27V462.746H381.555V484.157H377.862V462.746H356.123V484.157H352.43V462.746H330.715V484.157H327.022V462.746H305.283V484.157H301.59V462.746H279.875V484.157H276.182V462.746H254.443V484.157H250.75V462.746H229.035V484.157H225.342V462.746H203.603V484.157H199.91V462.746H178.195V484.157H174.501V462.746H152.763V484.157H149.07V462.746H127.355V484.157H123.661V462.746H88.646V484.297H458.458V462.746H432.395V484.157Z" fill="#263238"/>
<path d="M256.898 487.99H235.182V509.542H256.898V487.99Z" fill="#263238"/>
<path d="M333.146 487.99H311.431V509.542H333.146V487.99Z" fill="#263238"/>
<path d="M206.057 487.99H184.342V509.542H206.057V487.99Z" fill="#263238"/>
<path d="M219.194 513.259H197.479V534.81H219.194V513.259Z" fill="#263238"/>
<path d="M231.466 487.99H209.751V509.542H231.466V487.99Z" fill="#263238"/>
<path d="M180.626 487.99H158.911V509.542H180.626V487.99Z" fill="#263238"/>
<path d="M168.354 513.259H146.639V534.81H168.354V513.259Z" fill="#263238"/>
<path d="M193.762 513.259H172.047V534.81H193.762V513.259Z" fill="#263238"/>
<path d="M282.306 487.99H260.591V509.542H282.306V487.99Z" fill="#263238"/>
<path d="M295.443 513.259H273.728V534.81H295.443V513.259Z" fill="#263238"/>
<path d="M307.738 487.99H286.022V509.542H307.738V487.99Z" fill="#263238"/>
<path d="M244.603 513.259H222.887V534.81H244.603V513.259Z" fill="#263238"/>
<path d="M270.011 513.259H248.296V534.81H270.011V513.259Z" fill="#263238"/>
<path d="M155.217 487.99H133.502V509.542H155.217V487.99Z" fill="#263238"/>
<path d="M501.211 174.815H35.936C26.1654 174.815 19.0361 187.531 21.5839 200.528L55.5942 374.413C57.3473 383.318 63.2377 389.513 69.9697 389.513H117.467V401.48H421.923V389.513H467.177C473.909 389.513 479.799 383.318 481.552 374.413L515.563 200.528C518.111 187.531 510.981 174.815 501.211 174.815Z" fill="#263238" stroke="#263238" stroke-linecap="round" stroke-linejoin="round"/>
<path d="M448.571 374.155H88.4824L52.4619 196.273H484.591L448.571 374.155Z" fill="#09BBB5" stroke="#263238" stroke-linecap="round" stroke-linejoin="round"/>
<path d="M69.8528 209.34L98.8609 361.206H439.852L468.837 209.34H69.8528Z" fill="white"/>
<path d="M298.061 298.795C284.199 296.13 257.412 305.036 257.412 305.036C257.412 305.036 262.952 313.03 279.595 315.695C296.237 318.36 318.373 307.701 318.373 307.701C318.373 307.701 311.898 301.483 298.061 298.795Z" fill="#263238"/>
<path d="M376.553 343.277C370.413 338.415 364.18 333.655 357.853 328.995L358.367 328.598C358.367 328.598 357.97 328.364 357.175 327.99C359.446 321.363 359.969 314.262 358.695 307.374C356.638 293.91 338.92 272.615 338.92 272.615C338.92 272.615 332.959 280.329 335.951 296.317C338.288 308.916 349.976 321.819 354.651 326.705C349.976 323.339 345.441 320.043 340.766 316.77C337.751 314.643 334.642 312.563 331.557 310.506C328.471 308.449 325.152 306.672 321.973 304.732L318.7 302.839C320.58 296.508 320.964 289.826 319.822 283.321C317.765 269.881 300.047 248.586 300.047 248.586C300.047 248.586 294.087 256.3 297.079 272.265C299.019 282.69 307.294 293.302 312.833 299.45C309.397 297.509 305.961 295.616 302.455 293.77C290.871 287.598 278.972 282.035 266.808 277.103C266.767 272.369 265.597 267.714 263.396 263.523C258.604 254.173 238.385 245.547 238.385 245.547C238.385 245.547 234.902 253.845 241.049 264.645C241.998 266.252 243.162 267.723 244.509 269.016L240.278 267.683C233.032 265.58 225.692 263.85 218.306 262.354C212.696 261.255 207.039 260.273 201.382 259.479C199.531 255.979 196.977 252.899 193.879 250.433C186.867 244.636 168.167 242.415 168.167 242.415C168.167 242.415 168.564 249.17 177.213 255.786C177.961 256.339 178.741 256.846 179.55 257.305C177.47 257.305 175.366 257.095 173.263 257.024C165.663 256.78 158.056 257.061 150.496 257.866C142.859 258.634 135.355 260.394 128.173 263.102C120.813 265.78 114.395 270.549 109.707 276.823C107.421 280.019 105.829 283.658 105.032 287.505C104.218 291.471 104.788 295.595 106.645 299.192C107.686 301.139 109.248 302.758 111.156 303.867C113.096 304.876 115.258 305.382 117.444 305.34C121.458 305.136 125.346 303.87 128.71 301.67C130.384 300.709 131.951 299.572 133.385 298.281C134.861 297.015 136.007 295.411 136.728 293.606C137.418 291.816 137.418 289.833 136.728 288.043C136.035 286.306 134.928 284.765 133.502 283.555C134.784 284.861 135.717 286.468 136.214 288.23C136.687 289.905 136.52 291.696 135.746 293.255C133.891 296.3 131.092 298.656 127.775 299.964C124.658 301.562 121.176 302.312 117.677 302.138C116.108 302.009 114.597 301.487 113.283 300.618C112.009 299.828 110.95 298.736 110.198 297.439C108.733 294.554 108.312 291.25 109.005 288.089C109.717 284.802 111.101 281.698 113.073 278.973C117.309 273.32 123.112 269.037 129.762 266.655C136.604 264.07 143.755 262.397 151.033 261.676C158.4 260.889 165.812 260.615 173.216 260.858C188.093 261.381 202.902 263.141 217.488 266.117H218.025C214.989 265.768 211.922 265.768 208.886 266.117C197.97 267.403 180.836 281.124 180.836 281.124C180.836 281.124 187.217 286.149 200.167 284.162C213.117 282.176 226.277 268.198 226.277 268.198C225.661 267.91 225.029 267.66 224.383 267.45C229.315 268.548 234.224 269.787 239.039 271.189C246.052 273.317 253.064 275.864 260.077 278.412C262.414 279.301 264.751 280.259 267.089 281.194C264.469 280.944 261.831 280.944 259.212 281.194C248.249 282.152 230.741 295.336 230.741 295.336C230.741 295.336 236.959 300.548 249.979 298.959C260.801 297.65 272.021 288.043 275.48 284.934C283.989 288.705 292.349 292.764 300.562 297.112C307.107 300.548 313.535 304.241 319.916 307.981L329.383 313.755C332.538 315.672 335.787 317.472 338.943 319.412C342.099 321.352 345.418 323.315 348.62 325.325C344.595 324.538 340.494 324.209 336.395 324.344C322.37 324.788 298.294 339.304 298.294 339.304C298.294 339.304 305.564 345.895 322.394 344.843C335.928 344.025 350.887 334.021 356.217 330.117C363.042 334.449 369.821 338.836 376.553 343.277Z" fill="#263238"/>
<path d="M202.014 318.243H106.878C106.623 318.24 106.371 318.287 106.134 318.382C105.897 318.476 105.682 318.617 105.5 318.795C105.317 318.973 105.172 319.185 105.071 319.419C104.971 319.653 104.918 319.905 104.915 320.16C104.927 320.67 105.14 321.155 105.508 321.51C105.875 321.864 106.368 322.059 106.878 322.053H202.014C202.267 322.059 202.52 322.015 202.756 321.923C202.992 321.831 203.208 321.693 203.391 321.517C203.574 321.34 203.719 321.13 203.82 320.897C203.921 320.664 203.974 320.413 203.977 320.16C203.974 319.905 203.921 319.653 203.82 319.419C203.72 319.185 203.575 318.973 203.392 318.795C203.21 318.617 202.994 318.476 202.758 318.382C202.521 318.287 202.268 318.24 202.014 318.243Z" fill="#263238"/>
<path d="M202.014 328.575H109.473C108.962 328.568 108.47 328.763 108.102 329.118C107.735 329.472 107.522 329.957 107.51 330.468C107.513 330.723 107.566 330.974 107.666 331.209C107.766 331.443 107.912 331.655 108.094 331.833C108.277 332.011 108.492 332.151 108.729 332.246C108.965 332.341 109.218 332.388 109.473 332.385H202.014C202.268 332.388 202.521 332.341 202.758 332.246C202.994 332.151 203.21 332.011 203.392 331.833C203.575 331.655 203.72 331.443 203.821 331.209C203.921 330.974 203.974 330.723 203.977 330.468C203.974 330.214 203.921 329.964 203.82 329.731C203.72 329.498 203.574 329.287 203.391 329.111C203.208 328.935 202.993 328.797 202.756 328.705C202.52 328.613 202.267 328.568 202.014 328.575Z" fill="#263238"/>
<path d="M202.014 338.345H111.951C111.683 338.315 111.412 338.343 111.155 338.425C110.898 338.507 110.662 338.642 110.461 338.822C110.26 339.002 110.099 339.222 109.989 339.468C109.879 339.714 109.823 339.981 109.823 340.25C109.823 340.52 109.879 340.786 109.989 341.032C110.099 341.278 110.26 341.499 110.461 341.678C110.662 341.858 110.898 341.994 111.155 342.076C111.412 342.158 111.683 342.185 111.951 342.155H202.014C202.268 342.158 202.521 342.111 202.758 342.017C202.994 341.922 203.21 341.782 203.392 341.604C203.575 341.426 203.72 341.213 203.82 340.979C203.921 340.745 203.974 340.493 203.977 340.239C203.974 339.985 203.921 339.734 203.82 339.501C203.719 339.268 203.574 339.058 203.391 338.882C203.208 338.705 202.992 338.567 202.756 338.475C202.52 338.383 202.267 338.339 202.014 338.345Z" fill="#263238"/>
<path d="M202.014 347.602H114.265C113.754 347.595 113.262 347.791 112.894 348.145C112.527 348.499 112.314 348.985 112.301 349.495C112.304 349.75 112.358 350.001 112.458 350.236C112.558 350.47 112.704 350.682 112.886 350.86C113.068 351.038 113.284 351.178 113.521 351.273C113.757 351.368 114.01 351.415 114.265 351.412H202.014C202.268 351.415 202.521 351.368 202.758 351.273C202.994 351.178 203.21 351.038 203.392 350.86C203.575 350.682 203.72 350.47 203.821 350.236C203.921 350.001 203.974 349.75 203.977 349.495C203.974 349.241 203.921 348.991 203.82 348.758C203.719 348.525 203.574 348.314 203.391 348.138C203.208 347.962 202.993 347.824 202.756 347.732C202.52 347.64 202.267 347.595 202.014 347.602Z" fill="#263238"/>
<path d="M392.939 248.259L378.4 354.848H422.227L442.47 248.259H392.939ZM397.216 350.29H384.758L386.511 338.182H399.133L397.216 350.29ZM401.12 325.723H388.287L390.134 312.89H403.154L401.12 325.723ZM405.257 299.66H392.027L393.991 286.033H407.408L405.257 299.66ZM409.628 271.961H395.907L397.988 257.445H411.849L409.628 271.961ZM417.342 350.29H404.883L406.917 338.182H419.563L417.342 350.29ZM421.83 325.723H409.021L411.171 312.89H424.191L421.83 325.723ZM426.505 299.66H413.298L415.636 286.033H429.053L426.505 299.66ZM431.577 271.961H417.95L420.287 257.445H434.148L431.577 271.961Z" fill="#09BBB5"/>
<path d="M165.736 237.74H383.495L386.207 215.932H163.399L165.736 237.74Z" fill="#09BBB5"/>
<path d="M680.448 659.211L833.577 748.689L953.396 516.18L810.669 435.07L680.448 659.211Z" fill="#263238" stroke="#263238" stroke-linecap="round" stroke-linejoin="round"/>
<path d="M686.409 644.227L680.448 659.211L833.553 745.814C835.04 740.125 838.055 734.951 842.272 730.854L686.409 644.227Z" fill="white" stroke="#263238" stroke-linecap="round" stroke-linejoin="round"/>
<path d="M810.085 425.627L686.409 644.227L844.586 733.051L962.067 511.482L810.085 425.627Z" fill="#263238" stroke="#263238" stroke-linecap="round" stroke-linejoin="round"/>
<path d="M685.637 652.081L728.53 673.422" stroke="#263238" stroke-linecap="round" stroke-linejoin="round"/>
<path d="M682.81 656.078L732.972 681.72" stroke="#263238" stroke-linecap="round" stroke-linejoin="round"/>
<path d="M837.504 735.88L805.433 716.362" stroke="#263238" stroke-linecap="round" stroke-linejoin="round"/>
<path d="M835.517 740.859L783.531 710.612" stroke="#263238" stroke-linecap="round" stroke-linejoin="round"/>
<path d="M774.836 579.292C777.215 571.769 778.821 564.024 779.628 556.175C780.305 549.824 780.632 543.441 780.609 537.054C774.349 542.068 769.466 548.591 766.421 556.011C760.39 569.381 774.836 579.292 774.836 579.292Z" fill="#09BBB5"/>
<path d="M777.991 607.132C772.198 602.187 766.674 596.936 761.442 591.4C761.442 591.4 758.006 610.1 767.543 619.146C777.08 628.192 795.242 630.179 795.242 630.179C795.242 630.179 787.014 614.728 777.991 607.132Z" fill="#09BBB5"/>
<path d="M730.167 612.274C743.312 602.322 757.025 593.143 771.236 584.785C771.68 586.725 773.924 594.322 783.835 602.083C795.336 611.082 815.952 613.513 815.952 613.513C815.952 613.513 804.919 603.018 795.429 595.912C788.128 590.982 780.152 587.132 771.751 584.481C780.236 579.526 786.804 576.066 790.45 574.243C796.417 577.514 803.118 579.211 809.921 579.175C822.38 578.801 841.08 568.072 841.08 568.072C841.08 568.072 819.225 562.392 807.771 565.408C801.904 566.974 796.668 568.75 792.928 570.083C792.719 570.074 792.511 570.114 792.32 570.199L791.198 570.737L787.949 572.023C795.585 566.885 802.242 560.426 807.607 552.949C813.174 545.086 815.546 535.403 814.246 525.858C807.774 532.131 801.73 538.831 796.154 545.913C789.141 555.263 783.157 572.864 782.339 575.319C777.431 577.983 770.932 581.63 763.429 586.235C763.438 581.498 762.817 576.782 761.582 572.21C759.409 563.444 760.414 545.305 760.414 545.305C760.414 545.305 752.373 556.782 749.685 566.623C747.137 575.973 761.886 585.323 763.265 586.281C757.843 589.6 751.859 593.434 745.547 597.735C746.671 594.876 747.112 591.795 746.833 588.736C745.992 575.552 744.753 564.8 744.753 564.8C744.753 564.8 735.286 577.773 733.579 587.614C733.157 590.346 733.327 593.138 734.077 595.8C734.827 598.461 736.14 600.931 737.927 603.041C727.242 610.686 716.959 618.878 707.119 627.584C706.853 627.83 706.692 628.169 706.67 628.531C706.648 628.893 706.768 629.249 707.002 629.525C707.26 629.755 707.592 629.882 707.937 629.882C708.282 629.882 708.615 629.755 708.872 629.525C715.347 623.774 721.892 618.445 728.32 613.513C732.684 618.148 737.312 622.526 742.181 626.626C748.68 631.839 765.813 631.885 765.813 631.885C765.813 631.885 749.778 617.627 742.836 613.887C738.897 611.998 734.453 611.432 730.167 612.274ZM787.341 572.537L787.552 572.701L785.542 573.729L787.341 572.537Z" fill="#09BBB5"/>
<path d="M831.309 478.407L911.461 522.305" stroke="#09BBB5" stroke-miterlimit="10"/>
<path d="M806.088 487.967L919.245 549.933" stroke="#09BBB5" stroke-miterlimit="10"/>
<path d="M952.437 529.644L962.068 511.482L941.685 499.982L952.437 529.644Z" fill="#09BBB5" stroke="#09BBB5" stroke-miterlimit="10"/>
<path d="M844.586 733.051L851.435 720.148L824.367 721.691L844.586 733.051Z" fill="#09BBB5" stroke="#09BBB5" stroke-miterlimit="10"/>
<path d="M542.35 484.181C540.461 482.632 538.19 481.621 535.775 481.255C533.361 480.889 530.892 481.181 528.629 482.1C515.306 487.476 488.892 499.07 487.466 506.901C485.596 517.373 504.109 579.643 508.503 600.61C512.898 621.577 523.3 635.672 549.199 641.306C575.098 646.939 609.015 632.68 621.965 609.259C634.914 585.837 617.29 564.496 603.779 543.412C593.027 526.723 556.913 496.172 542.35 484.181Z" fill="#263238"/>
<path d="M661.304 768.371C661.304 768.371 636.667 680.996 636.667 629.571C636.667 578.147 628.089 540.56 617.547 524.081C607.005 507.602 597.117 500.987 592.489 500.987C587.861 500.987 591.18 506.924 597.771 515.503C604.363 524.081 610.3 528.686 612.942 539.251C615.583 549.817 615.56 562.977 612.264 561.668C608.968 560.359 603.709 533.969 599.081 524.081C594.452 514.194 583.256 501.665 576.664 495.728C570.072 489.79 555.627 471.979 548.988 476.607C542.35 481.235 546.347 487.803 550.297 490.445C554.248 493.086 570.072 508.911 577.319 518.798C584.565 528.686 589.193 553.861 585.243 554.398C581.292 554.936 569.418 518.144 562.826 510.22C556.235 502.296 529.868 480.557 523.931 479.833C517.993 479.108 517.339 488.411 522.598 493.016C527.858 497.621 545.505 517.489 551.536 529.411C557.567 541.332 560.115 563.047 554.832 557.764C549.549 552.481 540.994 530.743 533.795 523.497C526.595 516.251 504.787 493.11 499.504 495.798C494.221 498.486 495.554 505.148 500.159 509.636C504.763 514.124 522.575 539.322 527.203 552.505C531.831 565.688 537.091 602.597 534.449 597.338C531.808 592.078 523.229 565.034 518.625 553.814C514.02 542.594 504.787 537.335 503.454 542.617C502.122 547.9 504.787 550.518 508.129 562.392C511.472 574.267 511.425 605.893 521.313 623.704C531.2 641.516 569.441 689.645 574.724 702.828C580.007 716.011 594.382 776.225 594.382 776.225" fill="white"/>
<path d="M661.304 768.371C661.304 768.371 636.667 680.996 636.667 629.571C636.667 578.147 628.089 540.56 617.547 524.081C607.005 507.602 597.117 500.987 592.489 500.987C587.861 500.987 591.18 506.924 597.771 515.503C604.363 524.081 610.3 528.686 612.942 539.251C615.583 549.817 615.56 562.977 612.264 561.668C608.968 560.359 603.709 533.969 599.081 524.081C594.452 514.194 583.256 501.665 576.664 495.728C570.072 489.79 555.627 471.979 548.988 476.607C542.35 481.235 546.347 487.803 550.297 490.445C554.248 493.086 570.072 508.911 577.319 518.798C584.565 528.686 589.193 553.861 585.243 554.398C581.292 554.936 569.418 518.144 562.826 510.22C556.235 502.296 529.868 480.557 523.931 479.833C517.993 479.108 517.339 488.411 522.598 493.016C527.858 497.621 545.505 517.489 551.536 529.411C557.567 541.332 560.115 563.047 554.832 557.764C549.549 552.481 540.994 530.743 533.795 523.497C526.595 516.251 504.787 493.11 499.504 495.798C494.221 498.486 495.554 505.148 500.159 509.636C504.763 514.124 522.575 539.322 527.203 552.505C531.831 565.688 537.091 602.597 534.449 597.338C531.808 592.078 523.229 565.034 518.625 553.814C514.02 542.594 504.787 537.335 503.454 542.617C502.122 547.9 504.787 550.518 508.129 562.392C511.472 574.267 511.425 605.893 521.313 623.704C531.2 641.516 569.441 689.645 574.724 702.828C580.007 716.011 594.382 776.225 594.382 776.225" stroke="#263238" stroke-linecap="round" stroke-linejoin="round"/>
<path d="M114.592 501.221C113.517 502.74 112.442 504.306 111.39 505.896" stroke="white" stroke-linecap="round" stroke-linejoin="round"/>
<path d="M132.124 481.048C127.449 485.372 123.127 490.062 119.197 495.073" stroke="white" stroke-linecap="round" stroke-linejoin="round"/>
<path d="M113.073 489.931C108.495 496.386 104.342 503.132 100.638 510.126" stroke="white" stroke-linecap="round" stroke-linejoin="round"/>
<path d="M231.303 526.793C230.251 528.312 229.175 529.878 228.124 531.468" stroke="white" stroke-linecap="round" stroke-linejoin="round"/>
<path d="M248.834 506.62C244.171 510.949 239.857 515.638 235.931 520.645" stroke="white" stroke-linecap="round" stroke-linejoin="round"/>
<path d="M229.947 515.503C225.36 521.953 221.206 528.699 217.512 535.699" stroke="white" stroke-linecap="round" stroke-linejoin="round"/>
<path d="M67.5857 757.455C67.5857 757.455 94.0459 680.996 94.0459 629.571C94.0459 578.147 102.624 540.56 113.166 524.081C123.708 507.602 133.619 500.987 138.224 500.987C142.829 500.987 139.557 506.924 132.965 515.503C126.373 524.081 120.436 528.686 117.795 539.251C115.153 549.817 115.153 562.977 118.449 561.668C121.745 560.359 127.098 534.086 131.633 524.081C136.167 514.077 147.457 501.665 154.049 495.728C160.641 489.79 175.086 471.979 181.748 476.607C188.41 481.235 184.389 487.803 180.439 490.445C176.489 493.086 160.641 508.911 153.394 518.798C146.148 528.686 141.52 553.861 145.494 554.398C149.467 554.936 161.318 518.144 167.91 510.22C174.502 502.296 200.869 480.557 206.806 479.833C212.743 479.108 213.397 488.411 208.115 493.016C202.832 497.621 185.044 517.489 179.107 529.411C173.169 541.332 170.552 563.047 175.811 557.764C181.07 552.481 189.672 530.743 196.848 523.497C204.024 516.251 225.856 493.11 231.139 495.798C236.422 498.486 235.089 505.148 230.461 509.636C225.833 514.124 208.045 539.321 203.44 552.505C198.835 565.688 193.552 602.597 196.194 597.338C198.835 592.078 207.39 565.034 212.018 553.814C216.647 542.594 225.856 537.335 227.165 542.617C228.474 547.9 225.856 550.518 222.49 562.392C219.124 574.267 219.194 605.893 209.307 623.704C199.419 641.516 161.178 689.645 155.896 702.828C150.613 716.011 134.461 765.332 134.461 765.332" fill="white"/>
<path d="M67.5857 757.455C67.5857 757.455 94.0459 680.996 94.0459 629.571C94.0459 578.147 102.624 540.56 113.166 524.081C123.708 507.602 133.619 500.987 138.224 500.987C142.829 500.987 139.557 506.924 132.965 515.503C126.373 524.081 120.436 528.686 117.795 539.251C115.153 549.817 115.153 562.977 118.449 561.668C121.745 560.359 127.098 534.086 131.633 524.081C136.167 514.077 147.457 501.665 154.049 495.728C160.641 489.79 175.086 471.979 181.748 476.607C188.41 481.235 184.389 487.803 180.439 490.445C176.489 493.086 160.641 508.911 153.394 518.798C146.148 528.686 141.52 553.861 145.494 554.398C149.467 554.936 161.318 518.144 167.91 510.22C174.502 502.296 200.869 480.557 206.806 479.833C212.743 479.108 213.397 488.411 208.115 493.016C202.832 497.621 185.044 517.489 179.107 529.411C173.169 541.332 170.552 563.047 175.811 557.764C181.07 552.481 189.672 530.743 196.848 523.497C204.024 516.251 225.856 493.11 231.139 495.798C236.422 498.486 235.089 505.148 230.461 509.636C225.833 514.124 208.045 539.321 203.44 552.505C198.835 565.688 193.552 602.597 196.194 597.338C198.835 592.078 207.39 565.034 212.018 553.814C216.647 542.594 225.856 537.335 227.165 542.617C228.474 547.9 225.856 550.518 222.49 562.392C219.124 574.267 219.194 605.893 209.307 623.704C199.419 641.516 161.178 689.645 155.896 702.828C150.613 716.011 134.461 765.332 134.461 765.332" stroke="#263238" stroke-linecap="round" stroke-linejoin="round"/>
<path d="M256.36 140.104L257.786 138.234" stroke="#263238" stroke-linecap="round" stroke-linejoin="round"/>
<path d="M260.661 134.587C286.214 102.474 318.148 76.0079 354.446 56.8599C390.745 37.712 430.619 26.2983 471.552 23.3395C512.484 20.3808 553.586 25.9413 592.261 39.67C630.935 53.3986 666.344 74.9971 696.25 103.102" stroke="#263238" stroke-linecap="round" stroke-linejoin="round" stroke-dasharray="1.99 1.99"/>
<path d="M697.933 104.714L699.616 106.327" stroke="#263238" stroke-linecap="round" stroke-linejoin="round"/>
<path d="M273.821 146.205L242.031 160.767L245.304 125.962L273.821 146.205Z" fill="#263238"/>
<path d="M754.312 403.818V493.203" stroke="#263238" stroke-linecap="round" stroke-linejoin="round" stroke-dasharray="2 2"/>
<path d="M736.828 408.914L754.313 378.643L771.797 408.914H736.828Z" fill="#263238"/>
</svg>
